<?xml version="1.0" encoding="utf-8"?>
<!-- Generator: Adobe Illustrator 19.2.1, SVG Export Plug-In . SVG Version: 6.00 Build 0)  -->
<svg version="1.1" id="Layer_1" xmlns="http://www.w3.org/2000/svg" xmlns:xlink="http://www.w3.org/1999/xlink" x="0px" y="0px"
	 viewBox="0 0 600 600" style="enable-background:new 0 0 600 600;" xml:space="preserve">
<style type="text/css">
	.st0{opacity:0.25;}
	.st1{fill:#0D47A1;}
	.st2{opacity:0.15;fill:#D6D8E5;enable-background:new    ;}
	.st3{opacity:0.5;fill:#EDEFF9;enable-background:new    ;}
	.st4{fill:#EDEFF9;}
	.st5{fill:#FFBC00;}
	.st6{fill:#424956;}
	.st7{fill:#494949;}
	.st8{fill:#2B303F;}
	.st9{opacity:0.4;fill:#D6D8E5;enable-background:new    ;}
	.st10{fill:#B1B4C4;}
	.st11{fill:#D6D8E5;}
	.st12{fill:#9EA1AF;}
	.st13{fill:#C4C7D6;}
	.st14{fill:#E4E7F2;}
	.st15{fill:#FFFFFF;}
	.st16{fill:#E9EAF2;}
	.st17{fill:#F5F6FF;}
	.st18{fill:none;stroke:#E9EAF2;stroke-width:0.31;stroke-miterlimit:10;}
	.st19{fill:none;stroke:#E9EAF2;stroke-width:1.53;stroke-miterlimit:10;}
	.st20{fill:#EDF0F9;}
	.st21{fill:#E2E5F2;}
	.st22{fill:#2157A9;}
	.st23{fill:#FFCEA9;}
	.st24{fill:#EDEDED;}
	.st25{fill:#38226D;}
	.st26{fill:#9C73FF;}
	.st27{fill:#F4F4F4;}
	.st28{fill:#3A2C6D;}
</style>
<g transform="translate(300,300)" class="st0">
	<path class="st1" d="M171.9-168.7c48.7,22.4,100,56.7,111.7,101.3c11.7,44.7-16.5,99.8-46.3,145.1
		c-29.9,45.4-61.6,80.9-100.4,109.9C98.1,216.6,52.3,239,0.4,245.9c-52,6.9-110-1.7-154.5-32.2c-44.4-30.4-75.3-82.8-98.4-142.3
		c-23.1-59.6-38.4-126.3-21.9-185.4c16.5-59.2,64.8-110.4,121-125.5c56.3-15,120.4,6.3,175.6,22.1
		C77.3-201.4,123.2-190.9,171.9-168.7z"/>
</g>
<g id="Слой_2">
	<g id="Слой_1-2">
		<ellipse class="st2" cx="128.5" cy="354.3" rx="67.5" ry="39"/>
		<ellipse class="st3" cx="127.7" cy="350.1" rx="37.7" ry="21.7"/>
		<ellipse class="st4" cx="127.3" cy="342.4" rx="10.7" ry="6.2"/>
		<rect x="117.4" y="260.1" class="st4" width="20.7" height="81.2"/>
		<path class="st5" d="M116.4,259.2c0,0,0.6,16.7,12.4,46.6c0,0,11.1-24.1,12.2-47.1S116.4,259.2,116.4,259.2z"/>
		<polygon class="st1" points="101.9,196.3 74.4,223.1 71.1,258 104.4,241.3 110.4,198.7 		"/>
		<polygon class="st1" points="155.8,196.3 183.2,223.1 186.5,258 153.2,240.2 147.2,198.7 		"/>
		<ellipse class="st6" cx="128.5" cy="255.5" rx="13.7" ry="7.9"/>
		<polygon class="st7" points="107.8,247.6 107.8,240.5 149.1,240.5 149.1,247.9 		"/>
		<ellipse class="st8" cx="128.5" cy="247.6" rx="20.7" ry="12"/>
		<ellipse class="st4" cx="128.4" cy="236.8" rx="25.3" ry="14.6"/>
		<path class="st4" d="M155.7,210.8L155.7,210.8c0,1.2,0,2.3,0,3.4c0,0.9,0,1.9,0,2.8c0,1.3-0.1,2.5-0.1,3.7c0,1.5-0.1,2.9-0.2,4.2
			c-0.1,1.3-0.1,2.7-0.2,3.9c-0.4,5.3-0.4,9.2-1,10.7c-3.6,8.4-15.7,3.8-21.7,0.8c-2.2-1.1-3.7-2-3.7-2h-0.5c0,0-1.7,0.9-4.3,2
			c-6.3,2.5-17.4,7-20.5-0.7c-0.6-1.4-1.1-6-1.4-10.8c-0.1-1.2-0.2-2.5-0.2-3.9c-0.1-1.4-0.1-2.7-0.2-4.2c0-1.2-0.1-2.4-0.1-3.6
			c0-0.9,0-1.9,0-2.8l0,0v-3.4l0,0c-0.2-32.8,3.3-85.1,14.8-107.5c3.3-6.5,7.3-10.4,12.1-10.7l0,0h0.5l0,0c4.7,0.2,8.7,4.2,12,10.6
			C152.3,125.5,155.9,177.7,155.7,210.8z"/>
		<circle class="st8" cx="128.5" cy="170.4" r="9.5"/>
		<path class="st6" d="M128.5,181.4c-6,0-10.9-4.9-10.9-10.9c0-6,4.9-10.9,10.9-10.9c6,0,10.9,4.9,10.9,10.9
			C139.5,176.5,134.6,181.3,128.5,181.4z M128.5,162.3c-4.5,0-8.2,3.6-8.2,8.1c0,4.5,3.6,8.2,8.1,8.2c4.5,0,8.2-3.6,8.2-8.1
			c0,0,0,0,0,0C136.7,165.9,133,162.3,128.5,162.3z"/>
		<circle class="st8" cx="128.5" cy="142.3" r="9.5"/>
		<path class="st6" d="M128.5,153.3c-6.1,0-11-4.9-11-10.9s4.9-11,10.9-11c6,0,11,4.9,11,10.9C139.5,148.4,134.6,153.3,128.5,153.3z
			 M128.5,134.2c-4.5,0-8.2,3.6-8.2,8.1c0,4.5,3.6,8.2,8.1,8.2c4.5,0,8.2-3.6,8.2-8.1c0,0,0,0,0,0
			C136.7,137.9,133,134.2,128.5,134.2L128.5,134.2L128.5,134.2z"/>
		<path class="st1" d="M155.7,229.7c0,1.2,0,2.3,0,3.5c-0.9,3.1-3.5,6.1-7.6,8.5c-10.8,6.2-28.2,6.2-39,0c-4.1-2.4-6.7-5.4-7.6-8.5
			l0,0v-3.4c0.9,3.2,3.5,6.2,7.7,8.6c10.8,6.2,28.2,6.2,39,0C152.2,235.9,154.8,232.9,155.7,229.7z"/>
		<path class="st1" d="M155.6,235.2c0,1.3-0.1,2.5-0.1,3.7c-1.1,2.9-3.5,5.7-7.5,8c-10.8,6.2-28.2,6.2-39,0c-4-2.3-6.5-5.1-7.5-8
			c0-1.2-0.1-2.4-0.1-3.6c0.9,3.1,3.5,6,7.6,8.3c10.8,6.2,28.2,6.2,39,0C152.1,241.1,154.6,238.2,155.6,235.2z"/>
		<path class="st1" d="M155.3,225.5c-1.1,2.8-3.6,5.4-7.3,7.5c-10.8,6.2-28.2,6.2-39,0c-3.8-2.2-6.2-4.8-7.3-7.6
			c0.1,1.4,0.2,2.7,0.2,3.9c1.2,2.6,3.6,5,7.1,7.1c4.6,2.5,9.7,4,14.9,4.4c2.8,0.3,5.6,0.3,8.5,0.1c5.5-0.3,10.8-1.9,15.6-4.5
			c3.5-2,5.8-4.4,7.1-7L155.3,225.5z"/>
		<path class="st1" d="M140.8,103.3c-8,2.5-16.6,2.5-24.6,0c3.3-6.5,7.3-10.4,12.1-10.7l0,0h0.5l0,0
			C133.5,92.9,137.5,96.9,140.8,103.3z"/>
		<rect x="126.5" y="196.4" class="st1" width="4.7" height="61.5"/>
		<g id="monitor">
			<path class="st9" d="M353.3,410.7l-54.5-31.4c-3.9-2.3-3.4-6.2,1.1-8.9l35.3-20.4l68.7,39.7l-35.3,20.4
				C364.1,412.7,357.2,413,353.3,410.7z"/>
			<path class="st10" d="M357.3,408.4l-54.5-31.5c-3.9-2.3-3.4-6.2,1.1-8.8l35.3-20.4l68.7,39.7l-35.2,20.4
				C368.1,410.4,361.2,410.7,357.3,408.4z"/>
			<polygon class="st10" points="407.9,387.4 407.9,385.3 404.7,387.1 			"/>
			<polygon class="st10" points="300.2,373.2 300.2,371.1 303.4,372.4 			"/>
			<path class="st11" d="M357.3,406.3l-54.5-31.4c-3.9-2.3-3.4-6.2,1.1-8.8l35.3-20.4l68.7,39.7l-35.2,20.4
				C368.1,408.3,361.2,408.6,357.3,406.3z"/>
			<polygon class="st12" points="339.4,345.7 330.9,317.5 400.3,357.4 407.9,385.3 			"/>
			<path class="st12" d="M405.9,386.5l2-1.2l-3-2.4L405.9,386.5z"/>
			<polygon class="st10" points="337.2,346.8 328.7,318.6 398.1,358.4 405.9,386.5 			"/>
			<path class="st13" d="M513.5,434L244.7,278.8c-3.8-2.2-6.8-8-6.8-13V57.9c0-5,3.1-7.3,6.8-5.2l268.8,155.2c3.8,2.2,6.8,8,6.8,13
				v207.9C520.3,433.9,517.3,436.2,513.5,434z"/>
			<polygon class="st13" points="514.8,436.1 517.8,434.4 516.5,425.6 			"/>
			<path class="st10" d="M237.4,54l2.9-1.7l4.2,2.4c0,0-4.5,0.7-4.6,0.7C239.8,55.4,237.4,54,237.4,54z"/>
			<path class="st14" d="M511,435.4L242.2,280.3c-3.8-2.2-6.8-8-6.8-13V59.3c0-5,3.1-7.3,6.8-5.2L511,209.3c3.8,2.2,6.8,8,6.8,13
				v207.9C517.8,435.3,514.8,437.6,511,435.4z"/>
			<path class="st11" d="M510.5,435.7L241.8,280.5c-3.8-2.2-6.8-8-6.8-13V59.6c0-5,3.1-7.3,6.8-5.2l268.8,155.2
				c3.8,2.2,6.8,8,6.8,13v207.8C517.4,435.6,514.3,437.9,510.5,435.7z"/>
			<path class="st15" d="M513.7,423L238.4,264.1l0.1-203.7c0-2.1,1.5-2.9,3.3-1.9l268.8,155.2c1.9,1.3,3.1,3.3,3.3,5.6L513.7,423z"
				/>
			<path class="st16" d="M347,147.8l-88.2-50.9c-0.8-0.6-1.3-1.5-1.3-2.6v-6.1c0-0.9,0.6-1.4,1.3-1L347,138c0.8,0.6,1.3,1.5,1.3,2.6
				v6.1C348.4,147.7,347.8,148.2,347,147.8z"/>
			<path class="st16" d="M324.4,149.2l-65.1-37.6c-0.8-0.6-1.3-1.5-1.3-2.6V106c0-0.9,0.6-1.4,1.3-1l65.1,37.6
				c0.8,0.6,1.3,1.5,1.3,2.6v3.1C325.7,149.2,325.1,149.7,324.4,149.2z"/>
			<path class="st16" d="M324.4,160.8l-65.1-37.6c-0.8-0.6-1.3-1.5-1.3-2.6v-3.1c0-0.9,0.6-1.4,1.3-1l65.1,37.6
				c0.8,0.6,1.3,1.5,1.3,2.6v3.1C325.7,160.8,325.1,161.3,324.4,160.8z"/>
			<path class="st1" d="M312.1,165.3l-52.8-30.5c-0.8-0.6-1.3-1.5-1.3-2.6v-3.1c0-0.9,0.6-1.4,1.3-1l52.8,30.5
				c0.8,0.6,1.3,1.5,1.3,2.6v3.1C313.5,165.3,312.8,165.8,312.1,165.3z"/>
			<path class="st16" d="M347,269.6l-88.2-50.9c-0.8-0.6-1.3-1.5-1.3-2.6V210c0-1,0.6-1.4,1.3-1l88.2,50.9c0.8,0.6,1.3,1.5,1.3,2.6
				v6.1C348.4,269.6,347.8,270,347,269.6z"/>
			<path class="st16" d="M324.4,271.1l-65.1-37.6c-0.8-0.6-1.3-1.5-1.3-2.6v-3.1c0-1,0.6-1.4,1.3-1l65.1,37.6
				c0.8,0.6,1.3,1.5,1.3,2.6v3.1C325.7,271,325.1,271.5,324.4,271.1z"/>
			<path class="st16" d="M324.4,282.7l-65.1-37.6c-0.8-0.6-1.3-1.5-1.3-2.6v-3.1c0-0.9,0.6-1.4,1.3-1l65.1,37.6
				c0.8,0.6,1.3,1.5,1.3,2.6v3.1C325.7,282.6,325.1,283.1,324.4,282.7z"/>
			<path class="st1" d="M312.1,287.2l-52.8-30.5c-0.8-0.6-1.3-1.5-1.3-2.6V251c0-1,0.6-1.4,1.3-1l52.8,30.5c0.8,0.6,1.3,1.5,1.3,2.6
				v3.1C313.5,287.2,312.8,287.6,312.1,287.2z"/>
			<path class="st17" d="M370.6,284.7c0,0,9.7,8.2,23.8-3c10-8.2,19-3.5,24-0.7c5,2.8,12.2,4.5,25.9,29.4c0,0,4.5,7.8,11.8,12
				s10.9,2.2,16.7-6.6c5.8-8.8,9.6-18.4,20.3-12.1v88l-123.5-71.2v-36.3L370.6,284.7z"/>
			<path class="st16" d="M343.8,247.4l-84.5-48.8c-0.8-0.6-1.3-1.5-1.3-2.6v-48.8c0-0.9,0.6-1.4,1.3-1l84.5,48.8
				c0.8,0.6,1.3,1.5,1.3,2.6v48.8C345.1,247.4,344.5,247.8,343.8,247.4z"/>
			<polyline class="st18" points="369.7,282.7 369.7,320.4 493.2,391.7 493.2,303.8 			"/>
			<line class="st18" x1="418.2" y1="281.4" x2="418.2" y2="348.3"/>
			<line class="st18" x1="456" y1="323.8" x2="456" y2="370.2"/>
			<path class="st19" d="M369.7,284.1c21.9,13.6,25-17.1,48.9-3.3c23.9,13.8,20.6,31.7,38.2,41.9s18-29.6,36.4-19"/>
			<ellipse transform="matrix(0.866 -0.5 0.5 0.866 -84.6967 246.8167)" class="st1" cx="418.2" cy="281.5" rx="2.4" ry="4.1"/>
			
				<ellipse transform="matrix(0.867 -0.4983 0.4983 0.867 -86.0425 287.1399)" class="st1" cx="494.9" cy="304.8" rx="2.4" ry="4.1"/>
			
				<ellipse transform="matrix(0.867 -0.4983 0.4983 0.867 -100.6053 271.0966)" class="st1" cx="457.6" cy="324" rx="2.4" ry="4.1"/>
			<ellipse transform="matrix(0.866 -0.5 0.5 0.866 -92.5404 222.9082)" class="st1" cx="369.7" cy="284.1" rx="2.4" ry="4.1"/>
			<path class="st16" d="M373.2,219.2l-5.1-2.9c-0.8-0.6-1.3-1.5-1.3-2.6v-24.4c0-1,0.6-1.4,1.3-1l5.1,2.9c0.8,0.6,1.3,1.5,1.4,2.5
				v24.5C374.5,219.2,373.9,219.7,373.2,219.2z"/>
			<path class="st1" d="M384.9,226l-5.1-2.9c-0.8-0.6-1.3-1.5-1.3-2.6v-49.8c0-0.9,0.6-1.4,1.3-1l5.1,2.9c0.8,0.6,1.3,1.5,1.3,2.6
				V225C386.2,226,385.6,226.4,384.9,226z"/>
			<path class="st16" d="M408.1,239.4l-5.1-2.9c-0.8-0.6-1.3-1.5-1.3-2.6V189c0-1,0.6-1.4,1.3-1l5.1,2.9c0.8,0.6,1.3,1.5,1.3,2.6
				v44.9C409.5,239.4,408.9,239.9,408.1,239.4z"/>
			<path class="st1" d="M419.8,246.2l-5.1-2.9c-0.8-0.6-1.3-1.5-1.3-2.6v-37.2c0-0.9,0.6-1.4,1.3-1l5.1,2.9c0.8,0.6,1.3,1.5,1.3,2.6
				v37.2C421.1,246.1,420.5,246.6,419.8,246.2z"/>
			<path class="st16" d="M443,259.6l-5.1-2.9c-0.8-0.6-1.3-1.5-1.3-2.6v-18.4c0-1,0.6-1.4,1.3-1l5.1,2.9c0.8,0.6,1.3,1.5,1.3,2.6
				v18.4C444.4,259.5,443.8,260,443,259.6z"/>
			<path class="st1" d="M454.7,266.3l-5-2.9c-0.8-0.6-1.3-1.5-1.3-2.6v-62.6c0-1,0.6-1.4,1.3-1l5.1,2.9c0.8,0.6,1.3,1.5,1.3,2.6
				v62.6C456,266.3,455.4,266.7,454.7,266.3z"/>
			<path class="st16" d="M483.1,282.7l-5.1-2.9c-0.8-0.6-1.3-1.5-1.3-2.6v-18.4c0-1,0.6-1.4,1.3-1l5.1,2.9c0.8,0.6,1.3,1.5,1.3,2.6
				v18.4C484.5,282.7,483.9,283.2,483.1,282.7z"/>
			<path class="st1" d="M494.8,289.5l-5.1-2.9c-0.8-0.6-1.3-1.5-1.3-2.6v-24.4c0-1,0.6-1.4,1.3-1l5.1,2.9c0.8,0.6,1.3,1.5,1.3,2.6
				v24.5C496.1,289.5,495.5,289.9,494.8,289.5z"/>
		</g>
		<path class="st9" d="M159.4,519.5l-41.9-24.2c-4.8-2.8-4.2-7.5,1.3-10.7l21.3-12.3c5.5-3.2,13.8-3.5,18.5-0.7l41.9,24.2
			c4.8,2.7,4.2,7.5-1.3,10.7L178,518.8C172.5,521.9,164.2,522.3,159.4,519.5z"/>
		<path class="st11" d="M222.4,489.3v-58.5l-89.5-10.1v58.9l0,0c-0.1,1.8,0.9,3.5,3.2,4.8l41.9,24.2c4.8,2.7,13.1,2.4,18.5-0.8
			l21.3-12.3C220.9,493.8,222.5,491.5,222.4,489.3L222.4,489.3z"/>
		<path class="st20" d="M222.4,437.2v-6.4h-6.9l-38.2-22.1c-4.8-2.8-13.1-2.4-18.5,0.8l-21.3,12.3c-0.4,0.2-0.7,0.5-1.1,0.7
			l-3.4-1.8c0,0,0,6.8,0,7l0,0c-0.1,1.8,0.9,3.5,3.2,4.8l41.9,24.2c4.8,2.7,13.1,2.4,18.5-0.8l21.3-12.3
			C221,441.8,222.5,439.5,222.4,437.2L222.4,437.2z"/>
		<path class="st21" d="M178,449.7l-41.9-24.2c-4.8-2.7-4.2-7.5,1.3-10.7l21.3-12.3c5.5-3.2,13.8-3.5,18.5-0.8l41.9,24.2
			c4.8,2.7,4.2,7.5-1.3,10.7L196.6,449C191.1,452.1,182.8,452.5,178,449.7z"/>
		<path class="st1" d="M168.6,416.7v-2.3h-1.4l-0.4-0.3c-2.8-1.4-6.2-1.4-9.1,0c-0.3,0.2-0.5,0.3-0.8,0.5l-1.1-0.3v2.3
			c0.1,1.1,0.8,2.1,1.9,2.6c2.8,1.4,6.2,1.4,9.1,0C167.8,418.9,168.5,417.9,168.6,416.7z"/>
		<ellipse class="st22" cx="162.2" cy="414.4" rx="6.4" ry="3.7"/>
		<path class="st1" d="M184.5,426.5c-0.3,0.8-1,1.4-1.7,1.8c-2.8,1.4-6.2,1.4-9.1,0c-0.8-0.4-1.4-1-1.7-1.8
			c-0.5-1.2,0.1-2.5,1.7-3.4c2.8-1.4,6.2-1.4,9.1,0C184.4,424,185,425.3,184.5,426.5z"/>
		<path class="st22" d="M184.5,426.5c-0.3,0.8-1,1.4-1.7,1.8c-2.8,1.4-6.2,1.4-9.1,0c-1-0.1-1.8-0.9-1.7-1.9
			c0.1-0.9,0.8-1.6,1.7-1.7c2.8-1.4,6.2-1.4,9.1,0C183.5,425.1,184.1,425.7,184.5,426.5z"/>
		<path class="st1" d="M199.5,434.9v-2.3h-1.4l-0.4-0.3c-2.8-1.4-6.2-1.4-9.1,0c-0.3,0.2-0.5,0.3-0.8,0.5l-1.1-0.2v2.3
			c0.1,1.1,0.8,2.1,1.9,2.6c2.8,1.4,6.2,1.4,9.1,0C198.7,437,199.4,436,199.5,434.9z"/>
		<ellipse class="st22" cx="193.1" cy="432.5" rx="6.4" ry="3.7"/>
		<g id="Men_2">
			<path id="_Контур_" class="st23" d="M122.3,407.3c-0.3,2.2-2.8,11.6-2.3,14.9s9.5,8.6,9.5,8.6l1.2-5.5l-4.9-4.8l1.3-9.2
				L122.3,407.3z"/>
			<path id="_Контур_2" class="st24" d="M129.2,398c-1.8-0.8-3.9-0.2-5,1.5c-1.3,2.2-2.7,9.6-2.8,10.9c0,0,1.9,2.5,4.6,2.1
				L129.2,398z"/>
			<path class="st25" d="M139.3,503.3c1.9,0.5,4,0.3,5.8-0.7c1.4,0,8.9-3.2,10-0.5c0.9,2.4-2.4,4.6-4.1,5c-3.8,0.9-6.6,2.8-8.2,3.2
				c-1.1,0.2-2.6,0.4-3.5-0.5C138.2,508.7,138.3,504.7,139.3,503.3z"/>
			<path class="st26" d="M142.8,509.6c1.5-0.3,4.4-2.2,8.2-3.1c1.5-0.4,4-2,4.2-3.9c0.3,2.2-2.6,4.1-4.2,4.5
				c-3.8,0.9-6.6,2.8-8.2,3.2c-1.1,0.2-2.6,0.4-3.5-0.5c-0.2-0.3-0.4-0.6-0.5-0.9C139.9,509.7,141.4,510,142.8,509.6z"/>
			<path class="st25" d="M127.1,497.8c1.9,0.5,4,0.3,5.8-0.7c1.4,0,8.9-3.2,10-0.5c0.9,2.4-2.4,4.6-4.1,5c-3.8,0.9-6.6,2.8-8.2,3.1
				c-1.1,0.2-2.6,0.4-3.5-0.5C125.9,503.2,126,499.2,127.1,497.8z"/>
			<path class="st26" d="M130.6,504.1c1.5-0.3,4.4-2.2,8.2-3.2c1.5-0.3,4-2,4.2-3.9c0.3,2.2-2.6,4.1-4.2,4.5
				c-3.8,0.9-6.6,2.8-8.2,3.1c-1.1,0.2-2.6,0.4-3.5-0.5c-0.2-0.3-0.4-0.6-0.5-0.9C127.7,504.2,129.2,504.5,130.6,504.1z"/>
			<path id="_Контур_3" class="st1" d="M126.9,477.3c0.3-2.8,0.9-5.6,1.7-8.3c0,0-0.5-7.1-0.8-13.9c-0.3-7.7-3-14.4-0.9-20.6
				l23.7,5.3c0,0-1.4,30.6-1.7,34.3c-0.2,2.9-0.5,5.8-1.1,8.6c-1.1,5.9-2.8,20.1-2.8,20.1c-2.5,1.5-5.8,0.6-5.8,0.6
				s0.2-17.8,0.3-22.2c0.2-5.2,0.4-4.8,0.4-4.8l-0.8-13l-0.5-6.5c0,0-0.7,4.8-1.1,9c-0.4,3.7-1.3,7.1-2.3,13.9c-0.9,6-2.3,18-2.3,18
				c-2.5,1.5-5.9,0.2-5.9,0.2S126.3,482.5,126.9,477.3z"/>
			<path id="_Контур_4" class="st23" d="M130.4,398.1c1.8,0.1,3.2,0.6,3.4,0c0.2-0.9,0.3-1.9,0.4-2.8
				c-0.2-0.5-0.4-1.1-0.4-1.1c-2.3-1.4-3-3.8-3.3-6.7c-0.5-4.9,2.1-9.1,7-9.6c4.6-0.5,8,2.7,8.9,7.2c0.5,2.2,1.5,6.3,0.2,9.9
				c-0.7,2-1.7,3.6-2.6,3.9c-0.9,0-1.8-0.1-2.7-0.2l0,0c0,0-0.2,1.4-0.4,2.2c-0.2,0.9-0.1,1.3,1.6,2.4s-2.6,3.3-5.4,3.1
				c-2.8-0.2-6-1.9-6.9-3.8C129.1,400.5,129.2,398.1,130.4,398.1z"/>
			<path id="_Контур_5" class="st27" d="M133,398.4c-0.5,1.2,0.8,2.8,4.2,3.8c3.4,1,3.7-0.3,3.7-0.3c2.3,1,4.4,2.1,6.6,3.4
				c2,1.4,2.9,5.5,3.2,12.5c0.3,8,0.3,20,0.1,22c0,0-3.8,3.8-8.7,3.4c-4.9-0.4-13-4.7-15-8c0.1-7.1,0.9-8.2-0.3-12.3
				c-2.6-9.3-4-13.1-2.7-19.3c1-5.1,2.5-5.7,4.5-5.7C130.1,398,131.5,398.1,133,398.4z"/>
			<path id="_Контур_6" class="st23" d="M158.3,424.4c-4,1-4.9-1.5-5.5-3.6c-1.3-5.1-2-9.6-2.9-12.5c-1.1-3.4-2.3-3.9-3.9-4.6
				c-1.9-0.8-3.6,0.9-2.9,5.2c0.8,5,2,9.9,3.7,14.7c0.5,1.6,1.6,4.4,3.3,5.7c2.1,1.7,5.2,1.6,9.9,0.4c2-0.5,4.2-1.7,8-3.5
				c1-0.5,1.8-0.8,3.8-1.7c2-0.9,3.7-2.2,5-3.9c1-1.5,1.2-2.2,0.9-2.5s-0.7-0.3-1.3,0.3c-0.8,1.1-1.8,2-2.9,2.7c0,0,1.3-1.3,1.9-2.2
				c0.6-0.8,1.1-1.6,1.5-2.5c0.4-0.9-0.4-2-0.9-1.4s-0.8,1.2-1.9,2.5c-0.6,0.7-1.2,1.3-1.9,1.8c0.6-0.9,1.2-1.8,1.7-2.7
				c0.4-0.7,0.7-1.6,0.6-2.5c0-0.5-0.7-1-1.3-0.1c-0.6,1.2-1.3,2.3-2.1,3.3c-0.9,0.9-1.7,1.5-1.7,1.2c0-0.3,0.5-0.8,0.9-1.9
				c0.3-1.1,0-2.3-0.6-2.4c-0.6-0.1-0.5-0.1-0.9,0.9c-0.7,1.1-1.3,2.2-1.8,3.3c-0.3,1.1-0.9,2-1.6,2.8
				C164.3,422.3,162.1,423.5,158.3,424.4z"/>
			<path id="_Контур_7" class="st24" d="M144.5,403.1c2.7-0.4,4.6,0.8,5.7,4.8c1.2,4,2,7.3,2,7.3c-1.1,1.5-2.6,2.6-4.5,3
				c-3.2,0.8-4.3-0.8-4.3-0.8s-0.9-4.2-1.4-7.1C141.5,407.5,141.3,403.6,144.5,403.1z"/>
			<path class="st28" d="M146.2,384.4c0,0,4.2-6.4-4.9-7.7c-6.6-0.9-10.8,3.3-11.3,7.9c-0.5,4.4,2.2,8.9,4.2,10.7
				c1.9,0.5,3.9,0.2,5.7-0.7c0.1-1.2,0.2-2.4,0.1-3.6C140,391,136.8,384.3,146.2,384.4z"/>
		</g>
		<ellipse class="st9" cx="420.1" cy="493.7" rx="23.1" ry="13.4"/>
		<g id="Girl_14">
			<path id="_Контур_8" class="st28" d="M420,364.9c0.9-1.5,8.3-2.5,10.7,3.6c0.9,2.3,0.8,8.3,1.5,12.1c0.8,3.8,2.6,5.9,3.2,9
				c0.6,3.1-0.4,8.2-7.8,9.1c-7.4,0.9-13-1.7-14.8-4c-1.7-2.3-1.8-7.3,0-10c1.8-2.7,3.2-4.9,3.1-8.3L420,364.9z"/>
			<path id="_Контур_9" class="st28" d="M424.8,363.9c0,0-5.5-1.6-8.8,1.4c-2.2,2.1-3.1,5.2-2.3,8.1c0.4,1.7,1.3,4.1,2.7,4.2
				C417.7,377.7,424.8,363.9,424.8,363.9z"/>
			<path id="_Контур_10" class="st23" d="M426.9,378.8c0,0-0.4,6.1-0.3,6.6s2.4,0.9,3.1,1.4c0.6,0.5-3.3,6.8-5.4,7.7
				s-8.3-1.4-8.7-4.5c-0.4-2.9,1.8-5.1,2.6-5.9c0.6-0.1,1.2-0.1,1.7,0l0.2-3C422.9,380.2,426.9,378.8,426.9,378.8z"/>
			<path class="st23" d="M412.1,390.4c0-0.2-0.9,0.3-0.9,0.3s-0.4,15.7-1.2,17.2l0,0c-2,3.3-7.2,9-7.3,9.6c-0.4,1.9,0.7,0.2,2.5,0
				c1-0.1,6.9-6.1,8.2-7.5l0.1,0V410l0.2-0.2c0-0.4,0-0.9,0-1.3C416.1,391.4,413.1,390.3,412.1,390.4z"/>
			<path id="_Контур_11" class="st27" d="M427.7,386c1.7,0.3,3.7,1.2,4,2.1c0.7,3.4,0.5,6.9-0.5,10.2
				c-1.5,3.9-2.5,6.5-3.4,8.1c0,0-7.4,3.2-13.5-0.5c0,0-0.4-4.2-0.4-6.5c-5.5-4.8-0.8-10.8,3.9-15.4c0.6-0.1,1.1-0.1,1.7,0
				c0,0-4.2,5-1.3,7.8C424.5,389.9,425.7,387.1,427.7,386z"/>
			<path id="_Контур_12" class="st23" d="M415.4,371.2L415.4,371.2c0.6-3.9,3.5-6.9,7.5-6.7c4.3,0.2,7.6,3.9,7.4,8.2
				c-0.1,2.4-1.4,4.7-3.4,6.1c-0.1,0.6-0.4,1.2-0.6,1.7c-1.4,1.7-5.3,2.7-6.5,2.8c-1.1,0-2-1-3.1-2.7
				C414.6,377.1,415.1,373.2,415.4,371.2z"/>
			<path class="st28" d="M424.2,364.6c2.8,0.6,5.2,1.4,6,4.1c0.5,1.9,1.2,5.6,0.6,7.1l-0.4,1.1l-3.4,1.8c0,0-1.6-1.3-1.1-5.3
				c0-0.5-0.2-1-0.5-1.5c-0.2-0.4-0.4-0.8-0.5-1.2c-0.4-1.1-1.2-1.9-2.2-2.4c-2.6-1.4-6.3-0.2-6.8,0.3
				C417.2,365.6,420.8,363.9,424.2,364.6z"/>
			<path class="st25" d="M429.4,489.1c-1.4,1.2-3.7,0.4-3.8,0.5c-1.7,1.4-3.4,2.8-5.3,4c-0.9,0.7-2.3,1.7-2,3
				c0.5,2.4,4.3,1.7,5.8,0.9c1.5-0.8,2.7-2,4.1-2.8c1-0.6,2-0.9,2.1-2.2C430.3,491.8,429.7,489.1,429.4,489.1z"/>
			<path class="st26" d="M430.2,492.1c-0.2,1.2-1.2,1.5-2.1,2.1c-1.4,0.9-2.6,2.1-4.1,2.9s-4.7,1.4-5.7-0.4c0.5,2.3,4.3,1.6,5.8,0.9
				c1.4-0.7,2.7-2,4.1-2.8c1-0.6,2-0.9,2.1-2.2C430.3,492.4,430.3,492.3,430.2,492.1z"/>
			<path class="st25" d="M419.3,487.1c-1.3,1.1-3.3,0.5-3.4,0.6c-1.5,1.3-3.2,2.5-4.8,3.7c-0.8,0.6-2.1,1.5-1.9,2.8
				c0.4,2.2,4,1.5,5.3,0.9c1.4-0.7,2.4-1.8,3.7-2.6c0.9-0.6,1.8-0.9,1.9-2C420.2,489.7,419.5,487.1,419.3,487.1z"/>
			<path class="st26" d="M420.1,489.9c-0.2,1.1-1.1,1.4-2,2c-1.3,0.8-2.4,2-3.8,2.6c-1.3,0.7-4.3,1.2-5.2-0.3c0.5,2.1,4,1.5,5.3,0.8
				c1.3-0.7,2.4-1.8,3.7-2.6c0.9-0.6,1.8-0.9,1.9-2C420.2,490.2,420.2,490.1,420.1,489.9z"/>
			<path class="st23" d="M411.5,420.1c0.6-5,2.5-12.2,2.5-12.2c1.7,0.8,3.6,1.3,5.5,1.4c2.8,0,5.6-0.3,8.3-0.8
				c0.9,1.6,1.9,3.1,2.9,4.5c1.4,2,4.2,6.3,3.5,14c-0.4,5-3.2,26.1-3.2,26.1c1.1,3.6,1.7,7.2,1.7,11c-0.3,4.4-0.8,8.8-1.7,13.1
				l-1.7,12c0,0-2.2,1.6-3.8,0.5l0.2-11.7c-0.2-2.9-0.5-7.1-0.7-9.8c-0.3-4.4-1.1-11.4-1.3-13.1c-0.2-1.7-0.8-4.8-1.1-8.2
				c-0.3-3.4-1.5-20.8-1.5-20.8l-0.2,3.3c0,0-0.2,5.3-0.9,11.8c-0.8,6.5-1,9.4-1,9.4c0.7,1.3,1.2,2.7,1.5,4.2
				c0.1,1.4,1.7,12.6,0.8,18.2l-2,14.4c-1,0.7-2.3,0.9-3.4,0.5l-1.2-14.5c-0.8-5.5-2.4-17.3-2.7-18.8c-0.6-3.1-0.9-6.2-1-9.3
				C410.7,438.7,410.9,425.1,411.5,420.1z"/>
			<path class="st1" d="M427.8,406.5l4.3,8.6c0,0,6.6,9.6-0.2,34.1l1.3,7.6c0,0-12.8,8.2-21.4,0c0,0-3-22.7-1.4-33.2
				c0.9-6,2.2-12,4-17.8c0,0,2.1,2.3,12.9,0.8"/>
			<path class="st24" d="M417.8,384.1c0,0-3.4-1-7,6.5l1.4,0.8C412.2,391.4,415.7,386,417.8,384.1z"/>
			<g>
				<polygon class="st27" points="391.3,424.9 405.9,416.4 416.4,422.5 401.8,431 				"/>
			</g>
			<path class="st23" d="M404,417.1c-0.9,0.1-1.8,0.4-2.6,0.8c-0.3,0.3-0.6,0.5-0.9,0.7c-0.1,0.1-0.3,0.2-0.4,0.2
				c-0.2,0.1-0.4,0.2-0.6,0.4c-0.2,0.2-0.3,0.5-0.3,0.8c-0.1,0.3-0.1,0.7-0.1,1.1c0.1,0.5,0.7,0.5,0.9,0.1c0.1-0.2,0.2-0.4,0.2-0.6
				c0-0.5,0.2-0.9,0.6-1.1l3.5-2.2C404.4,417.1,404.2,417,404,417.1z"/>
			<path class="st23" d="M431.9,390.9c-0.5-2-2-1.4-3.4-2.5c-3.1,4.4-1,16.3-0.6,17.6l-11.9,7.6l0,0l-0.8,0.5
				c-1.4,0.9-2.9,1.5-4.4,1.9c-1.2,0.1-1.8,1.8-3.1,2c-0.3,0-0.5,0.2-0.5,0.5c0,0.1,0.1,0.2,0.2,0.3c0.5,0.5,1.9,0.1,2.8-1
				c0,0,0,0.1,0,0.1c0,0.4,0.2,0.7,0.5,0.8c0.1,0,0.1,0.1,0.2,0.1c0,0.1,0,0.2,0.1,0.2c0.1,0.3,0.4,0.5,0.7,0.5l0,0
				c0.1,0.4,0.5,0.7,0.9,0.6c0.3,0,0.5-0.1,0.7-0.3c1-0.4,1.9-1,2.6-1.9c0.6-0.6,1.3-1.2,1.9-1.8c3.2-1.4,13-5.5,13.4-6.1
				C431.9,409.1,432.6,393.7,431.9,390.9z"/>
			<path class="st24" d="M432.9,396.2c0,0-3.8,1.7-7,0.1l0.5-6c0,0,0-3.2,2.9-3.5C432.2,386.5,433.7,390.2,432.9,396.2z"/>
		</g>
	</g>
</g>
</svg>
