<?xml version="1.0" encoding="utf-8"?>
<!-- Generator: Adobe Illustrator 19.2.1, SVG Export Plug-In . SVG Version: 6.00 Build 0)  -->
<svg version="1.1" xmlns="http://www.w3.org/2000/svg" xmlns:xlink="http://www.w3.org/1999/xlink" x="0px" y="0px"
	 viewBox="0 0 600 600" style="enable-background:new 0 0 600 600;" xml:space="preserve">
<style type="text/css">
	.st0{opacity:0.25;}
	.st1{fill:#0D47A1;}
	.st2{fill:#B1B4C4;}
	.st3{fill:#E4E7F2;}
	.st4{fill:#D6D8E5;}
	.st5{fill:#FFFFFF;}
	.st6{opacity:0.5;fill:url(#SVGID_1_);enable-background:new    ;}
	.st7{opacity:0.4;fill:#D6D8E5;enable-background:new    ;}
	.st8{fill:#2B303F;}
	.st9{fill:#C3C6D1;}
	.st10{fill:#E9EAF2;}
	.st11{fill:#F5F6FF;}
	.st12{fill:none;stroke:#E9EAF2;stroke-width:0.22;stroke-miterlimit:10;}
	.st13{fill:none;stroke:#E9EAF2;stroke-width:1.09;stroke-miterlimit:10;}
	.st14{fill:#FAFBFF;}
	.st15{opacity:0.3;fill:#D6D8E5;enable-background:new    ;}
	.st16{fill:#2157A9;}
	.st17{fill:#0F49A1;}
	.st18{opacity:0.1;enable-background:new    ;}
	.st19{opacity:0.15;enable-background:new    ;}
	.st20{fill:#8C50FF;}
	.st21{fill:#2B2A30;}
	.st22{fill:#FFCEA9;}
	.st23{fill:#F4F4F4;}
	.st24{fill:#BF4B4B;}
	.st25{fill:#E26161;}
	.st26{fill:#EDEDED;}
	.st27{fill:#3A2C6D;}
	.st28{fill:#BFBFBF;}
	.st29{fill:#E5E5E5;}
	.st30{fill:#38226D;}
	.st31{fill:#9C73FF;}
	.st32{fill:#A1A5B5;}
	.st33{opacity:0.1;fill:#3E7EFF;enable-background:new    ;}
</style>
<g id="Layer_1">
	<g transform="translate(300,300)" class="st0">
		<path class="st1" d="M177.1-156.5c46.3,26.9,94.1,66,101.5,111.5c7.3,45.6-26,97.8-59.9,140.1c-34.1,42.3-69.1,74.6-110.5,99.8
			c-41.3,25.1-89.1,43-141.4,44.9c-52.4,1.9-109.3-12.2-150.8-46.8c-41.3-34.5-67-89.6-84.3-151c-17.3-61.5-26.1-129.4-4-186.6
			c22.1-57.3,75.1-103.7,132.5-113.3c57.5-9.5,119.3,17.8,172.7,38.8C86.1-198.1,130.8-183.3,177.1-156.5z"/>
	</g>
</g>
<g id="Layer_2">
	<g id="Слой_2">
		<g id="Слой_1-2">
			<g id="Laptop">
				<path class="st2" d="M408.3,334.2l-172.6-99.6c-2.4-1.4-4.4-5.1-4.4-8.3V92.7c0-3.2,2-4.7,4.4-3.3l172.6,99.7
					c2.4,1.4,4.4,5.1,4.4,8.3v133.5C412.7,334.2,410.7,335.6,408.3,334.2z"/>
				<polygon class="st2" points="409.2,335.6 411.1,334.5 410.3,328.8 				"/>
				<path class="st2" d="M231,90.2l1.9-1.1l2.7,1.5c0,0-2.9,0.4-2.9,0.4C232.6,91.1,231,90.2,231,90.2z"/>
				<path class="st3" d="M406.7,335.2l-172.6-99.6c-2.4-1.4-4.4-5.2-4.4-8.3V93.6c0-3.2,2-4.7,4.4-3.3L406.7,190
					c2.4,1.4,4.4,5.2,4.4,8.3v133.5C411.1,335.1,409.1,336.6,406.7,335.2z"/>
				<path class="st4" d="M406.4,335.3l-172.6-99.7c-2.4-1.4-4.4-5.1-4.4-8.3V93.8c0-3.2,2-4.7,4.4-3.3l172.6,99.7
					c2.4,1.4,4.4,5.1,4.4,8.3V332C410.8,335.2,408.8,336.7,406.4,335.3z"/>
				<path class="st5" d="M408.4,327.2L231.6,225.1l0.1-130.8c0-1.3,0.9-1.9,2.1-1.2l172.6,99.7c1.2,0.8,2,2.2,2.1,3.6L408.4,327.2z"
					/>
				
					<linearGradient id="SVGID_1_" gradientUnits="userSpaceOnUse" x1="-205.2473" y1="-1664.4031" x2="-205.2473" y2="-1548.9766" gradientTransform="matrix(0.87 0.5 0 -1.15 498.62 -1543.9601)">
					<stop  offset="0.21" style="stop-color:#FFFFFF;stop-opacity:0"/>
					<stop  offset="1" style="stop-color:#FFFFFF;stop-opacity:0.2"/>
				</linearGradient>
				<path class="st6" d="M408.4,327.1L231.6,225l0.1-130.8c0-1.3,0.9-1.9,2.1-1.2l172.6,99.7c1.2,0.8,2,2.2,2.1,3.6L408.4,327.1z"/>
				<path class="st7" d="M276.2,412.9l-172.6-99.7c-2.4-1.4-2.1-3.8,0.7-5.5l115.6-66.8c2.8-1.6,7-1.8,9.4-0.4L402,340.3
					c2.4,1.4,2.1,3.8-0.7,5.5l-115.6,66.8C282.9,414.1,278.7,414.3,276.2,412.9z"/>
				<path class="st2" d="M280,410.7L107.4,311c-2.4-1.4-2.1-3.8,0.7-5.5l115.6-66.8c2.8-1.6,7-1.8,9.4-0.4L405.8,338
					c2.4,1.4,2.1,3.8-0.7,5.5l-115.6,66.8C286.7,411.9,282.4,412,280,410.7z"/>
				<polygon class="st2" points="105.8,308.7 105.8,305.5 109.4,307 				"/>
				<polygon class="st2" points="407.4,340.5 407.4,337.3 404.7,338.2 406.5,340.9 				"/>
				<path class="st3" d="M280,407.9l-172.6-99.6c-2.4-1.4-2.1-3.8,0.7-5.5l115.6-66.8c2.8-1.6,7-1.8,9.4-0.4l172.6,99.6
					c2.4,1.4,2.1,3.8-0.7,5.5l-115.6,66.8C286.7,409.1,282.4,409.3,280,407.9z"/>
				<path class="st4" d="M280,407.5l-172.6-99.7c-2.4-1.4-2.1-3.8,0.7-5.5l115.6-66.8c2.8-1.6,7-1.8,9.4-0.4l172.6,99.6
					c2.4,1.4,2.1,3.8-0.7,5.5l-115.6,66.8C286.7,408.7,282.4,408.9,280,407.5z"/>
				<path class="st8" d="M220.5,258.1l-8-4.6c-0.7-0.4-0.6-1,0.2-1.5l7.7-4.4c0.8-0.4,1.7-0.5,2.6-0.1l8,4.6c0.7,0.4,0.6,1-0.2,1.5
					l-7.7,4.4C222.3,258.5,221.3,258.5,220.5,258.1z"/>
				<path class="st8" d="M231.9,264.7l-8-4.6c-0.7-0.4-0.6-1,0.2-1.5l7.7-4.4c0.8-0.4,1.7-0.5,2.6-0.1l8,4.6c0.7,0.4,0.6,1-0.2,1.5
					l-7.7,4.4C233.7,265,232.7,265.1,231.9,264.7z"/>
				<path class="st8" d="M243.4,271.4l-8.1-4.6c-0.7-0.4-0.6-1,0.2-1.5l7.7-4.4c0.8-0.4,1.7-0.5,2.6-0.1l8,4.6
					c0.7,0.4,0.6,1-0.2,1.5l-7.7,4.4C245.1,271.7,244.2,271.7,243.4,271.4z"/>
				<path class="st8" d="M254.6,277.9l-8-4.6c-0.7-0.4-0.6-1,0.2-1.5l7.7-4.4c0.8-0.4,1.7-0.5,2.6-0.1l8,4.6c0.7,0.4,0.6,1-0.2,1.5
					l-7.7,4.4C256.4,278.2,255.5,278.2,254.6,277.9z"/>
				<path class="st8" d="M266,284.4l-8-4.6c-0.7-0.4-0.6-1,0.2-1.5l7.7-4.4c0.8-0.4,1.7-0.5,2.6-0.1l8,4.6c0.7,0.4,0.6,1-0.2,1.5
					l-7.7,4.4C267.8,284.8,266.8,284.8,266,284.4z"/>
				<path class="st8" d="M277.4,291l-8-4.6c-0.7-0.4-0.6-1,0.2-1.5l7.7-4.4c0.8-0.4,1.7-0.5,2.6-0.1l8,4.6c0.7,0.4,0.6,1-0.2,1.5
					l-7.7,4.4C279.2,291.3,278.2,291.4,277.4,291z"/>
				<path class="st8" d="M288.8,297.6l-8-4.7c-0.7-0.4-0.6-1,0.2-1.5l7.7-4.4c0.8-0.4,1.7-0.5,2.6-0.1l8,4.6c0.7,0.4,0.6,1-0.2,1.5
					l-7.7,4.4C290.5,297.9,289.6,297.9,288.8,297.6z"/>
				<path class="st8" d="M300.1,304.1l-8-4.6c-0.7-0.4-0.6-1,0.2-1.5l7.7-4.4c0.8-0.4,1.7-0.5,2.6-0.1l8,4.6c0.7,0.4,0.6,1-0.2,1.5
					l-7.7,4.4C301.9,304.4,301,304.5,300.1,304.1z"/>
				<path class="st8" d="M311.5,310.7l-8-4.6c-0.7-0.4-0.6-1,0.2-1.5l7.7-4.4c0.8-0.4,1.7-0.5,2.6-0.1l8,4.6c0.7,0.4,0.6,1-0.2,1.5
					l-7.7,4.4C313.3,311,312.3,311.1,311.5,310.7z"/>
				<path class="st8" d="M322.9,317.3l-8-4.6c-0.7-0.4-0.6-1,0.2-1.5l7.7-4.4c0.8-0.4,1.7-0.5,2.6-0.1l8,4.6c0.7,0.4,0.6,1-0.2,1.5
					l-7.7,4.4C324.7,317.6,323.7,317.6,322.9,317.3z"/>
				<path class="st8" d="M334.3,323.8l-8-4.6c-0.7-0.4-0.6-1,0.2-1.5l7.7-4.4c0.8-0.4,1.7-0.5,2.6-0.1l8,4.6c0.7,0.4,0.6,1-0.2,1.5
					l-7.7,4.4C336,324.2,335.1,324.2,334.3,323.8z"/>
				<path class="st8" d="M345.6,330.4l-8-4.6c-0.7-0.4-0.6-1,0.2-1.5l7.7-4.4c0.8-0.4,1.7-0.5,2.6-0.1l8,4.6c0.7,0.4,0.6,1-0.2,1.5
					l-7.7,4.4C347.4,330.7,346.5,330.8,345.6,330.4z"/>
				<path class="st8" d="M357,337l-8-4.6c-0.7-0.4-0.6-1,0.2-1.5l7.7-4.4c0.8-0.4,1.7-0.5,2.6-0.1l8,4.6c0.7,0.4,0.6,1-0.2,1.5
					l-7.7,4.4C358.8,337.3,357.8,337.3,357,337z"/>
				<path class="st8" d="M373.9,346.7l-13.5-7.8c-0.7-0.4-0.6-1,0.2-1.5l7.7-4.4c0.8-0.4,1.7-0.5,2.6-0.1l13.5,7.8
					c0.7,0.4,0.6,1-0.2,1.5l-7.7,4.4C375.7,347,374.7,347.1,373.9,346.7z"/>
				<path class="st8" d="M226.4,274.3l-8-4.6c-0.7-0.4-0.6-1,0.2-1.5l7.7-4.4c0.8-0.4,1.7-0.5,2.6-0.1l8,4.6c0.7,0.4,0.6,1-0.2,1.5
					l-7.7,4.4C228.1,274.6,227.2,274.6,226.4,274.3z"/>
				<path class="st8" d="M237.8,280.8l-8-4.7c-0.7-0.4-0.6-1,0.2-1.5l7.7-4.4c0.8-0.4,1.7-0.5,2.6-0.1l8,4.6c0.7,0.4,0.6,1-0.2,1.5
					l-7.6,4.5C239.5,281.2,238.6,281.2,237.8,280.8z"/>
				<path class="st8" d="M249.1,287.4l-8-4.6c-0.7-0.4-0.6-1,0.2-1.5l7.7-4.4c0.8-0.4,1.7-0.5,2.6-0.1l8,4.6c0.7,0.4,0.6,1-0.2,1.5
					l-7.7,4.4C250.9,287.7,250,287.8,249.1,287.4z"/>
				<path class="st8" d="M260.5,294l-8-4.6c-0.7-0.4-0.6-1,0.2-1.5l7.7-4.4c0.8-0.4,1.7-0.5,2.6-0.1l8,4.6c0.7,0.4,0.6,1-0.2,1.5
					l-7.7,4.4C262.3,294.3,261.4,294.4,260.5,294z"/>
				<path class="st8" d="M271.9,300.5l-8-4.6c-0.7-0.4-0.6-1,0.2-1.5l7.7-4.4c0.8-0.4,1.7-0.5,2.6-0.1l8,4.6c0.7,0.4,0.6,1-0.2,1.5
					l-7.7,4.4C273.6,300.9,272.7,300.9,271.9,300.5z"/>
				<path class="st8" d="M283.2,307.1l-8-4.6c-0.7-0.4-0.6-1,0.2-1.5l7.7-4.4c0.8-0.4,1.7-0.5,2.6-0.1l8,4.6c0.7,0.4,0.6,1-0.2,1.5
					l-7.7,4.4C285,307.4,284.1,307.4,283.2,307.1z"/>
				<path class="st8" d="M294.6,313.7l-8-4.6c-0.7-0.4-0.6-1,0.2-1.5l7.7-4.4c0.8-0.4,1.7-0.5,2.6-0.1l8,4.6c0.7,0.4,0.6,1-0.2,1.5
					l-7.7,4.4C296.4,314,295.5,314.1,294.6,313.7z"/>
				<path class="st8" d="M306,320.3l-8-4.6c-0.7-0.4-0.6-1,0.2-1.5l7.7-4.4c0.8-0.4,1.7-0.5,2.6-0.1l8,4.6c0.7,0.4,0.6,1-0.2,1.5
					l-7.7,4.4C307.8,320.6,306.9,320.6,306,320.3z"/>
				<path class="st8" d="M317.4,326.8l-8-4.6c-0.7-0.4-0.6-1,0.2-1.5l7.7-4.4c0.8-0.4,1.7-0.5,2.6-0.1l8,4.6c0.7,0.4,0.6,1-0.2,1.5
					l-7.7,4.4C319.2,327.2,318.3,327.2,317.4,326.8z"/>
				<path class="st8" d="M328.8,333.4l-8-4.6c-0.7-0.4-0.6-1,0.2-1.5l7.7-4.4c0.8-0.4,1.7-0.5,2.6-0.1l8,4.6c0.7,0.4,0.6,1-0.2,1.5
					l-7.7,4.4C330.6,333.8,329.7,333.8,328.8,333.4z"/>
				<path class="st8" d="M340.2,340l-8.1-4.6c-0.7-0.4-0.6-1,0.2-1.5l7.7-4.4c0.8-0.4,1.7-0.5,2.6-0.1l8,4.6c0.7,0.4,0.6,1-0.2,1.5
					l-7.7,4.4C342,340.3,341,340.4,340.2,340z"/>
				<path class="st8" d="M351.6,346.6l-8-4.6c-0.7-0.4-0.6-1,0.2-1.5l7.7-4.4c0.8-0.4,1.7-0.5,2.6-0.1l8,4.6c0.7,0.4,0.6,1-0.2,1.5
					l-7.7,4.4C353.4,346.9,352.4,346.9,351.6,346.6z"/>
				<path class="st8" d="M215,267.7l-13.5-7.8c-0.7-0.4-0.6-1,0.2-1.5l7.7-4.4c0.8-0.4,1.7-0.5,2.6-0.1l13.5,7.8
					c0.7,0.4,0.6,1-0.2,1.5l-7.7,4.4C216.7,268,215.8,268,215,267.7z"/>
				<path class="st8" d="M373.3,347.1l-8-4.6c-0.8-0.4-1.6-0.4-2.4,0l-8.1,4.6c-0.4,0.1-0.6,0.5-0.5,0.9c0.1,0.2,0.2,0.4,0.5,0.5
					l0.6,0.4c0.4,0.1,0.5,0.5,0.4,0.8c-0.1,0.2-0.2,0.4-0.4,0.4l-8.6,4.9c-0.7,0.4-0.7,1,0,1.4l5.1,3c0.8,0.4,1.6,0.4,2.4,0l8-4.6
					l1.7-1l1.2-0.7l1.2-0.7l6.9-4C374,348.1,374,347.5,373.3,347.1z"/>
				<path class="st8" d="M176.5,283.6l-8-4.6c-0.7-0.4-0.6-1,0.2-1.5l7.7-4.4c0.8-0.4,1.7-0.5,2.6-0.1l8,4.6c0.7,0.4,0.6,1-0.2,1.5
					l-7.7,4.4C178.2,284,177.3,284,176.5,283.6z"/>
				<path class="st8" d="M187.8,290.2l-8-4.6c-0.7-0.4-0.6-1,0.2-1.5l7.7-4.4c0.8-0.4,1.7-0.5,2.6-0.1l8,4.6c0.7,0.4,0.6,1-0.2,1.5
					l-7.7,4.4C189.6,290.5,188.6,290.6,187.8,290.2z"/>
				<path class="st8" d="M199.1,296.7l-8.1-4.6c-0.7-0.4-0.6-1,0.2-1.5l7.7-4.4c0.8-0.4,1.7-0.5,2.6-0.1l8,4.6
					c0.7,0.4,0.6,1-0.2,1.5l-7.7,4.4C200.9,297.1,200,297.1,199.1,296.7z"/>
				<path class="st8" d="M295.7,352.5l-8-4.6c-0.7-0.4-0.6-1,0.2-1.5l7.7-4.4c0.8-0.4,1.7-0.5,2.6-0.1l8,4.6c0.7,0.4,0.6,1-0.2,1.5
					l-7.7,4.4C297.5,352.8,296.6,352.9,295.7,352.5z"/>
				<path class="st8" d="M307.1,359.1l-8-4.6c-0.7-0.4-0.6-1,0.2-1.5l7.7-4.4c0.8-0.4,1.7-0.5,2.6-0.1l8,4.6c0.7,0.4,0.6,1-0.2,1.5
					l-7.7,4.4C308.9,359.4,307.9,359.4,307.1,359.1z"/>
				<path class="st8" d="M318.4,365.6l-8-4.6c-0.7-0.4-0.6-1,0.2-1.5l7.7-4.4c0.8-0.4,1.7-0.5,2.6-0.1l8,4.6c0.7,0.4,0.6,1-0.2,1.5
					l-7.7,4.4C320.2,366,319.3,366,318.4,365.6z"/>
				<path class="st8" d="M329.8,372.2l-8-4.6c-0.7-0.4-0.6-1,0.2-1.5l7.7-4.4c0.8-0.4,1.7-0.5,2.6-0.1l8,4.6c0.7,0.4,0.6,1-0.2,1.5
					l-7.7,4.4C331.6,372.5,330.6,372.6,329.8,372.2z"/>
				<path class="st8" d="M213.4,305l-11-6.3c-0.7-0.4-0.6-1,0.2-1.5l7.7-4.4c0.8-0.4,1.7-0.5,2.6-0.1l11,6.3c0.7,0.4,0.6,1-0.2,1.5
					l-7.7,4.4C215.2,305.3,214.2,305.3,213.4,305z"/>
				<path class="st8" d="M284.4,346l-11-6.3c-0.7-0.4-0.6-1,0.2-1.5l7.7-4.4c0.8-0.4,1.7-0.5,2.6-0.1l11,6.3c0.7,0.4,0.6,1-0.2,1.5
					l-7.7,4.4C286.2,346.3,285.2,346.3,284.4,346z"/>
				<path class="st8" d="M270.1,337.7l-53.4-30.8c-0.7-0.4-0.6-1,0.2-1.5l7.7-4.4c0.8-0.4,1.7-0.5,2.6-0.1l53.4,30.8
					c0.7,0.4,0.6,1-0.2,1.5l-7.7,4.4C271.9,338.1,271,338.1,270.1,337.7z"/>
				<path class="st8" d="M218.4,282.4l-8-4.6c-0.7-0.4-0.6-1,0.2-1.5l7.7-4.4c0.8-0.4,1.7-0.5,2.6-0.1l8,4.6c0.7,0.4,0.6,1-0.2,1.5
					l-7.7,4.4C220.2,282.7,219.3,282.8,218.4,282.4z"/>
				<path class="st8" d="M229.8,289l-8-4.6c-0.7-0.4-0.6-1,0.2-1.5l7.7-4.4c0.8-0.4,1.7-0.5,2.6-0.1l8,4.6c0.7,0.4,0.6,1-0.2,1.5
					l-7.7,4.4C231.6,289.3,230.6,289.3,229.8,289z"/>
				<path class="st8" d="M241.2,295.5l-8-4.6c-0.7-0.4-0.6-1,0.2-1.5l7.7-4.4c0.8-0.4,1.7-0.5,2.6-0.1l8,4.6c0.7,0.4,0.6,1-0.2,1.5
					l-7.7,4.4C242.9,295.9,242,295.9,241.2,295.5z"/>
				<path class="st8" d="M252.5,302.1l-8-4.6c-0.7-0.4-0.6-1,0.2-1.5l7.7-4.4c0.8-0.4,1.7-0.5,2.6-0.1l8,4.6c0.7,0.4,0.6,1-0.2,1.5
					l-7.7,4.4C254.3,302.4,253.3,302.5,252.5,302.1z"/>
				<path class="st8" d="M263.9,308.7l-8-4.6c-0.7-0.4-0.6-1,0.2-1.5l7.7-4.4c0.8-0.4,1.7-0.5,2.6-0.1l8,4.6c0.7,0.4,0.6,1-0.2,1.5
					l-7.7,4.4C265.7,309,264.7,309,263.9,308.7z"/>
				<path class="st8" d="M275.2,315.2l-8-4.6c-0.7-0.4-0.6-1,0.2-1.5l7.7-4.4c0.8-0.4,1.7-0.5,2.6-0.1l8,4.6c0.7,0.4,0.6,1-0.2,1.5
					l-7.7,4.4C277,315.5,276.1,315.6,275.2,315.2z"/>
				<path class="st8" d="M286.6,321.8l-8-4.6c-0.7-0.4-0.6-1,0.2-1.5l7.7-4.4c0.8-0.4,1.7-0.5,2.6-0.1l8,4.6c0.7,0.4,0.6,1-0.2,1.5
					l-7.7,4.4C288.4,322.1,287.4,322.1,286.6,321.8z"/>
				<path class="st8" d="M297.9,328.3l-8-4.6c-0.7-0.4-0.6-1,0.2-1.5l7.7-4.4c0.8-0.4,1.7-0.5,2.6-0.1l8,4.6c0.7,0.4,0.6,1-0.2,1.5
					l-7.7,4.4C299.7,328.7,298.8,328.7,297.9,328.3z"/>
				<path class="st8" d="M309.3,334.9l-8.1-4.6c-0.7-0.4-0.6-1,0.2-1.5l7.7-4.4c0.8-0.4,1.7-0.5,2.6-0.1l8,4.6
					c0.7,0.4,0.6,1-0.2,1.5l-7.7,4.4C311.1,335.2,310.2,335.3,309.3,334.9z"/>
				<path class="st8" d="M320.7,341.5l-8-4.6c-0.7-0.4-0.6-1,0.2-1.5l7.7-4.4c0.8-0.4,1.7-0.5,2.6-0.1l8,4.6c0.7,0.4,0.6,1-0.2,1.5
					l-7.7,4.4C322.5,341.8,321.5,341.8,320.7,341.5z"/>
				<path class="st8" d="M332.1,348l-8-4.6c-0.7-0.4-0.6-1,0.2-1.5l7.7-4.4c0.8-0.4,1.7-0.5,2.6-0.1l8,4.6c0.7,0.4,0.6,1-0.2,1.5
					l-7.7,4.4C333.8,348.3,332.9,348.4,332.1,348z"/>
				<path class="st8" d="M343.4,354.6l-8-4.6c-0.7-0.4-0.6-1,0.2-1.5l7.7-4.4c0.8-0.4,1.7-0.5,2.6-0.1l8.1,4.6
					c0.7,0.4,0.6,1-0.2,1.5l-7.7,4.4C345.2,354.9,344.3,355,343.4,354.6z"/>
				<path class="st8" d="M207.1,275.8l-16.6-9.6c-0.7-0.4-0.6-1,0.2-1.5l7.7-4.4c0.8-0.4,1.7-0.5,2.6-0.1l16.6,9.6
					c0.7,0.4,0.6,1-0.2,1.5l-7.7,4.4C208.8,276.2,207.9,276.2,207.1,275.8z"/>
				<path class="st8" d="M201.8,285.5l-8-4.6c-0.7-0.4-0.6-1,0.2-1.5l7.7-4.4c0.8-0.4,1.7-0.5,2.6-0.1l8,4.6c0.7,0.4,0.6,1-0.2,1.5
					l-7.7,4.4C203.5,285.9,202.6,285.9,201.8,285.5z"/>
				<path class="st8" d="M213.1,292l-8-4.6c-0.7-0.4-0.6-1,0.2-1.5l7.7-4.4c0.8-0.4,1.7-0.5,2.6-0.1l8,4.6c0.7,0.4,0.6,1-0.2,1.5
					l-7.7,4.4C214.9,292.4,213.9,292.4,213.1,292z"/>
				<path class="st8" d="M224.5,298.6l-8-4.6c-0.7-0.4-0.6-1,0.2-1.5l7.7-4.4c0.8-0.4,1.7-0.5,2.6-0.1l8,4.6c0.7,0.4,0.6,1-0.2,1.5
					l-7.7,4.4C226.2,299,225.3,299,224.5,298.6z"/>
				<path class="st8" d="M235.8,305.2l-8-4.6c-0.7-0.4-0.6-1,0.2-1.5l7.7-4.4c0.8-0.4,1.7-0.5,2.6-0.1l8,4.6c0.7,0.4,0.6,1-0.2,1.5
					l-7.7,4.4C237.6,305.5,236.7,305.6,235.8,305.2z"/>
				<path class="st8" d="M247.2,311.8l-8-4.6c-0.7-0.4-0.6-1,0.2-1.5l7.7-4.4c0.8-0.4,1.7-0.5,2.6-0.1l8,4.6c0.7,0.4,0.6,1-0.2,1.5
					l-7.7,4.4C249,312.1,248,312.1,247.2,311.8z"/>
				<path class="st8" d="M258.6,318.3l-8-4.6c-0.7-0.4-0.6-1,0.2-1.5l7.7-4.4c0.8-0.4,1.7-0.5,2.6-0.1l8,4.6c0.7,0.4,0.6,1-0.2,1.5
					l-7.7,4.4C260.3,318.6,259.4,318.7,258.6,318.3z"/>
				<path class="st8" d="M269.9,324.9l-8-4.6c-0.7-0.4-0.6-1,0.2-1.5l7.7-4.4c0.8-0.4,1.7-0.5,2.6-0.1l8,4.6c0.7,0.4,0.6,1-0.2,1.5
					l-7.7,4.4C271.7,325.2,270.8,325.2,269.9,324.9z"/>
				<path class="st8" d="M281.3,331.4l-8-4.6c-0.7-0.4-0.6-1,0.2-1.5l7.7-4.4c0.8-0.4,1.7-0.5,2.6-0.1l8,4.6c0.7,0.4,0.6,1-0.2,1.5
					l-7.7,4.4C283.1,331.8,282.1,331.8,281.3,331.4z"/>
				<path class="st8" d="M292.7,338l-8.1-4.6c-0.7-0.4-0.6-1,0.2-1.5l7.7-4.4c0.8-0.4,1.7-0.5,2.6-0.1l8,4.6c0.7,0.4,0.6,1-0.2,1.5
					l-7.7,4.4C294.4,338.3,293.5,338.3,292.7,338z"/>
				<path class="st8" d="M304,344.6l-8-4.6c-0.7-0.4-0.6-1,0.2-1.5l7.7-4.4c0.8-0.4,1.7-0.5,2.6-0.1l8,4.6c0.7,0.4,0.6,1-0.2,1.5
					l-7.7,4.4C305.8,344.9,304.8,344.9,304,344.6z"/>
				<path class="st8" d="M315.4,351.1l-8-4.6c-0.7-0.4-0.6-1,0.2-1.5l7.7-4.4c0.8-0.4,1.7-0.5,2.6-0.1l8,4.6c0.7,0.4,0.6,1-0.2,1.5
					l-7.7,4.4C317.2,351.4,316.2,351.5,315.4,351.1z"/>
				<path class="st8" d="M340.8,365.8L318.7,353c-0.7-0.4-0.6-1,0.2-1.5l7.7-4.4c0.8-0.4,1.7-0.5,2.6-0.1l22.1,12.8
					c0.7,0.4,0.6,1-0.2,1.5l-7.7,4.4C342.6,366.1,341.6,366.2,340.8,365.8z"/>
				<path class="st8" d="M190.4,279l-11-6.3c-0.7-0.4-0.6-1,0.2-1.5l7.7-4.4c0.8-0.4,1.7-0.5,2.6-0.1l11,6.3c0.7,0.4,0.6,1-0.2,1.5
					l-7.7,4.4C192.2,279.3,191.2,279.3,190.4,279z"/>
				<path class="st8" d="M385.3,340.1L223.9,247c-0.7-0.4-0.6-1,0.2-1.5l3.8-2.2c0.8-0.4,1.7-0.5,2.6-0.1l161.4,93.1
					c0.7,0.4,0.6,1-0.2,1.5l-3.8,2.2C387.1,340.4,386.1,340.5,385.3,340.1z"/>
				<path class="st2" d="M285.3,350.7c-0.2,0.5-0.6,0.9-1.1,1.2l-44.4,25.6c-1.5,0.8-3.3,0.9-4.9,0.2L159,333.9
					c-0.3-0.2-0.6-0.5-0.8-0.8c-0.3-0.7,0.1-1.5,1.1-2l44.4-25.6c1.5-0.8,3.3-0.9,4.9-0.2l75.9,43.8
					C285.2,349.3,285.6,350,285.3,350.7z"/>
				<path class="st9" d="M285.3,350.7c-0.2,0.5-0.6,0.9-1.1,1.2l-44.4,25.6c-1.5,0.8-3.3,0.9-4.9,0.2L159,333.9
					c-0.3-0.2-0.6-0.5-0.8-0.8c0.2-0.5,0.6-0.9,1.1-1.1l44.4-25.6c1.5-0.8,3.3-0.9,4.9-0.2l75.9,43.8
					C284.9,350.1,285.2,350.4,285.3,350.7z"/>
				<path class="st8" d="M397.6,333l-161.4-93.2c-0.7-0.5-1.2-1.4-1.2-2.3v-1.9c0-0.9,0.5-1.3,1.2-0.9l161.4,93.1
					c0.7,0.5,1.2,1.4,1.2,2.3v1.9C398.8,333,398.2,333.4,397.6,333z"/>
				<path class="st10" d="M300.9,150.7L245,118.5c-0.5-0.4-0.8-1-0.8-1.6v-3.9c0-0.6,0.4-0.9,0.8-0.6l55.9,32.3
					c0.5,0.4,0.8,1,0.8,1.6v3.9C301.8,150.7,301.4,151,300.9,150.7z"/>
				<path class="st10" d="M286.6,151.7l-41.3-23.8c-0.5-0.4-0.8-1-0.8-1.7v-1.9c0-0.6,0.4-0.9,0.8-0.6l41.3,23.8
					c0.5,0.4,0.8,1,0.8,1.7v1.9C287.4,151.7,287.1,151.9,286.6,151.7z"/>
				<path class="st10" d="M286.6,159l-41.3-23.8c-0.5-0.4-0.8-1-0.8-1.7v-1.9c0-0.6,0.4-0.9,0.8-0.6l41.3,23.8
					c0.5,0.4,0.8,1,0.8,1.6v1.9C287.4,159,287.1,159.3,286.6,159z"/>
				<path class="st1" d="M278.8,161.9l-33.5-19.3c-0.5-0.4-0.8-1-0.8-1.6v-2c0-0.6,0.4-0.9,0.8-0.6l33.5,19.3c0.5,0.4,0.8,1,0.8,1.7
					v1.9C279.6,161.9,279.3,162.2,278.8,161.9z"/>
				<path class="st10" d="M300.9,228L245,195.7c-0.5-0.4-0.8-1-0.8-1.7v-3.9c0-0.6,0.4-0.9,0.8-0.6l55.9,32.3c0.5,0.4,0.8,1,0.8,1.7
					v3.9C301.8,228,301.4,228.3,300.9,228z"/>
				<path class="st10" d="M286.6,228.9l-41.3-23.8c-0.5-0.4-0.8-1-0.8-1.6v-1.9c0-0.6,0.4-0.9,0.8-0.6l41.3,23.8
					c0.5,0.4,0.8,1,0.8,1.6v1.9C287.4,228.9,287.1,229.2,286.6,228.9z"/>
				<path class="st10" d="M286.6,236.3l-41.3-23.8c-0.5-0.4-0.8-1-0.8-1.6v-1.9c0-0.6,0.4-0.9,0.8-0.6l41.3,23.8
					c0.5,0.4,0.8,1,0.8,1.7v1.9C287.4,236.3,287.1,236.5,286.6,236.3z"/>
				<path class="st1" d="M278.8,239.1l-33.5-19.3c-0.5-0.4-0.8-1-0.8-1.6v-1.9c0-0.6,0.4-0.9,0.8-0.6l33.5,19.3
					c0.5,0.4,0.8,1,0.8,1.6v1.9C279.6,239.1,279.3,239.4,278.8,239.1z"/>
				<path class="st11" d="M315.9,237.6c0,0,6.2,5.2,15.1-1.9c6.4-5.2,12-2.2,15.2-0.4c3.2,1.8,7.8,2.9,16.5,18.6
					c1.9,3.1,4.5,5.7,7.5,7.6c4.7,2.7,6.9,1.4,10.6-4.2c3.7-5.6,6.1-11.7,12.8-7.7v55.8l-78.3-45.2v-23L315.9,237.6z"/>
				<path class="st10" d="M298.9,213.9L245.3,183c-0.5-0.4-0.8-1-0.8-1.6v-30.9c0-0.6,0.4-0.9,0.8-0.6l53.6,30.9
					c0.5,0.4,0.8,1,0.8,1.6v30.9C299.7,213.9,299.3,214.2,298.9,213.9z"/>
				<polyline class="st12" points="315.3,236.3 315.3,260.2 393.6,305.4 393.6,249.6 				"/>
				<line class="st12" x1="346.1" y1="235.5" x2="346.1" y2="277.9"/>
				<line class="st12" x1="370" y1="262.3" x2="370" y2="291.8"/>
				<path class="st13" d="M315.3,237.2c13.9,8.6,15.9-10.9,31-2.1c15.1,8.7,13,20.1,24.2,26.6c11.2,6.5,11.4-18.8,23.1-12"/>
				<ellipse transform="matrix(0.866 -0.5 0.5 0.866 -71.3944 204.5888)" class="st1" cx="346.1" cy="235.5" rx="1.5" ry="2.6"/>
				
					<ellipse transform="matrix(0.867 -0.4983 0.4983 0.867 -72.2671 230.0159)" class="st1" cx="394.8" cy="250.4" rx="1.5" ry="2.6"/>
				
					<ellipse transform="matrix(0.867 -0.4983 0.4983 0.867 -81.4988 219.8482)" class="st1" cx="371.1" cy="262.6" rx="1.5" ry="2.6"/>
				
					<ellipse transform="matrix(0.867 -0.4983 0.4983 0.867 -76.4975 189.1794)" class="st1" cx="316.2" cy="237.9" rx="1.5" ry="2.6"/>
				<path class="st10" d="M317.5,196.1l-3.2-1.9c-0.5-0.4-0.8-1-0.8-1.6v-15.5c0-0.6,0.4-0.9,0.8-0.6l3.2,1.9c0.5,0.4,0.8,1,0.8,1.6
					v15.5C318.3,196,318,196.3,317.5,196.1z"/>
				<path class="st1" d="M324.9,200.3l-3.2-1.8c-0.5-0.4-0.8-1-0.8-1.6v-31.6c0-0.6,0.4-0.9,0.8-0.6l3.2,1.9c0.5,0.4,0.8,1,0.8,1.7
					v31.5C325.7,200.3,325.4,200.6,324.9,200.3z"/>
				<path class="st10" d="M339.7,208.9l-3.2-1.9c-0.5-0.4-0.8-1-0.8-1.6v-28.5c0-0.6,0.4-0.9,0.8-0.6l3.2,1.9c0.5,0.4,0.8,1,0.8,1.6
					v28.5C340.5,208.9,340.1,209.1,339.7,208.9z"/>
				<path class="st1" d="M347.1,213.1l-3.2-1.9c-0.5-0.4-0.8-1-0.8-1.6v-23.6c0-0.6,0.4-0.9,0.8-0.6l3.2,1.9c0.5,0.4,0.8,1,0.8,1.6
					v23.6C347.9,213.1,347.5,213.4,347.1,213.1z"/>
				<path class="st10" d="M361.8,221.6l-3.2-1.9c-0.5-0.4-0.8-1-0.8-1.7v-11.7c0-0.6,0.4-0.9,0.8-0.6l3.2,1.9c0.5,0.4,0.8,1,0.8,1.6
					V221C362.6,221.6,362.2,221.9,361.8,221.6z"/>
				<path class="st1" d="M369.2,225.9l-3.2-1.9c-0.5-0.4-0.8-1-0.8-1.6v-39.7c0-0.6,0.4-0.9,0.8-0.6l3.2,1.9c0.5,0.4,0.8,1,0.8,1.6
					v39.6C370,225.9,369.6,226.2,369.2,225.9z"/>
				<path class="st10" d="M387.2,236.3l-3.2-1.9c-0.5-0.4-0.8-1-0.8-1.6v-11.7c0-0.6,0.4-0.9,0.8-0.6l3.2,1.9c0.5,0.4,0.8,1,0.8,1.6
					v11.7C388.1,236.3,387.7,236.6,387.2,236.3z"/>
				<path class="st1" d="M394.6,240.6l-3.2-1.9c-0.5-0.4-0.8-1-0.8-1.6v-15.5c0-0.6,0.4-0.9,0.8-0.6l3.2,1.9c0.5,0.4,0.8,1,0.8,1.6
					v15.5C395.5,240.6,395.1,240.9,394.6,240.6z"/>
			</g>
			<polygon class="st7" points="386.7,470.6 304,422.9 417.6,357.4 500.2,405.1 			"/>
			<polygon class="st2" points="500.5,401.8 420.6,355.7 309.8,419.7 307,418.1 307,421.2 389.7,468.9 503.2,403.4 503.2,400.3 			
				"/>
			<polygon class="st14" points="389.7,465.8 307,418.1 420.6,352.6 503.2,400.3 			"/>
			<polygon class="st10" points="478.8,405.3 412.6,367.1 419.1,363.3 485.4,401.5 			"/>
			<polygon class="st10" points="471.8,409.4 405.6,371.1 408.8,369.2 475.1,407.5 			"/>
			<polygon class="st10" points="466.4,412.5 400.1,374.2 403.4,372.3 469.7,410.6 			"/>
			<polygon class="st10" points="461,415.6 394.7,377.4 398,375.5 464.3,413.7 			"/>
			<polygon class="st10" points="421.3,438.5 355,400.3 361.6,396.5 427.8,434.8 			"/>
			<polygon class="st10" points="409.8,440 348,404.3 351.3,402.4 413,438.1 			"/>
			<polygon class="st10" points="403.1,442.4 342.6,407.5 345.9,405.6 406.4,440.5 			"/>
			<polygon class="st10" points="388.3,440.1 337.2,410.6 340.5,408.7 391.6,438.2 			"/>
			<polygon class="st10" points="387.8,402.7 369.3,392 387.8,381.4 406.3,392 			"/>
			<polygon class="st10" points="411.7,416.5 393.2,405.8 411.7,395.1 430.2,405.8 			"/>
			<polygon class="st10" points="435.6,430.3 417.1,419.6 435.6,408.9 454.1,419.6 			"/>
			<polygon class="st15" points="128.5,268.7 112.8,259.6 128.5,250.6 144.2,259.6 			"/>
			<polygon class="st15" points="153.3,254.2 137.6,245.1 153.3,236.1 169,245.1 			"/>
			<polygon class="st16" points="162.6,167.5 146.9,158.5 162.6,149.4 178.3,158.5 			"/>
			<polygon class="st17" points="162.6,248.9 146.9,239.9 146.9,158.5 162.6,167.5 			"/>
			<polygon class="st17" points="178.3,239.9 162.6,248.9 162.6,167.5 178.3,158.5 			"/>
			<polygon class="st10" points="139.1,208.2 123.4,199.2 139.1,190.1 154.8,199.2 			"/>
			<polygon class="st10" points="139.1,262.4 123.4,253.4 123.4,199.2 139.1,208.2 			"/>
			<polygon class="st18" points="139.1,262.4 123.4,253.4 123.4,199.2 139.1,208.2 			"/>
			<polygon class="st10" points="154.8,253.4 139.1,262.4 139.1,208.2 154.8,199.2 			"/>
			<polygon class="st19" points="154.8,253.4 139.1,262.4 139.1,208.2 154.8,199.2 			"/>
			<polygon class="st15" points="108.4,280.5 92.7,271.5 108.4,262.4 124.1,271.5 			"/>
			<polygon class="st16" points="114.1,251.2 98.4,242.1 114.1,233.1 129.8,242.1 			"/>
			<polygon class="st20" points="114.1,277.1 98.4,268.1 98.4,242.1 114.1,251.2 			"/>
			<polygon class="st17" points="114.1,277.1 98.4,268.1 98.4,242.1 114.1,251.2 			"/>
			<polygon class="st20" points="129.8,268.1 114.1,277.1 114.1,251.2 129.8,242.1 			"/>
			<polygon class="st17" points="129.8,268.1 114.1,277.1 114.1,251.2 129.8,242.1 			"/>
			<g id="Girl_12">
				<path id="_Контур_" class="st21" d="M277.6,65.2c0.7-1.1,6.2-1.9,8,2.7c0.7,1.8,0.6,6.2,1.1,9.1c0.6,2.8,1.9,4.4,2.4,6.7
					c0.5,2.3-0.3,6.1-5.8,6.8c-5.5,0.7-9.7-1.2-11-3c-1.3-1.8-1.3-5.5,0-7.5c1.3-2,2.4-3.6,2.3-6.2L277.6,65.2z"/>
				<path id="_Контур_2" class="st21" d="M281.2,64.4c0,0-4.2-1.2-6.6,1c-1.7,1.5-2.4,3.9-1.8,6.1c0.3,1.3,1,3.1,2,3.2
					S281.2,64.4,281.2,64.4z"/>
				<path id="_Контур_3" class="st22" d="M282.8,75.6c0,0-0.3,4.6-0.2,4.9c0.1,0.3,1.8,0.7,2.3,1.1s-2.5,5.1-4,5.7
					c-1.5,0.7-6.2-1.1-6.5-3.4c-0.3-2.1,1.3-3.8,2-4.4c0.4,0,0.9,0,1.3,0l0.1-2.2C279.8,76.6,282.8,75.6,282.8,75.6z"/>
				<path id="_Контур_4" class="st22" d="M269.3,100.1c-1.3,1.8-2.8,3.4-4.6,4.8c-0.6,0.6-1.1,1.2-1.6,1.8
					c-0.8,0.9-1.9,1.7-3.1,2c-1,0.3-1.5,0.2-1.7,0c-0.2-0.2-0.1-0.5,0.4-0.7c0.7-0.2,1.4-0.6,2-1.1c0,0-1,0.4-1.6,0.7
					c-0.5,0.2-1.1,0.3-1.7,0.3c-0.6,0-1.2-0.7-0.7-0.8c0.5-0.2,0.8-0.2,1.8-0.5c0.5-0.2,0.9-0.4,1.3-0.7c-0.6,0.2-1.2,0.3-1.9,0.4
					c-0.5,0.1-1.1,0-1.6-0.2c-0.3-0.1-0.5-0.6,0.1-0.8c0.8-0.1,1.5-0.3,2.3-0.5c0.7-0.3,1.1-0.7,1-0.7c-0.2-0.1-0.6,0.2-1.3,0.1
					s-1.4-0.5-1.4-0.8c0-0.3,0.2-0.2,0.8-0.2c0.7-0.2,1.5-0.3,2.2-0.4c0.7,0,1.5-0.1,2.2-0.3c0.7-0.2,2.4-2.2,3.7-4.1
					c1.4-2.1,2.5-4.3,3.3-6.7c0.8-2.5,1.7-7.3,2.3-8.9c0.7-1.7,1.8-2.4,2.9-2.4c1.3,0,1.8,1.6,1.5,3.1
					C275.5,85.9,272.7,95.6,269.3,100.1z"/>
				<path id="_Контур_5" class="st23" d="M283.4,81c1.3,0.2,2.8,0.9,3,1.6c0.5,2.5,0.4,5.2-0.4,7.6c-1.1,3-2.4,8.3-3,9.6
					c-3.3,0.5-6.7-0.2-9.6-1.9c0,0-0.3-5.1-0.3-6.8c-4.2-3.6-0.6-8.1,2.9-11.5c0.4,0,0.8,0,1.3,0c0,0-3.1,3.7-1,5.8
					C281,83.9,281.9,81.8,283.4,81z"/>
				<path id="_Контур_6" class="st22" d="M274.2,70L274.2,70c0.5-2.9,2.6-5.2,5.6-5c3.2,0.2,5.7,2.9,5.5,6.2c0,0,0,0,0,0
					c-0.1,1.8-1.1,3.5-2.6,4.5c-0.1,0.4-0.3,0.9-0.5,1.3c-1.1,1.3-3.9,2-4.9,2.1c-0.8,0-1.5-0.8-2.3-2C273.6,74.3,274,71.4,274.2,70
					z"/>
				<path class="st21" d="M280.8,65c2.1,0.4,3.9,1,4.5,3.1c0.4,1.4,0.9,4.2,0.4,5.3l-0.3,0.8l-2.6,1.3c0,0-1.2-1-0.8-3.9
					c0-0.4-0.1-0.8-0.4-1.1c-0.2-0.3-0.3-0.6-0.4-0.9c-0.3-0.8-0.9-1.4-1.7-1.8c-1.7-0.7-3.5-0.6-5.1,0.2
					C275.6,65.7,278.2,64.4,280.8,65z"/>
				<path class="st21" d="M269.1,135.5c-1.1,0.8-2.8,0.3-2.8,0.4c-1.3,1.1-2.6,2.1-3.9,3c-0.7,0.5-1.7,1.2-1.5,2.3
					c0.3,1.8,3.2,1.3,4.3,0.7c1.1-0.6,2-1.5,3-2.1c0.7-0.5,1.5-0.7,1.6-1.7C269.8,137.5,269.3,135.5,269.1,135.5z"/>
				<path class="st24" d="M269.7,137.7c-0.1,0.9-0.8,1.1-1.6,1.6c-1.1,0.7-2,1.6-3.1,2.2c-1.1,0.6-3.5,1-4.2-0.3
					c0.4,1.8,3.2,1.2,4.3,0.7c1.1-0.6,2-1.5,3-2.1c0.7-0.5,1.5-0.7,1.6-1.7C269.7,137.9,269.7,137.8,269.7,137.7z"/>
				<path class="st21" d="M263.8,132.6c-1,0.8-2.5,0.4-2.6,0.4c-1.2,1-2.4,1.9-3.6,2.7c-0.6,0.5-1.6,1.1-1.4,2.1
					c0.3,1.7,3,1.2,4,0.6c1-0.5,1.8-1.4,2.8-1.9c0.7-0.4,1.3-0.6,1.5-1.5C264.4,134.2,264.2,133.3,263.8,132.6z"/>
				<path class="st24" d="M264.4,134.7c-0.1,0.8-0.8,1-1.5,1.5c-0.9,0.6-1.8,1.4-2.8,2s-3.2,0.9-3.9-0.3c0.4,1.6,3,1.1,4,0.6
					c1-0.5,1.8-1.4,2.8-1.9c0.7-0.4,1.3-0.6,1.5-1.5C264.5,134.9,264.5,134.8,264.4,134.7z"/>
				<path class="st22" d="M278.7,100.9c-2.9,0.4-5.9,0-8.6-1.2c0.1,0.9,0.1,1.7,0.1,1.7c-3.5,2.5-10.5,6.6-11,9.5
					c0.5,9.1,1.8,22,2.2,22.2c1.1,0.5,1.9,0.4,2.4-0.1c0,0,2.2-7.7,1.6-19c0,0,12.2-5.4,13-8.3c0.4-1.2,0.5-2.5,0.3-3.7
					C278.8,101.7,278.8,101.3,278.7,100.9z"/>
				<path class="st22" d="M282.8,99.8c-2.3,1-4.9,1.4-7.4,1c0,1.2,0.2,3.5,0.2,3.5c-3.5,2.5-10.5,6.6-11,9.5
					c0.5,9.1,1.3,22.2,1.7,22.4c1,0.4,2.1,0.3,2.9-0.3c0,0,2.2-7.6,1.6-18.9c0-0.2,10.5-5.4,11.8-6.7s1.6-3.4,1.6-5.3
					C284,103.1,283.6,101.3,282.8,99.8z"/>
				<path class="st25" d="M285.4,101.7c0,0,3.9,6.9-2.6,10.4c-6.8,3.7-11,4.6-11,4.6l-1,0.2c0.3,2.4,0.3,4.8,0,7.1
					c0,0-4.9,1.7-11.1-3.8l-2.1-6.6l-0.2-1.8c-0.2-1.2,0.1-2.5,1-3.3c1.5-1.4,6.2-4.8,9.1-6.8c2.9-2,5.3-3.9,5.3-3.9l0.5-0.5
					c0,0,3.5,2.8,9.8,1.8C284.1,100,284.8,100.8,285.4,101.7z"/>
				<path id="_Контур_7" class="st22" d="M281.5,111.9c0.6-0.5,1.2-1,1.9-1.5c0.7-0.4,1.3-0.8,1.9-1.4
					c0.6-0.6,1.5-3.1,1.9-5.5c0.4-2.7,0.4-5.5-0.1-8.2c-0.8-3.2-1.9-6.4-3.2-9.4c-0.8-1.8-0.4-2.9,0.4-3.7c0.9-0.9,1.9-0.9,3,1.6
					c1.5,3.6,2.7,7.3,3.4,11.1c0.4,2.8,0.4,5.6-0.1,8.3c-0.5,2.4-1.2,4.8-2.2,7c-0.3,0.7-0.3,1.2-0.7,2.5c-0.4,1.3-1.1,2.5-2,3.5
					c-0.8,0.8-1.3,0.9-1.5,0.8c-0.2-0.1-0.3-0.4,0.1-0.8c0.6-0.6,1.1-1.3,1.4-2.1c0,0-0.7,0.9-1.2,1.4c-0.4,0.5-0.9,0.9-1.4,1.2
					c-0.5,0.3-1.3-0.1-1-0.5c0.3-0.4,0.7-0.6,1.4-1.4c0.4-0.4,0.7-0.8,0.9-1.3c-0.5,0.5-1,0.9-1.6,1.3c-0.4,0.3-1,0.6-1.5,0.6
					c-0.3,0-0.7-0.3-0.2-0.8c0.7-0.5,1.3-1,1.9-1.7c0.5-0.7,0.8-1.2,0.6-1.2c-0.2,0-0.4,0.4-1.1,0.7c-0.7,0.3-1.4,0.2-1.6-0.2
					C280.7,112.1,280.9,112.3,281.5,111.9z"/>
				<path class="st26" d="M288.9,87.2c0,0-2.3,2.1-5,1.7l-1.1-4.4c0,0-0.7-2.3,1.3-3.2C286.2,80.4,288.1,82.7,288.9,87.2z"/>
				<path class="st26" d="M276,79.6c0,0-2.5-0.8-5.2,4.9l1,0.6C273,83.1,274.5,81.3,276,79.6z"/>
				<g id="_Группа_">
					<g id="_Группа_2">
						<path id="_Контур_8" class="st23" d="M258.5,103.9l9.1-5.2c0.2-0.1,0.4-0.1,0.5,0l15.9,9.2l-9.3,5.4L258.5,103.9z"/>
						<path class="st27" d="M274.8,111.1l0.7,0.4c0.1,0,0.1,0.1,0,0.1l-0.7,0.4c-0.1,0-0.1,0-0.2,0l-0.7-0.4c-0.1,0-0.1-0.1,0-0.1
							l0.7-0.4C274.7,111.1,274.8,111.1,274.8,111.1z"/>
						<path class="st27" d="M273.9,110.6l0.7,0.4c0.1,0,0.1,0.1,0,0.1l-0.7,0.4c-0.1,0-0.2,0-0.2,0l-0.7-0.4c-0.1,0-0.1-0.1,0-0.1
							l0.7-0.4C273.7,110.5,273.8,110.5,273.9,110.6z"/>
						<path class="st27" d="M272.9,110l0.7,0.4c0.1,0,0.1,0.1,0,0.1l-0.7,0.4c-0.1,0-0.2,0-0.2,0l-0.7-0.4c-0.1,0-0.1-0.1,0-0.1
							l0.7-0.4C272.7,110,272.8,110,272.9,110z"/>
						<path class="st27" d="M271.9,109.4l0.7,0.4c0.1,0,0,0.1,0,0.1l-0.7,0.4c-0.1,0-0.1,0-0.2,0L271,110c-0.1,0-0.1-0.1,0-0.1
							l0.7-0.4C271.8,109.4,271.8,109.4,271.9,109.4z"/>
						<path class="st27" d="M270.9,108.9l0.7,0.4c0.1,0,0.1,0.1,0,0.1l-0.7,0.4c-0.1,0-0.2,0-0.2,0l-0.7-0.4c-0.1,0-0.1-0.1,0-0.1
							l0.7-0.4C270.8,108.8,270.9,108.8,270.9,108.9z"/>
						<path class="st27" d="M269.9,108.3l0.7,0.4c0.1,0,0.1,0.1,0,0.1l-0.7,0.4c-0.1,0-0.1,0-0.2,0l-0.7-0.4c-0.1,0-0.1-0.1,0-0.1
							l0.7-0.4C269.8,108.3,269.9,108.3,269.9,108.3z"/>
						<path class="st27" d="M269,107.7l0.7,0.4c0.1,0,0.1,0.1,0,0.1l-0.7,0.4c-0.1,0-0.2,0-0.2,0l-0.7-0.4c-0.1,0-0.1-0.1,0-0.1
							l0.7-0.4C268.8,107.7,268.9,107.7,269,107.7z"/>
						<path class="st27" d="M268,107.2l0.7,0.4c0.1,0,0.1,0.1,0,0.1l-0.7,0.4c-0.1,0-0.1,0-0.2,0l-0.7-0.4c-0.1,0-0.1-0.1,0-0.1
							l0.7-0.4C267.8,107.1,267.9,107.1,268,107.2z"/>
						<path class="st27" d="M267,106.6l0.7,0.4c0.1,0,0.1,0.1,0,0.1l-0.6,0.4c-0.1,0-0.2,0-0.2,0l-0.7-0.4c-0.1,0-0.1-0.1,0-0.1
							l0.7-0.4C266.9,106.6,266.9,106.6,267,106.6z"/>
						<path class="st27" d="M266,106l0.7,0.4c0.1,0,0.1,0.1,0,0.1L266,107c-0.1,0-0.1,0-0.2,0l-0.7-0.4c-0.1,0-0.1-0.1,0-0.1
							l0.7-0.4C265.9,106,265.9,106,266,106z"/>
						<path class="st27" d="M265,105.5l0.7,0.4c0.1,0,0.1,0.1,0,0.1l-0.7,0.4c-0.1,0-0.2,0-0.2,0l-0.7-0.4c-0.1,0-0.1-0.1,0-0.1
							l0.7-0.4C264.9,105.4,265,105.4,265,105.5z"/>
						<path class="st27" d="M264.1,104.9l0.7,0.4c0.1,0,0.1,0.1,0,0.1l-0.7,0.4c-0.1,0-0.1,0-0.2,0l-0.7-0.4c-0.1,0,0-0.1,0-0.1
							l0.7-0.4C263.9,104.9,264,104.9,264.1,104.9z"/>
						<path class="st27" d="M263.1,104.3l0.7,0.4c0.1,0,0,0.1,0,0.1l-0.7,0.4c-0.1,0-0.1,0-0.2,0l-0.7-0.4c-0.1,0-0.1-0.1,0-0.1
							l0.7-0.4C262.9,104.3,263,104.3,263.1,104.3z"/>
						<path class="st27" d="M261.6,103.5l1.2,0.7c0.1,0,0.1,0.1,0,0.1l-0.7,0.4c-0.1,0-0.2,0-0.2,0l-1.2-0.7c-0.1,0-0.1-0.1,0-0.1
							l0.7-0.4C261.5,103.5,261.5,103.5,261.6,103.5z"/>
						<path class="st27" d="M274.3,109.8l0.7,0.4c0.1,0,0.1,0.1,0,0.1l-0.7,0.4c-0.1,0-0.2,0-0.2,0l-0.7-0.4c-0.1,0-0.1-0.1,0-0.1
							l0.7-0.4C274.2,109.7,274.3,109.7,274.3,109.8z"/>
						<path class="st27" d="M273.4,109.2l0.7,0.4c0.1,0,0.1,0.1,0,0.1l-0.7,0.4c-0.1,0-0.2,0-0.2,0l-0.7-0.4c-0.1,0-0.1-0.1,0-0.1
							l0.7-0.4C273.2,109.2,273.3,109.2,273.4,109.2z"/>
						<path class="st27" d="M272.4,108.6l0.7,0.4c0.1,0,0.1,0.1,0,0.1l-0.7,0.4c-0.1,0-0.1,0-0.2,0l-0.7-0.4c-0.1,0-0.1-0.1,0-0.1
							l0.7-0.4C272.2,108.6,272.3,108.6,272.4,108.6z"/>
						<path class="st27" d="M271.4,108l0.7,0.4c0.1,0,0,0.1,0,0.1l-0.7,0.4c-0.1,0-0.1,0-0.2,0l-0.7-0.4c-0.1,0-0.1-0.1,0-0.1
							l0.7-0.4C271.2,108,271.3,108,271.4,108z"/>
						<path class="st27" d="M270.4,107.5l0.7,0.4c0.1,0,0.1,0.1,0,0.1l-0.7,0.4c-0.1,0-0.2,0-0.2,0l-0.7-0.4c-0.1,0-0.1-0.1,0-0.1
							l0.7-0.4C270.2,107.5,270.3,107.5,270.4,107.5z"/>
						<path class="st27" d="M269.4,106.9l0.7,0.4c0.1,0,0.1,0.1,0,0.1l-0.7,0.4c-0.1,0-0.2,0-0.2,0l-0.7-0.4c-0.1,0-0.1-0.1,0-0.1
							l0.7-0.4C269.3,106.9,269.4,106.9,269.4,106.9z"/>
						<path class="st27" d="M268.5,106.4l0.7,0.4c0.1,0,0.1,0.1,0,0.1l-0.7,0.4c-0.1,0-0.1,0-0.2,0l-0.7-0.4c-0.1,0-0.1-0.1,0-0.1
							l0.7-0.4C268.3,106.3,268.4,106.3,268.5,106.4z"/>
						<path class="st27" d="M267.5,105.8l0.7,0.4c0.1,0,0.1,0.1,0,0.1l-0.7,0.4c-0.1,0-0.1,0-0.2,0l-0.7-0.4c-0.1,0-0.1-0.1,0-0.1
							l0.7-0.4C267.3,105.7,267.4,105.7,267.5,105.8z"/>
						<path class="st27" d="M266.5,105.2l0.7,0.4c0.1,0,0.1,0.1,0,0.1l-0.7,0.4c-0.1,0-0.2,0-0.2,0l-0.7-0.4c-0.1,0-0.1-0.1,0-0.1
							l0.7-0.4C266.3,105.2,266.4,105.2,266.5,105.2z"/>
						<path class="st27" d="M265.5,104.6l0.7,0.4c0.1,0,0.1,0.1,0,0.1l-0.7,0.4c-0.1,0-0.2,0-0.2,0l-0.7-0.4c-0.1,0-0.1-0.1,0-0.1
							l0.7-0.4C265.4,104.6,265.4,104.6,265.5,104.6z"/>
						<path class="st27" d="M264.5,104.1l0.7,0.4c0.1,0,0.1,0.1,0,0.1l-0.7,0.4c-0.1,0-0.1,0-0.2,0l-0.7-0.4c-0.1,0-0.1-0.1,0-0.1
							l0.7-0.4C264.4,104.1,264.5,104,264.5,104.1z"/>
						<path class="st27" d="M263.5,103.5l0.7,0.4c0.1,0,0.1,0.1,0,0.1l-0.7,0.4c-0.1,0-0.1,0-0.2,0l-0.7-0.4c-0.1,0-0.1-0.1,0-0.1
							l0.7-0.4C263.4,103.5,263.5,103.5,263.5,103.5z"/>
						<path class="st27" d="M275.3,110.3l1.2,0.7c0.1,0,0.1,0.1,0,0.1l-0.7,0.4c-0.1,0-0.1,0-0.2,0l-1.2-0.7c-0.1,0-0.1-0.1,0-0.1
							l0.7-0.4C275.2,110.3,275.3,110.3,275.3,110.3z"/>
						<path class="st27" d="M261.7,103.5l0.7,0.4c0.1,0,0.1,0,0.2,0l0.7-0.4c0,0,0.1-0.1,0-0.1c0,0,0,0,0,0h-0.1c0,0,0-0.1,0-0.1
							c0,0,0,0,0,0l0.7-0.4c0,0,0-0.1,0-0.1c0,0,0,0,0,0l-0.4-0.3c-0.1,0-0.1,0-0.2,0l-0.7,0.4l-0.1,0.1l-0.1,0.1l-0.1,0.1
							L261.7,103.5C261.6,103.4,261.6,103.4,261.7,103.5z"/>
						<path class="st27" d="M278.6,108.9l0.7,0.4c0.1,0,0,0.1,0,0.1l-0.7,0.4c-0.1,0-0.1,0-0.2,0l-0.7-0.4c-0.1,0-0.1-0.1,0-0.1
							l0.7-0.4C278.5,108.9,278.6,108.9,278.6,108.9z"/>
						<path class="st27" d="M277.7,108.4l0.7,0.4c0.1,0,0.1,0.1,0,0.1l-0.7,0.4c-0.1,0-0.1,0-0.2,0l-0.7-0.4c-0.1,0-0.1-0.1,0-0.1
							l0.7-0.4C277.5,108.3,277.6,108.3,277.7,108.4z"/>
						<path class="st27" d="M276.7,107.8l0.7,0.4c0.1,0,0.1,0.1,0,0.1l-0.7,0.4c-0.1,0-0.2,0-0.2,0l-0.7-0.4c-0.1,0,0-0.1,0-0.1
							l0.7-0.4C276.5,107.8,276.6,107.8,276.7,107.8z"/>
						<path class="st27" d="M268.4,103l0.7,0.4c0.1,0,0.1,0.1,0,0.1l-0.7,0.4c-0.1,0-0.2,0-0.2,0l-0.7-0.4c-0.1,0-0.1-0.1,0-0.1
							l0.7-0.4C268.2,103,268.3,103,268.4,103z"/>
						<path class="st27" d="M267.4,102.4l0.7,0.4c0.1,0,0.1,0.1,0,0.1l-0.7,0.4c-0.1,0-0.1,0-0.2,0l-0.7-0.4c-0.1,0-0.1-0.1,0-0.1
							l0.7-0.4C267.2,102.4,267.3,102.4,267.4,102.4z"/>
						<path class="st27" d="M266.4,101.9l0.7,0.4c0.1,0,0.1,0.1,0,0.1l-0.7,0.4c-0.1,0-0.1,0-0.2,0l-0.7-0.4c-0.1,0-0.1-0.1,0-0.1
							l0.7-0.4C266.3,101.8,266.3,101.8,266.4,101.9z"/>
						<path class="st27" d="M265.4,101.3l0.7,0.4c0.1,0,0.1,0.1,0,0.1l-0.7,0.4c-0.1,0-0.1,0-0.2,0l-0.7-0.4c-0.1,0-0.1-0.1,0-0.1
							l0.7-0.4C265.3,101.3,265.4,101.3,265.4,101.3z"/>
						<path class="st27" d="M275.5,107.1l0.9,0.5c0.1,0,0.1,0.1,0,0.1l-0.7,0.4c-0.1,0-0.2,0-0.2,0l-1-0.5c-0.1,0-0.1-0.1,0-0.1
							l0.7-0.4C275.3,107.1,275.4,107.1,275.5,107.1z"/>
						<path class="st27" d="M269.3,103.6l0.9,0.5c0.1,0,0.1,0.1,0,0.1l-0.7,0.4c-0.1,0-0.1,0-0.2,0l-1-0.6c-0.1,0-0.1-0.1,0-0.1
							l0.7-0.4C269.2,103.5,269.3,103.5,269.3,103.6z"/>
						<path class="st27" d="M270.6,104.3l4.6,2.7c0.1,0,0.1,0.1,0,0.1l-0.7,0.4c-0.1,0-0.1,0-0.2,0l-4.6-2.7c-0.1,0-0.1-0.1,0-0.1
							l0.7-0.4C270.4,104.2,270.5,104.2,270.6,104.3z"/>
						<path class="st27" d="M275,109l0.7,0.4c0.1,0,0.1,0.1,0,0.1l-0.7,0.4c-0.1,0-0.2,0-0.2,0l-0.7-0.4c-0.1,0-0.1-0.1,0-0.1
							l0.7-0.4C274.9,109,275,109,275,109z"/>
						<path class="st27" d="M274,108.5l0.7,0.4c0.1,0,0.1,0.1,0,0.1l-0.7,0.4c-0.1,0-0.1,0-0.2,0l-0.7-0.4c-0.1,0-0.1-0.1,0-0.1
							l0.7-0.4C273.9,108.4,274,108.4,274,108.5z"/>
						<path class="st27" d="M273.1,107.9l0.7,0.4c0.1,0,0.1,0.1,0,0.1l-0.7,0.4c-0.1,0-0.2,0-0.2,0l-0.7-0.4c-0.1,0-0.1-0.1,0-0.1
							l0.7-0.4C272.9,107.9,273,107.9,273.1,107.9z"/>
						<path class="st27" d="M272.1,107.3l0.7,0.4c0.1,0,0.1,0.1,0,0.1l-0.7,0.4c-0.1,0-0.1,0-0.2,0l-0.7-0.4c-0.1,0-0.1-0.1,0-0.1
							l0.7-0.4C271.9,107.3,272,107.3,272.1,107.3z"/>
						<path class="st27" d="M271.1,106.8l0.7,0.4c0.1,0,0.1,0.1,0,0.1l-0.7,0.4c-0.1,0-0.2,0-0.2,0l-0.7-0.4c-0.1,0-0.1-0.1,0-0.1
							l0.7-0.4C271,106.7,271,106.7,271.1,106.8z"/>
						<path class="st27" d="M270.1,106.2l0.7,0.4c0.1,0,0.1,0.1,0,0.1l-0.7,0.4c-0.1,0-0.1,0-0.2,0l-0.7-0.4c-0.1,0-0.1-0.1,0-0.1
							l0.7-0.4C270,106.2,270.1,106.2,270.1,106.2z"/>
						<path class="st27" d="M269.1,105.7l0.7,0.4c0.1,0,0.1,0.1,0,0.1l-0.7,0.4c-0.1,0-0.1,0-0.2,0l-0.7-0.4c-0.1,0-0.1-0.1,0-0.1
							l0.7-0.4C269,105.6,269.1,105.6,269.1,105.7z"/>
						<path class="st27" d="M268.2,105.1l0.7,0.4c0.1,0,0.1,0.1,0,0.1l-0.7,0.4c-0.1,0-0.2,0-0.2,0l-0.7-0.4c-0.1,0-0.1-0.1,0-0.1
							l0.7-0.4C268,105,268.1,105,268.2,105.1z"/>
						<path class="st27" d="M267.2,104.5l0.7,0.4c0.1,0,0.1,0.1,0,0.1l-0.7,0.4c-0.1,0-0.1,0-0.2,0l-0.7-0.4c-0.1,0-0.1-0.1,0-0.1
							l0.7-0.4C267,104.5,267.1,104.5,267.2,104.5z"/>
						<path class="st27" d="M266.2,104l0.7,0.4c0.1,0,0.1,0.1,0,0.1l-0.7,0.4c-0.1,0-0.2,0-0.2,0l-0.7-0.4c-0.1,0-0.1-0.1,0-0.1
							l0.7-0.4C266.1,103.9,266.1,103.9,266.2,104z"/>
						<path class="st27" d="M265.2,103.4l0.7,0.4c0.1,0,0.1,0.1,0,0.1l-0.7,0.4c-0.1,0-0.1,0-0.2,0l-0.7-0.4c-0.1,0-0.1-0.1,0-0.1
							l0.7-0.4C265.1,103.3,265.2,103.3,265.2,103.4z"/>
						<path class="st27" d="M264.2,102.8l0.7,0.4c0.1,0,0.1,0.1,0,0.1l-0.7,0.4c-0.1,0-0.2,0-0.2,0l-0.7-0.4c-0.1,0,0-0.1,0-0.1
							l0.7-0.4C264.1,102.8,264.2,102.8,264.2,102.8z"/>
						<path class="st27" d="M276,109.6l1.4,0.8c0.1,0,0.1,0.1,0,0.1l-0.7,0.4c-0.1,0-0.2,0-0.2,0l-1.4-0.8c-0.1,0-0.1-0.1,0-0.1
							l0.7-0.4C275.9,109.6,275.9,109.6,276,109.6z"/>
						<path class="st27" d="M276.5,108.8l0.7,0.4c0.1,0,0.1,0.1,0,0.1l-0.7,0.4c-0.1,0-0.2,0-0.2,0l-0.7-0.4c-0.1,0-0.1-0.1,0-0.1
							l0.7-0.4C276.3,108.7,276.4,108.7,276.5,108.8z"/>
						<path class="st27" d="M275.5,108.2l0.7,0.4c0.1,0,0,0.1,0,0.1l-0.7,0.4c-0.1,0-0.1,0-0.2,0l-0.7-0.4c-0.1,0-0.1-0.1,0-0.1
							l0.7-0.4C275.3,108.2,275.4,108.2,275.5,108.2z"/>
						<path class="st27" d="M274.5,107.6l0.7,0.4c0.1,0,0.1,0.1,0,0.1l-0.7,0.4c-0.1,0-0.1,0-0.2,0l-0.7-0.4c-0.1,0-0.1-0.1,0-0.1
							l0.7-0.4C274.4,107.6,274.4,107.6,274.5,107.6z"/>
						<path class="st27" d="M273.5,107.1l0.7,0.4c0.1,0,0.1,0.1,0,0.1l-0.7,0.4c-0.1,0-0.2,0-0.2,0l-0.7-0.4c-0.1,0-0.1-0.1,0-0.1
							l0.7-0.4C273.4,107,273.5,107,273.5,107.1z"/>
						<path class="st27" d="M272.5,106.5l0.7,0.4c0.1,0,0.1,0.1,0,0.1l-0.7,0.4c-0.1,0-0.1,0-0.2,0l-0.7-0.4c-0.1,0-0.1-0.1,0-0.1
							l0.7-0.4C272.4,106.5,272.5,106.5,272.5,106.5z"/>
						<path class="st27" d="M271.6,106l0.7,0.4c0.1,0,0.1,0.1,0,0.1l-0.7,0.4c-0.1,0-0.2,0-0.2,0l-0.7-0.4c-0.1,0-0.1-0.1,0-0.1
							l0.7-0.4C271.4,105.9,271.5,105.9,271.6,106z"/>
						<path class="st27" d="M270.6,105.4l0.7,0.4c0.1,0,0,0.1,0,0.1l-0.7,0.4c-0.1,0-0.1,0-0.2,0l-0.7-0.4c-0.1,0-0.1-0.1,0-0.1
							l0.7-0.4C270.4,105.4,270.5,105.4,270.6,105.4z"/>
						<path class="st27" d="M269.6,104.8l0.7,0.4c0.1,0,0.1,0.1,0,0.1l-0.7,0.4c-0.1,0-0.1,0-0.2,0l-0.7-0.4c-0.1,0-0.1-0.1,0-0.1
							l0.7-0.4C269.5,104.8,269.5,104.8,269.6,104.8z"/>
						<path class="st27" d="M268.6,104.2l0.7,0.4c0.1,0,0.1,0.1,0,0.1l-0.7,0.4c-0.1,0-0.2,0-0.2,0l-0.7-0.4c-0.1,0-0.1-0.1,0-0.1
							l0.7-0.4C268.5,104.2,268.6,104.2,268.6,104.2z"/>
						<path class="st27" d="M267.6,103.7l0.7,0.4c0.1,0,0.1,0.1,0,0.1l-0.7,0.4c-0.1,0-0.1,0-0.2,0l-0.7-0.4c-0.1,0-0.1-0.1,0-0.1
							l0.7-0.4C267.5,103.7,267.6,103.7,267.6,103.7z"/>
						<path class="st27" d="M266.7,103.1l0.7,0.4c0.1,0,0.1,0.1,0,0.1l-0.7,0.4c-0.1,0-0.2,0-0.2,0l-0.7-0.4c-0.1,0-0.1-0.1,0-0.1
							l0.7-0.4C266.5,103.1,266.6,103.1,266.7,103.1z"/>
						<path class="st27" d="M264.5,101.9l1.9,1.1c0.1,0,0,0.1,0,0.1l-0.7,0.4c-0.1,0-0.1,0-0.2,0l-1.9-1.1c-0.1,0-0.1-0.1,0-0.1
							l0.7-0.4C264.3,101.8,264.4,101.8,264.5,101.9z"/>
						<path class="st27" d="M277.4,109.3l1,0.6c0.1,0,0,0.1,0,0.1l-0.7,0.4c-0.1,0-0.1,0-0.2,0l-0.9-0.5c-0.1,0-0.1-0.1,0-0.1
							l0.7-0.4C277.3,109.3,277.4,109.3,277.4,109.3z"/>
						<path class="st27" d="M260.6,104.1l13.9,8c0.1,0,0.1,0.1,0,0.1l-0.3,0.2c-0.1,0-0.1,0-0.2,0l-13.9-8c-0.1,0,0-0.1,0-0.1
							l0.3-0.2C260.5,104,260.6,104,260.6,104.1z"/>
						<polygon id="_Контур_9" class="st28" points="277.1,104.6 277,104.6 274.6,106 270.4,103.6 270.3,103.5 272.8,102.1 
													"/>
						<polygon id="_Контур_10" class="st29" points="277,104.6 274.6,106 270.4,103.6 272.8,102.2 						"/>
						<path id="_Контур_11" class="st29" d="M283.9,107.8v0.2c0,0.3-0.2,0.6-0.4,0.8l-8.5,4.9c-0.3,0.1-0.6,0.1-0.8,0
							l-15.3-8.8c-0.3-0.1-0.5-0.4-0.4-0.8v-0.2l16.2,9.3L283.9,107.8z"/>
						<path id="_Контур_12" class="st29" d="M274.6,113.2v0.6c-0.2,0-0.3,0-0.4-0.1l-15.3-8.8c-0.3-0.1-0.5-0.4-0.4-0.8v-0.2
							L274.6,113.2z"/>
						<path id="_Контур_13" class="st23" d="M274.4,113.4c-0.3,0.1-0.6,0.1-0.9-0.1l-15.2-8.8c-0.3-0.2-0.5-0.4-0.5-0.7
							l-1.7-9.9c0-0.1,0-0.1,0-0.2c0-0.3,0.1-0.5,0.3-0.7l15.8,9.1c0.2,0.1,0.3,0.3,0.4,0.5L274.4,113.4z"/>
						<path id="_Контур_14" class="st29" d="M274.6,113.2l-0.1,0.1l-0.1,0.1l-1.8-10.8c0-0.2-0.2-0.4-0.4-0.5l-15.8-9.1
							c0.1-0.1,0.1-0.1,0.2-0.2l15.9,9.2c0.2,0.1,0.3,0.3,0.4,0.5L274.6,113.2z"/>
					</g>
				</g>
			</g>
			<g id="Men_11">
				<path id="_Контур_15" class="st22" d="M140.6,185.3c1.2,2.1,2.7,4.1,4.3,5.9c0.5,0.5,4.1-0.8,3.3-1.2s-3.1-3.7-4.3-5.8
					c-1-2.6-1.8-5.3-2.5-8c-0.7-2.7-1.4-6.6-1.9-8.5c-0.3-1.4-1.4-2.5-2.8-2.8c-1.3-0.3-2.1,0.1-1.9,1.6
					C135.3,169.2,137.4,179.9,140.6,185.3z"/>
				<path class="st30" d="M138.5,227.2c1.1,0.9,2.8,0.1,2.9,0.2c1.3,1.2,2.7,2.4,4.1,3.4c0.7,0.5,1.8,1.3,1.6,2.3
					c-0.4,1.9-3.3,1.3-4.5,0.7c-1.2-0.6-2.1-1.5-3.1-2.2c-0.8-0.5-1.5-0.7-1.7-1.7C137.7,229.4,138.3,227.2,138.5,227.2z"/>
				<path class="st31" d="M137.8,229.6c0.1,0.9,0.9,1.2,1.7,1.7c1.1,0.7,2.1,1.7,3.2,2.2s3.7,1.1,4.4-0.3c-0.4,1.8-3.3,1.2-4.5,0.7
					c-1.2-0.6-2.1-1.5-3.1-2.2c-0.8-0.5-1.5-0.7-1.7-1.7C137.8,229.9,137.8,229.7,137.8,229.6z"/>
				<path class="st30" d="M149.9,220.7c1.1,0.9,3.1-0.1,3.2,0c1.2,1.2,2.4,2.3,3.7,3.3c0.7,0.6,1.8,1.3,1.6,2.3
					c-0.4,1.9-3.3,1.3-4.5,0.7c-1.2-0.6-2.1-1.5-3.1-2.2c-0.8-0.5-1.5-0.7-1.7-1.7C149,222.3,149.3,221.4,149.9,220.7z"/>
				<path class="st31" d="M149,222.9c0.1,0.9,0.9,1.2,1.7,1.7c1.1,0.7,2.1,1.7,3.2,2.2c1.1,0.6,3.7,1.1,4.4-0.3
					c-0.4,1.8-3.3,1.2-4.5,0.7c-1.2-0.6-2.1-1.5-3.1-2.2c-0.8-0.5-1.5-0.7-1.7-1.7C149,223.2,149,223.1,149,222.9z"/>
				<path id="_Контур_16" class="st1" d="M123.6,191.4c-1.2,7.7,2.2,10.6,6.7,12.3c3.2,1.2,7.8,3,7.8,3s-0.1,1.7-0.1,5.5
					c0,3.3,0.4,15.6,0.4,15.6c1.1,0.6,2.3,0.6,3.4,0c0,0,1.8-9.4,2.2-13.6c0.5-5.7,1.4-9.5,1.1-10.7c-0.3-1.1-6.5-4.2-8.5-5.8
					l13.1,4.4c-0.3,1.4-0.4,2.9-0.4,4.3c0.1,4.6,0.4,14.4,0.4,14.4s1.8,1.3,3.3,0c0,0,3.3-19.5,2.9-22.1c-0.4-2.5-12-7.5-14-9.2
					c-0.7-0.6-1.7-0.8-2.6-0.7L123.6,191.4z"/>
				<g id="_Группа_3">
					<g id="_Группа_4">
						<path id="_Контур_17" class="st23" d="M155.1,194.6l-8.8-5.1c-0.2-0.1-0.3-0.1-0.5,0l-15.5,9l9.1,5.2L155.1,194.6z"/>
						<path class="st27" d="M139,201.9l-0.7,0.4c-0.1,0-0.1,0.1,0,0.1l0.6,0.4c0.1,0,0.1,0,0.2,0l0.7-0.4c0.1,0,0.1-0.1,0-0.1
							l-0.6-0.4C139.1,201.8,139,201.8,139,201.9z"/>
						<path class="st27" d="M139.9,201.3l-0.7,0.4c-0.1,0,0,0.1,0,0.1l0.6,0.4c0.1,0,0.1,0,0.2,0l0.7-0.4c0.1,0,0.1-0.1,0-0.1
							l-0.6-0.4C140,201.3,140,201.3,139.9,201.3z"/>
						<path class="st27" d="M140.9,200.7l-0.7,0.4c-0.1,0-0.1,0.1,0,0.1l0.6,0.4c0.1,0,0.1,0,0.2,0l0.7-0.4c0.1,0,0.1-0.1,0-0.1
							l-0.6-0.4C141,200.7,140.9,200.7,140.9,200.7z"/>
						<path class="st27" d="M141.8,200.2l-0.7,0.4c-0.1,0-0.1,0.1,0,0.1l0.7,0.3c0.1,0,0.1,0,0.2,0l0.7-0.4c0.1,0,0-0.1,0-0.1
							l-0.6-0.4C142,200.1,141.9,200.1,141.8,200.2z"/>
						<path class="st27" d="M142.8,199.6l-0.7,0.4c-0.1,0-0.1,0.1,0,0.1l0.6,0.4c0.1,0,0.1,0,0.2,0l0.7-0.4c0.1,0,0.1-0.1,0-0.1
							l-0.6-0.4C142.9,199.6,142.8,199.6,142.8,199.6z"/>
						<path class="st27" d="M143.7,199.1l-0.7,0.4c-0.1,0-0.1,0.1,0,0.1l0.6,0.4c0.1,0,0.1,0,0.2,0l0.7-0.4c0.1,0,0.1-0.1,0-0.1
							l-0.6-0.4C143.9,199.1,143.8,199.1,143.7,199.1z"/>
						<path class="st27" d="M144.7,198.5l-0.7,0.4c-0.1,0-0.1,0.1,0,0.1l0.6,0.4c0.1,0,0.1,0,0.2,0l0.7-0.4c0.1,0,0.1-0.1,0-0.1
							l-0.6-0.4C144.8,198.5,144.7,198.5,144.7,198.5z"/>
						<path class="st27" d="M145.6,198l-0.7,0.4c-0.1,0-0.1,0.1,0,0.1l0.6,0.4c0.1,0,0.1,0,0.2,0l0.7-0.4c0.1,0,0.1-0.1,0-0.1
							l-0.6-0.4C145.8,198,145.7,198,145.6,198z"/>
						<path class="st27" d="M146.6,197.4l-0.7,0.4c-0.1,0,0,0.1,0,0.1l0.6,0.4c0.1,0,0.1,0,0.2,0l0.7-0.4c0.1,0,0-0.1,0-0.1
							l-0.6-0.4C146.7,197.4,146.6,197.4,146.6,197.4z"/>
						<path class="st27" d="M147.5,196.9l-0.7,0.4c-0.1,0-0.1,0.1,0,0.1l0.6,0.4c0.1,0,0.1,0,0.2,0l0.7-0.4c0.1,0,0-0.1,0-0.1
							l-0.7-0.4C147.7,196.8,147.6,196.8,147.5,196.9z"/>
						<path class="st27" d="M148.5,196.3l-0.7,0.4c-0.1,0-0.1,0.1,0,0.1l0.6,0.4c0.1,0,0.1,0,0.2,0l0.7-0.4c0.1,0,0.1-0.1,0-0.1
							l-0.6-0.4C148.6,196.3,148.6,196.3,148.5,196.3z"/>
						<path class="st27" d="M149.4,195.8l-0.7,0.4c-0.1,0-0.1,0.1,0,0.1l0.6,0.4c0.1,0,0.1,0,0.2,0l0.7-0.4c0.1,0,0.1-0.1,0-0.1
							l-0.6-0.4C149.6,195.8,149.5,195.8,149.4,195.8z"/>
						<path class="st27" d="M150.4,195.2l-0.7,0.4c-0.1,0-0.1,0.1,0,0.1l0.6,0.4c0.1,0,0.1,0,0.2,0l0.7-0.4c0.1,0,0.1-0.1,0-0.1
							l-0.6-0.4C150.5,195.2,150.5,195.2,150.4,195.2z"/>
						<path class="st27" d="M151.8,194.4l-1.1,0.7c-0.1,0-0.1,0.1,0,0.1l0.6,0.4c0.1,0,0.1,0,0.2,0l1.1-0.7c0.1,0,0.1-0.1,0-0.1
							l-0.6-0.4C152,194.4,151.9,194.4,151.8,194.4z"/>
						<path class="st27" d="M139.4,200.5l-0.7,0.4c-0.1,0-0.1,0.1,0,0.1l0.6,0.4c0.1,0,0.1,0,0.2,0l0.7-0.4c0.1,0,0.1-0.1,0-0.1
							l-0.6-0.4C139.6,200.5,139.5,200.5,139.4,200.5z"/>
						<path class="st27" d="M140.4,199.9l-0.7,0.4c-0.1,0-0.1,0.1,0,0.1l0.6,0.4c0.1,0,0.1,0,0.2,0l0.7-0.4c0.1,0,0.1-0.1,0-0.1
							l-0.6-0.4C140.5,199.9,140.5,199.9,140.4,199.9z"/>
						<path class="st27" d="M141.3,199.4l-0.7,0.4c-0.1,0-0.1,0.1,0,0.1l0.6,0.4c0.1,0,0.1,0,0.2,0l0.7-0.4c0.1,0,0-0.1,0-0.1
							l-0.7-0.4C141.5,199.3,141.4,199.3,141.3,199.4z"/>
						<path class="st27" d="M142.3,198.8l-0.7,0.4c-0.1,0-0.1,0.1,0,0.1l0.6,0.4c0.1,0,0.1,0,0.2,0l0.7-0.4c0.1,0,0.1-0.1,0-0.1
							l-0.6-0.4C142.5,198.8,142.4,198.8,142.3,198.8z"/>
						<path class="st27" d="M143.2,198.3l-0.7,0.4c-0.1,0,0,0.1,0,0.1l0.6,0.4c0.1,0,0.1,0,0.2,0l0.7-0.4c0.1,0,0.1-0.1,0-0.1
							l-0.6-0.4C143.4,198.3,143.3,198.3,143.2,198.3z"/>
						<path class="st27" d="M144.2,197.7l-0.7,0.4c-0.1,0-0.1,0.1,0,0.1l0.6,0.4c0.1,0,0.1,0,0.2,0l0.7-0.4c0.1,0,0.1-0.1,0-0.1
							l-0.6-0.4C144.4,197.7,144.3,197.7,144.2,197.7z"/>
						<path class="st27" d="M145.2,197.2l-0.7,0.4c-0.1,0-0.1,0.1,0,0.1l0.6,0.4c0.1,0,0.1,0,0.2,0l0.7-0.4c0.1,0,0.1-0.1,0-0.1
							l-0.6-0.4C145.3,197.1,145.2,197.1,145.2,197.2z"/>
						<path class="st27" d="M146.1,196.6l-0.7,0.4c-0.1,0,0,0.1,0,0.1l0.6,0.4c0.1,0,0.1,0,0.2,0l0.7-0.4c0.1,0,0.1-0.1,0-0.1
							l-0.6-0.4C146.3,196.6,146.2,196.6,146.1,196.6z"/>
						<path class="st27" d="M147.1,196.1l-0.7,0.4c-0.1,0-0.1,0.1,0,0.1l0.6,0.4c0.1,0,0.1,0,0.2,0l0.7-0.4c0.1,0,0.1-0.1,0-0.1
							l-0.6-0.4C147.2,196,147.1,196,147.1,196.1z"/>
						<path class="st27" d="M148,195.5l-0.7,0.4c-0.1,0-0.1,0.1,0,0.1l0.6,0.4c0.1,0,0.1,0,0.2,0l0.7-0.4c0.1,0,0.1-0.1,0-0.1
							l-0.6-0.4C148.2,195.5,148.1,195.5,148,195.5z"/>
						<path class="st27" d="M149,195l-0.7,0.4c-0.1,0,0,0.1,0,0.1l0.6,0.4c0.1,0,0.1,0,0.2,0l0.7-0.4c0.1,0,0-0.1,0-0.1l-0.6-0.4
							C149.1,194.9,149,194.9,149,195z"/>
						<path class="st27" d="M149.9,194.4l-0.7,0.4c-0.1,0-0.1,0.1,0,0.1l0.6,0.4c0.1,0,0.1,0,0.2,0l0.7-0.4c0.1,0,0.1-0.1,0-0.1
							l-0.6-0.4C150.1,194.4,150,194.4,149.9,194.4z"/>
						<path class="st27" d="M138.5,201l-1.1,0.7c-0.1,0,0,0.1,0,0.1l0.6,0.4c0.1,0,0.1,0,0.2,0l1.1-0.7c0.1,0,0-0.1,0-0.1l-0.6-0.4
							C138.6,201,138.5,201,138.5,201z"/>
						<path class="st27" d="M151.7,194.4l-0.7,0.4c-0.1,0-0.1,0-0.2,0l-0.7-0.4c0,0,0-0.1,0-0.1c0,0,0,0,0,0h0.1
							c0.1,0,0.1-0.1,0-0.1l-0.7-0.4c-0.1,0-0.1-0.1,0-0.1l0.4-0.2c0.1,0,0.1,0,0.2,0l0.7,0.4l0.1,0.1l0.1,0.1l0.1,0.1L151.7,194.4
							C151.8,194.3,151.8,194.4,151.7,194.4z"/>
						<path class="st27" d="M135.3,199.7l-0.7,0.4c-0.1,0-0.1,0.1,0,0.1l0.6,0.4c0.1,0,0.1,0,0.2,0l0.7-0.4c0.1,0,0.1-0.1,0-0.1
							l-0.6-0.4C135.4,199.7,135.3,199.7,135.3,199.7z"/>
						<path class="st27" d="M136.2,199.2l-0.7,0.4c-0.1,0-0.1,0.1,0,0.1l0.6,0.4c0.1,0,0.1,0,0.2,0l0.7-0.4c0.1,0,0.1-0.1,0-0.1
							l-0.6-0.4C136.4,199.1,136.3,199.1,136.2,199.2z"/>
						<path class="st27" d="M137.2,198.6l-0.7,0.4c-0.1,0-0.1,0.1,0,0.1l0.6,0.4c0.1,0,0.1,0,0.2,0l0.7-0.4c0.1,0,0.1-0.1,0-0.1
							l-0.6-0.4C137.3,198.6,137.2,198.6,137.2,198.6z"/>
						<path class="st27" d="M145.3,193.9l-0.7,0.4c-0.1,0-0.1,0.1,0,0.1l0.6,0.4c0.1,0,0.1,0,0.2,0l0.7-0.4c0.1,0,0.1-0.1,0-0.1
							l-0.6-0.4C145.4,193.9,145.3,193.9,145.3,193.9z"/>
						<path class="st27" d="M146.2,193.4l-0.7,0.4c-0.1,0-0.1,0.1,0,0.1l0.6,0.4c0.1,0,0.1,0,0.2,0l0.7-0.4c0.1,0,0.1-0.1,0-0.1
							l-0.6-0.4C146.3,193.3,146.3,193.3,146.2,193.4z"/>
						<path class="st27" d="M147.1,192.8l-0.7,0.4c-0.1,0-0.1,0.1,0,0.1l0.6,0.4c0.1,0,0.1,0,0.2,0l0.7-0.4c0.1,0,0.1-0.1,0-0.1
							l-0.6-0.4C147.3,192.8,147.2,192.8,147.1,192.8z"/>
						<path class="st27" d="M148.1,192.3l-0.7,0.4c-0.1,0-0.1,0.1,0,0.1l0.6,0.4c0.1,0,0.1,0,0.2,0l0.7-0.4c0.1,0,0-0.1,0-0.1
							l-0.6-0.4C148.3,192.3,148.2,192.3,148.1,192.3z"/>
						<path class="st27" d="M138.3,197.9l-0.9,0.5c-0.1,0,0,0.1,0,0.1l0.6,0.4c0.1,0,0.1,0,0.2,0l0.9-0.5c0.1,0,0.1-0.1,0-0.1
							l-0.6-0.4C138.5,197.9,138.4,197.9,138.3,197.9z"/>
						<path class="st27" d="M144.3,194.5l-0.9,0.5c-0.1,0-0.1,0.1,0,0.1l0.6,0.4c0.1,0,0.1,0,0.2,0l0.9-0.5c0.1,0,0.1-0.1,0-0.1
							l-0.6-0.4C144.5,194.4,144.4,194.4,144.3,194.5z"/>
						<path class="st27" d="M143.1,195.2l-4.5,2.6c-0.1,0-0.1,0.1,0,0.1l0.6,0.4c0.1,0,0.1,0,0.2,0l4.5-2.6c0.1,0,0.1-0.1,0-0.1
							l-0.7-0.4C143.3,195.2,143.2,195.2,143.1,195.2z"/>
						<path class="st27" d="M138.8,199.8l-0.7,0.4c-0.1,0-0.1,0.1,0,0.1l0.6,0.4c0.1,0,0.1,0,0.2,0l0.7-0.4c0.1,0,0.1-0.1,0-0.1
							l-0.6-0.4C138.9,199.8,138.8,199.8,138.8,199.8z"/>
						<path class="st27" d="M139.7,199.3l-0.7,0.4c-0.1,0-0.1,0.1,0,0.1l0.6,0.4c0.1,0,0.1,0,0.2,0l0.7-0.4c0.1,0,0.1-0.1,0-0.1
							l-0.6-0.4C139.9,199.2,139.8,199.2,139.7,199.3z"/>
						<path class="st27" d="M140.7,198.7l-0.7,0.4c-0.1,0,0,0.1,0,0.1l0.6,0.4c0.1,0,0.1,0,0.2,0l0.7-0.4c0.1,0,0.1-0.1,0-0.1
							l-0.6-0.4C140.8,198.7,140.7,198.7,140.7,198.7z"/>
						<path class="st27" d="M141.6,198.2l-0.7,0.4c-0.1,0,0,0.1,0,0.1l0.6,0.4c0.1,0,0.1,0,0.2,0l0.7-0.4c0.1,0,0.1-0.1,0-0.1
							l-0.6-0.4C141.8,198.1,141.7,198.1,141.6,198.2z"/>
						<path class="st27" d="M142.6,197.6l-0.7,0.4c-0.1,0,0,0.1,0,0.1l0.6,0.4c0.1,0,0.1,0,0.2,0l0.7-0.4c0.1,0,0.1-0.1,0-0.1
							l-0.6-0.4C142.7,197.6,142.6,197.6,142.6,197.6z"/>
						<path class="st27" d="M143.5,197.1l-0.7,0.4c-0.1,0,0,0.1,0,0.1l0.6,0.4c0.1,0,0.1,0,0.2,0l0.7-0.4c0.1,0,0.1-0.1,0-0.1
							l-0.6-0.4C143.7,197,143.6,197,143.5,197.1z"/>
						<path class="st27" d="M144.5,196.5l-0.7,0.4c-0.1,0,0,0.1,0,0.1l0.6,0.4c0.1,0,0.1,0,0.2,0l0.7-0.4c0.1,0,0-0.1,0-0.1
							l-0.6-0.4C144.6,196.5,144.6,196.5,144.5,196.5z"/>
						<path class="st27" d="M145.4,196l-0.7,0.4c-0.1,0,0,0.1,0,0.1l0.6,0.4c0.1,0,0.1,0,0.2,0l0.7-0.4c0.1,0,0-0.1,0-0.1l-0.6-0.4
							C145.6,195.9,145.5,195.9,145.4,196z"/>
						<path class="st27" d="M146.4,195.4l-0.7,0.4c-0.1,0,0,0.1,0,0.1l0.6,0.4c0.1,0,0.1,0,0.2,0l0.7-0.4c0.1,0,0-0.1,0-0.1
							l-0.6-0.4C146.5,195.4,146.5,195.4,146.4,195.4z"/>
						<path class="st27" d="M147.3,194.9l-0.7,0.4c-0.1,0-0.1,0.1,0,0.1l0.6,0.4c0.1,0,0.1,0,0.2,0l0.7-0.4c0.1,0,0-0.1,0-0.1
							l-0.6-0.4C147.5,194.8,147.4,194.8,147.3,194.9z"/>
						<path class="st27" d="M148.3,194.3l-0.7,0.4c-0.1,0-0.1,0.1,0,0.1l0.6,0.4c0.1,0,0.1,0,0.2,0l0.7-0.4c0.1,0,0-0.1,0-0.1
							l-0.7-0.3C148.4,194.3,148.4,194.3,148.3,194.3z"/>
						<path class="st27" d="M149.2,193.8l-0.7,0.4c-0.1,0-0.1,0.1,0,0.1l0.6,0.4c0.1,0,0.1,0,0.2,0l0.7-0.4c0.1,0,0-0.1,0-0.1
							l-0.6-0.4C149.4,193.7,149.3,193.7,149.2,193.8z"/>
						<path class="st27" d="M137.8,200.4l-1.4,0.8c-0.1,0-0.1,0.1,0,0.1l0.6,0.4c0.1,0,0.1,0,0.2,0l1.4-0.8c0.1,0,0.1-0.1,0-0.1
							l-0.6-0.4C138,200.3,137.9,200.3,137.8,200.4z"/>
						<path class="st27" d="M137.4,199.5l-0.7,0.4c-0.1,0-0.1,0.1,0,0.1l0.6,0.4c0.1,0,0.1,0,0.2,0l0.7-0.4c0.1,0,0.1-0.1,0-0.1
							l-0.6-0.4C137.5,199.5,137.4,199.5,137.4,199.5z"/>
						<path class="st27" d="M138.3,199l-0.7,0.4c-0.1,0-0.1,0.1,0,0.1l0.6,0.4c0.1,0,0.1,0,0.2,0l0.7-0.4c0.1,0,0.1-0.1,0-0.1
							l-0.6-0.4C138.5,199,138.4,199,138.3,199z"/>
						<path class="st27" d="M139.3,198.4l-0.7,0.4c-0.1,0-0.1,0.1,0,0.1l0.7,0.4c0.1,0,0.1,0,0.2,0l0.7-0.4c0.1,0,0.1-0.1,0-0.1
							l-0.6-0.4C139.5,198.4,139.4,198.4,139.3,198.4z"/>
						<path class="st27" d="M140.2,197.9l-0.7,0.4c-0.1,0-0.1,0.1,0,0.1l0.6,0.4c0.1,0,0.1,0,0.2,0l0.7-0.4c0.1,0,0.1-0.1,0-0.1
							l-0.6-0.4C140.4,197.9,140.3,197.9,140.2,197.9z"/>
						<path class="st27" d="M141.2,197.3l-0.7,0.4c-0.1,0-0.1,0.1,0,0.1l0.6,0.4c0.1,0,0.1,0,0.2,0l0.7-0.4c0.1,0,0.1-0.1,0-0.1
							l-0.6-0.4C141.3,197.3,141.3,197.3,141.2,197.3z"/>
						<path class="st27" d="M142.1,196.8l-0.7,0.4c-0.1,0-0.1,0.1,0,0.1l0.6,0.4c0.1,0,0.1,0,0.2,0l0.7-0.4c0.1,0,0.1-0.1,0-0.1
							l-0.6-0.4C142.3,196.8,142.2,196.8,142.1,196.8z"/>
						<path class="st27" d="M143.1,196.2l-0.7,0.4c-0.1,0-0.1,0.1,0,0.1l0.6,0.4c0.1,0,0.1,0,0.2,0l0.7-0.4c0.1,0,0.1-0.1,0-0.1
							l-0.6-0.4C143.2,196.2,143.2,196.2,143.1,196.2z"/>
						<path class="st27" d="M144,195.7l-0.7,0.4c-0.1,0-0.1,0.1,0,0.1l0.6,0.4c0.1,0,0.1,0,0.2,0l0.7-0.4c0.1,0,0.1-0.1,0-0.1
							l-0.6-0.4C144.2,195.7,144.1,195.7,144,195.7z"/>
						<path class="st27" d="M145,195.1l-0.7,0.4c-0.1,0-0.1,0.1,0,0.1l0.6,0.4c0.1,0,0.1,0,0.2,0l0.7-0.4c0.1,0,0.1-0.1,0-0.1
							l-0.6-0.4C145.1,195.1,145.1,195.1,145,195.1z"/>
						<path class="st27" d="M146,194.6l-0.7,0.4c-0.1,0-0.1,0.1,0,0.1l0.6,0.4c0.1,0,0.1,0,0.2,0l0.7-0.4c0.1,0,0.1-0.1,0-0.1
							l-0.6-0.4C146.1,194.6,146.1,194.6,146,194.6z"/>
						<path class="st27" d="M146.9,194.1l-0.7,0.4c-0.1,0-0.1,0.1,0,0.1l0.6,0.4c0.1,0,0.1,0,0.2,0l0.7-0.4c0.1,0,0.1-0.1,0-0.1
							l-0.6-0.4C147,194,147,194,146.9,194.1z"/>
						<path class="st27" d="M149,192.8l-1.9,1.1c-0.1,0-0.1,0.1,0,0.1l0.6,0.4c0.1,0,0.1,0,0.2,0l1.8-1.1c0.1,0,0.1-0.1,0-0.1
							l-0.6-0.4C149.2,192.8,149.1,192.8,149,192.8z"/>
						<path class="st27" d="M136.4,200.1l-0.9,0.5c-0.1,0-0.1,0.1,0,0.1l0.6,0.4c0.1,0,0.1,0,0.2,0l0.9-0.5c0.1,0,0.1-0.1,0-0.1
							l-0.6-0.4C136.6,200.1,136.5,200.1,136.4,200.1z"/>
						<path class="st27" d="M152.8,195l-13.5,7.8c-0.1,0-0.1,0.1,0,0.1l0.3,0.2c0.1,0,0.1,0,0.2,0l13.5-7.8c0.1,0,0.1-0.1,0-0.1
							L153,195C152.9,194.9,152.8,194.9,152.8,195z"/>
						<polygon id="_Контур_18" class="st28" points="136.9,195.3 137,195.4 139.4,196.7 143.5,194.3 143.6,194.3 141.2,192.9 
													"/>
						<polygon id="_Контур_19" class="st29" points="137,195.4 139.4,196.7 143.5,194.3 141.2,193 						"/>
						<path id="_Контур_20" class="st29" d="M130.3,198.5v0.2c0,0.3,0.2,0.6,0.4,0.7l8.2,4.8c0.1,0.1,0.3,0.1,0.4,0.1
							c0.1,0,0.3,0,0.4-0.1l14.9-8.6c0.3-0.1,0.4-0.4,0.4-0.7v-0.2l-15.7,9.1L130.3,198.5z"/>
						<path id="_Контур_21" class="st23" d="M139.6,203.8c0.3,0.1,0.6,0.1,0.8-0.1l14.9-8.6c0.3-0.1,0.4-0.4,0.5-0.7l1.7-9.7
							c0-0.1,0-0.1,0-0.2c0-0.3-0.1-0.5-0.3-0.7l-15.5,8.9c-0.2,0.1-0.3,0.3-0.4,0.5L139.6,203.8z"/>
						<path id="_Контур_22" class="st29" d="M139.4,203.7l0.1,0.1l0.1,0.1l1.8-10.5c0-0.2,0.2-0.4,0.4-0.5l15.4-8.9
							c-0.1-0.1-0.1-0.1-0.2-0.2l-15.4,8.9c-0.2,0.1-0.3,0.3-0.4,0.5L139.4,203.7z"/>
					</g>
				</g>
				<path id="_Контур_23" class="st22" d="M128.2,162.3c0,0,0.2,3.7,0.1,4c-0.1,0.3-1.7,1.4-2.2,1.8s2.5,3.3,4,4
					c1.5,0.7,6.1-1.1,6.2-3.3c0.1-2.2-0.8-4.2-1.5-4.3C134.1,164.3,128.2,162.3,128.2,162.3z"/>
				<path id="_Контур_24" class="st23" d="M127.8,166.9c0,0,2.7,4,6.4,4.4c1.2-1.2,1.3-5.3-0.4-6.6c0,0,1.5-1.2,2.5-1
					c1.1,0.7,1.9,1.7,2.3,2.9c1,2.7,1.4,5.6,1.3,8.5c-0.1,3.9,0,13.8,0,13.8c-0.4,2.4-1.9,4.4-3.9,5.7c-2.7,1.5-5.9,2-8.9,1.2
					c-1.5-0.3-2.7-1.4-3.2-2.9c0.2-2.7,1.3-8.3,0.8-11.8s-1.2-6-1.4-8.8s0.4-2.7,1.8-3.7C126,168,126.8,167.4,127.8,166.9z"/>
				<path id="_Контур_25" class="st22" d="M132,198.7c-0.7-0.4-1.4-0.8-2.1-1.2c-0.7-0.2-1.3-0.6-1.8-1.1
					c-0.7-0.6-1.7-3.1-2.5-5.4c-0.8-2.7-1.1-5.5-0.9-8.2c0.3-3.3,1.5-8,1.8-9.9s-0.3-2.7-1.2-3.3c-1-0.8-2.5-0.5-3.3,2.2
					c-1,3.7-1.5,7.5-1.7,11.3c0,2.8,0.4,5.7,1.3,8.3c0.8,2.3,1.9,4.5,3.2,6.6c0.4,0.6,0.5,1.2,1,2.4c0.5,1.3,1.4,2.4,2.4,3.3
					c0.9,0.7,1.4,0.8,1.6,0.6c0.2-0.1,0.2-0.5-0.2-0.8c-0.7-0.5-1.2-1.2-1.7-1.9c0,0,0.8,0.8,1.4,1.3c0.5,0.4,1,0.7,1.6,1
					c0.6,0.2,1.3-0.2,0.9-0.6c-0.4-0.4-0.8-0.6-1.6-1.2c-0.4-0.3-0.8-0.7-1.2-1.2c0.5,0.4,1.1,0.8,1.7,1.1c0.5,0.3,1,0.4,1.6,0.4
					c0.3,0,0.6-0.4,0.1-0.8c-0.7-0.4-1.4-0.8-2-1.4c-0.6-0.6-0.9-1.1-0.8-1.1c0.2,0,0.5,0.4,1.2,0.6c0.7,0.2,1.5,0,1.5-0.4
					C132.7,198.9,132.7,199,132,198.7z"/>
				<path id="_Контур_26" class="st22" d="M136.5,156.8L136.5,156.8c-0.4-2.9-2.5-5-5.5-4.9c-3.1,0.2-5.5,2.9-5.4,6
					c0,0,0,0,0,0c0.1,1.8,1,3.4,2.5,4.4c0.1,0.4,0.3,0.9,0.5,1.3c1,1.2,4.2,2,5.1,1.8c1.1-0.1,2-0.9,2.3-1.9
					C137.1,161.2,136.7,158.2,136.5,156.8z"/>
				<path class="st27" d="M128.2,162.3L128.2,162.3l0.3-2.5c0,0-2-5.3,2.8-4.3c3.2,0.7,4,1,5-1.2c1-2.1-2.4-4.1-6.5-3.5
					c-2.9,0.3-5.1,2.8-5,5.7C124.8,158.1,125.2,161.2,128.2,162.3z"/>
				<path class="st26" d="M119.9,176.6c0,0,2.6,2.6,5.7,1.9c0.4-0.3,1.5-6.4,1.5-6.4s0-3.4-2.6-3.3S119.9,176.6,119.9,176.6z"/>
				<path class="st26" d="M139.8,171.5c0.7,0,1.4-0.3,1.9-0.8c-0.1-1.4-1.9-6.6-5.4-7c1,0.7,1.7,1.6,2.2,2.7
					C139.1,168.1,139.5,169.8,139.8,171.5z"/>
			</g>
			<g id="Girl_8">
				<ellipse class="st7" cx="473.1" cy="364.8" rx="18.9" ry="10.9"/>
				<path id="_Контур_27" class="st27" d="M472.3,262.6c0.8-1.2,6.6-2,8.5,2.9c0.7,1.9,0.6,6.6,1.2,9.6s2,4.7,2.5,7.1
					c0.5,2.4-0.3,6.5-6.2,7.2s-10.4-1.3-11.7-3.2c-1.4-1.9-1.4-5.8,0-8c1.4-2.1,2.5-3.9,2.5-6.7L472.3,262.6z"/>
				<path class="st22" d="M465.4,283.1c0,0-1.4,9.7,1.2,16.6s1.9-1.8,1.9-1.8l-0.6-2.1c0,0-0.5-7.9-0.3-9.9c0.2-1.9,0.2-3.6,0.3-3.8
					c0.1-0.2-0.5-0.5-0.8-0.5C466.8,281.7,465.4,283.1,465.4,283.1z"/>
				<path id="_Контур_28" class="st27" d="M476.1,261.7c0,0-4.4-1.3-7,1.1c-1.8,1.6-2.5,4.1-1.9,6.5c0.4,1.4,1.1,3.3,2.2,3.3
					C470.5,272.7,476.1,261.7,476.1,261.7z"/>
				<path id="_Контур_29" class="st22" d="M477.8,273.7c0,0-0.3,4.9-0.2,5.2s1.9,0.7,2.4,1.1s-2.6,5.4-4.3,6.1
					c-1.6,0.7-6.6-1.1-6.9-3.6c-0.3-2.3,1.4-4,2.1-4.7c0.5,0,0.9,0,1.4,0l0.1-2.4C474.7,274.7,477.8,273.7,477.8,273.7z"/>
				<path id="_Контур_30" class="st23" d="M478.5,279.3c1.4,0.2,2.9,0.9,3.1,1.7c0.6,2.7,0.4,5.5-0.4,8.1
					c-1.2,3.1-2,5.1-2.7,6.5c0,0-5.9,2.5-10.7-0.4c0,0-0.3-3.3-0.4-5.2c-4.4-3.8-0.6-8.6,3.1-12.3c0.4,0,0.9,0,1.3,0
					c0,0-3.3,3.9-1,6.2C475.9,282.4,476.9,280.2,478.5,279.3z"/>
				<path id="_Контур_31" class="st22" d="M468.7,267.6L468.7,267.6c0.5-3.1,2.7-5.5,6-5.3c3.4,0.2,6.1,3.1,5.9,6.5
					c-0.1,2-1.1,3.8-2.8,4.9c-0.1,0.5-0.3,0.9-0.5,1.4c-1.1,1.3-4.2,2.2-5.2,2.2c-0.8,0-1.6-0.8-2.4-2.1
					C468,272.2,468.5,269.1,468.7,267.6z"/>
				<path class="st27" d="M475.7,262.4c2.3,0.4,4.1,1.1,4.7,3.3c0.4,1.5,1,4.5,0.4,5.7l-0.3,0.9l-2.7,1.5c0,0-1.3-1.1-0.9-4.2
					c0-0.4-0.2-0.8-0.4-1.2c-0.2-0.3-0.3-0.6-0.4-0.9c-0.3-0.8-1-1.5-1.8-1.9c-2-1.1-5-0.2-5.4,0.3
					C470.1,263.1,472.9,261.7,475.7,262.4z"/>
				<path id="_Контур_32" class="st22" d="M481.8,302.1c0.5-3.2,1.5-5.2,1-7c-1-3.5-2.3-7-3.9-10.3c-1-2-0.7-3.3,0.3-4.1
					c1.2-0.8,2.3-0.5,3.3,1.7c1.3,2.7,2.8,5.6,3.5,9.7c0.5,2.6,0.4,5.4-0.1,8c-0.5,2.8-1.4,4.5-2.4,7.1
					C483.3,307.9,481.4,304.8,481.8,302.1z"/>
				<path class="st30" d="M479.8,361.2c-1.1,0.9-2.9,0.3-3,0.4c-1.3,1.1-2.7,2.2-4.2,3.2c-0.7,0.6-1.8,1.3-1.6,2.4
					c0.4,1.9,3.4,1.3,4.6,0.7c1.2-0.6,2.1-1.6,3.2-2.3c0.8-0.5,1.6-0.7,1.7-1.7C480.6,363.3,480,361.2,479.8,361.2z"/>
				<path class="st31" d="M480.5,363.5c-0.2,1-0.9,1.2-1.7,1.7c-1.1,0.7-2.1,1.7-3.3,2.3c-1.2,0.6-3.8,1.1-4.5-0.3
					c0.4,1.9,3.4,1.3,4.6,0.7c1.2-0.6,2.1-1.6,3.2-2.3c0.8-0.5,1.6-0.7,1.7-1.7C480.5,363.8,480.5,363.6,480.5,363.5z"/>
				<path class="st30" d="M471.8,359.6c-1,0.8-2.6,0.4-2.7,0.5c-1.2,1-2.5,2-3.8,2.9c-0.7,0.5-1.7,1.2-1.5,2.2
					c0.3,1.8,3.2,1.2,4.2,0.7c1.1-0.5,1.9-1.4,2.9-2.1c0.7-0.5,1.4-0.7,1.5-1.6C472.5,361.6,472,359.6,471.8,359.6z"/>
				<path class="st31" d="M472.4,361.8c-0.1,0.9-0.8,1.1-1.6,1.6c-1,0.6-1.9,1.6-3,2.1c-1.1,0.5-3.4,1-4.2-0.3
					c0.4,1.7,3.2,1.2,4.2,0.6c1-0.5,1.9-1.4,2.9-2.1c0.7-0.5,1.4-0.7,1.5-1.6C472.4,362.1,472.4,361.9,472.4,361.8z"/>
				<path class="st22" d="M465.6,306.3c0.5-3.9,2-9.7,2-9.7c1.4,0.6,2.9,1,4.4,1.1c2.2,0,4.4-0.2,6.6-0.7c0.7,1.2,1.5,2.5,2.3,3.6
					c1.1,1.6,3.3,5,2.8,11.1c-0.3,3.9-2.6,20.7-2.6,20.7c0.9,2.8,1.3,5.8,1.4,8.7c-0.2,3.5-0.7,7-1.4,10.4l-1.3,9.5
					c0,0-1.8,1.3-3,0.4l0.2-9.3c-0.2-2.3-0.4-5.6-0.5-7.8c-0.2-3.5-0.8-9.1-1-10.5s-0.6-3.8-0.8-6.5c-0.2-2.7-1.2-16.5-1.2-16.5
					l-0.1,2.6c0,0-0.1,4.2-0.7,9.4s-0.8,7.5-0.8,7.5c0.6,1,1,2.2,1.2,3.3c0.1,1.1,1.4,10,0.6,14.5l-1.6,11.4
					c-0.8,0.5-1.8,0.7-2.7,0.4l-0.9-11.6c-0.6-4.4-1.9-13.7-2.1-14.9c-0.4-2.4-0.7-4.9-0.8-7.4C465,321.2,465.1,310.3,465.6,306.3z"
					/>
				<path class="st1" d="M478.6,295.6l3.4,6.8c0,0,5.2,7.6-0.2,27.1l1,6c0,0-10.2,6.5-17,0c0,0-2.4-18-1.1-26.4
					c0.7-4.8,1.8-9.5,3.2-14.1c0,0,1.7,1.8,10.2,0.6"/>
				<path class="st26" d="M484.7,286.2c0,0-2.4,2.4-5.2,2.1l-1.3-4.6c0,0-0.8-2.4,1.2-3.4C481.3,279.2,483.5,281.5,484.7,286.2z"/>
				<path class="st26" d="M470.6,277.8c0,0-2.7-0.8-5.6,5.2l1.1,0.6C467.5,281.5,469,279.6,470.6,277.8z"/>
			</g>
			<g id="Girl_4">
				<ellipse class="st7" cx="163.8" cy="470.6" rx="18.9" ry="10.9"/>
				<path id="_Контур_33" class="st22" d="M174.8,386.6c1.7,0.5,2.6,2.3,4.1,6.2c1.2,3.6,1.8,7.3,1.7,11
					c-0.5,3.7-2,6.6-5.7,9.6l-1.8-3.2c0,0,3.6-3.2,4-6.9c0.2-2.1-2.2-9.1-2.2-9.2C174.9,393.8,174.8,386.6,174.8,386.6z"/>
				<path class="st30" d="M160.3,471.6c-1.1,0.3-2.3,0.2-3.3-0.5c-0.9,0-6.2-2.1-6.9-0.3c-0.6,1.5,1.5,3,2.7,3.3
					c2.5,0.6,4.3,1.8,5.3,2c0.8,0.3,1.6,0.2,2.3-0.3C161.1,475.1,161,472.5,160.3,471.6z"/>
				<path class="st31" d="M158.1,475.7c-1-0.2-2.8-1.4-5.3-2c-0.9-0.2-2.6-1.3-2.7-2.5c-0.2,1.4,1.7,2.7,2.7,2.9
					c2.5,0.6,4.3,1.8,5.3,2c0.8,0.3,1.6,0.2,2.3-0.3c0.1-0.2,0.3-0.4,0.3-0.6C159.9,475.8,159,476,158.1,475.7z"/>
				<path class="st30" d="M173.8,464.6c-1,0.3-2.1,0.2-2.9-0.4c-0.8,0-6.3-2-6.9-0.3c-0.6,1.5,1.5,2.9,2.6,3.1
					c2.4,0.6,4.2,1.8,5.1,2c0.7,0.3,1.6,0.1,2.2-0.3C174.5,468,174.5,465.5,173.8,464.6z"/>
				<path class="st31" d="M171.6,468.6c-1-0.2-2.7-1.4-5.1-2c-0.9-0.2-2.5-1.2-2.6-2.4c-0.2,1.4,1.7,2.6,2.6,2.8
					c2.4,0.6,4.2,1.8,5.1,2c0.7,0.3,1.6,0.1,2.2-0.3c0.1-0.2,0.3-0.4,0.3-0.6C173.4,468.7,172.5,468.8,171.6,468.6z"/>
				<path id="_Контур_34" class="st22" d="M175.6,451.2c0-2-0.3-4.1-1-6c0,0,0.7-8.2,1.2-13.5c0.8-7.9,2-8.7,1.7-13.5
					c-0.3-4.5-2.9-7.3-3.5-10.4l-12.9,1c0,0-1.1,3.7-2.6,11s-1.6,16-1.4,27.5c0,3-0.5,5.5-0.3,12.9c0.1,5,0.4,11,0.4,11
					c1.9,1.6,3.2,0.4,3.2,0.4s3.3-14.7,3.8-18.1c0.4-1.9,0.2-3.8-0.5-5.6c0,0,1-4.6,1.7-8.2c0.8-4.4,3-14,3-14s-0.4,14.7,0.3,17.6
					c0.6,2.9,0.8,5.4,1.3,9.4c0.7,4.8,1,11.7,1,11.7c2,1.3,2.8,0.3,2.8,0.3S175.6,455.3,175.6,451.2z"/>
				<path class="st1" d="M173.9,407.8c1.4,1.4,3.6,5.6,3.6,12c0,7.2-1,5.7-1.5,13.6l-0.5,7.9c0,0-10.8,5.2-18.5,0.4
					c-0.7-1.5,0.3-18.1,1.6-24c1.4-5.9,2.3-8.8,2.3-8.8S170.7,411.5,173.9,407.8z"/>
				<path id="_Контур_35" class="st22" d="M174,386.5c-2.8-0.2-3,0.3-3.2-0.7c-0.1-0.4-0.2-2.8-0.2-2.8c0.3-0.3,0.5-0.7,0.7-1
					c1.9-1.1,3.1-3.1,3.3-5.3c0.4-3.9-2.4-7.4-6.3-7.8c-3.6-0.4-6.3,2.2-7.1,5.7c-0.4,1.7-0.8,5.3,0.3,8.1c0.6,1.6,1.2,2.7,2.6,2.7
					c0.5,0,1-0.1,1.4-0.3c0.1,0.7,0.1,1.3,0.1,2c0,0.7,0.1,1.1-1.3,1.9c-1.4,0.9,2.1,2.6,4.3,2.4c2.3-0.2,4.8-1.5,5.5-3
					C175,387,175.3,386.6,174,386.5z"/>
				<path class="st26" d="M176,398.7c0,0,3.1-0.7,4.5-2.1c0,0-1.9-5.8-3-7.3c-1.2-1.5-2.3,7.9-2.3,7.9L176,398.7z"/>
				<path id="_Контур_36" class="st23" d="M171.3,386.4c0.5,0.6,0.6,1.4-1.4,1.9c-1.4,0.4-3,0.3-4.3-0.3
					c-1.5,0.7-3,1.4-4.4,2.4c-1.7,5.5-0.3,6.2-1,10.2c0.3,2,0.6,7.1,0.7,8.3c3.7,2.6,11.4,1.7,13.1-1.1c0-0.9,0.1-1.8,0.3-2.8
					c1.8-6.6,3.2-8.3,2.7-13.4c-0.3-2.9-0.5-4.3-2-5.1C173.6,386.4,172.4,386.3,171.3,386.4z"/>
				<path id="_Контур_37" class="st22" d="M136.9,408c0.9,0.2,1.7,0.4,2.5,0.7c0.8,0.4,1.6,0.7,2.4,0.8
					c0.9,0.1,2.4-0.3,4.8-1.5c2.7-1.4,5.2-3.2,7.3-5.5c2.4-2.8,4.5-5.9,6.3-9.1c1.1-2,2.4-2.5,3.6-2.1c1.4,0.5,1.6,1.9,0,4.5
					c-2,3.4-4.5,6.6-7.3,9.5c-2.2,2.2-4.8,4-7.6,5.3c-2,1-4.2,1.8-6.4,2.2c-0.8,0.2-1.3,0.5-2.7,1c-1.4,0.5-3,0.7-4.5,0.5
					c-1.2-0.2-1.7-0.5-1.7-0.8c-0.1-0.3,0.2-0.5,0.8-0.5c0.9,0.1,1.9,0.1,2.8-0.1c0,0-1.3,0-2-0.1c-0.7-0.1-1.4-0.2-2-0.5
					c-0.6-0.3-0.8-1.2-0.2-1.2c0.6,0,1,0.2,2.2,0.3c0.6,0.1,1.2,0.1,1.8,0c-0.8-0.1-1.5-0.3-2.2-0.6c-0.6-0.2-1.1-0.5-1.5-1
					c-0.2-0.2-0.2-0.8,0.6-0.7c0.9,0.3,1.8,0.5,2.7,0.6c0.9,0,1.6-0.1,1.5-0.2c-0.1-0.1-0.7-0.1-1.4-0.5c-0.7-0.4-1.1-1.2-0.8-1.5
					C136.1,407.4,136.1,407.7,136.9,408z"/>
				<path class="st26" d="M162.4,399.2c-2.2-0.3-4.2-1.3-5.7-2.9l3.5-4.8c0,0,1.9-2.5,4.5-1.1c0,0,1.9,0.2,0,4.3
					C164,396.2,163.2,397.7,162.4,399.2z"/>
				<path class="st27" d="M160.6,372.6c0.3-1.7,1.9-2.9,3.6-2.6c1.2-0.8,2.7-1.2,4.1-1c3.3,0.3,5.4,2.5,6.4,5.8c0.5,1.6,0.8,3.3,1,5
					c1,7.3,3.6,13.1,1.2,15.3s-9.3,3.5-12.1,2.2s2.3-14-3.3-20.9C160.1,374.6,160,373.5,160.6,372.6z"/>
			</g>
			<g id="Men_13">
				<ellipse class="st7" cx="111.5" cy="443.9" rx="18.9" ry="10.9"/>
				<path class="st21" d="M102.6,441.2c1.3,1.1,3.2,0.1,3.3,0.2c1.5,1.4,3.1,2.7,4.8,4c0.8,0.6,2.1,1.5,1.8,2.7
					c-0.4,2.2-3.9,1.5-5.2,0.8c-1.3-0.7-2.4-1.8-3.6-2.5c-0.9-0.6-1.8-0.8-1.9-2C101.6,443.7,102.3,441.2,102.6,441.2z"/>
				<path class="st24" d="M101.7,443.9c0.2,1.1,1,1.4,1.9,1.9c1.3,0.8,2.4,1.9,3.7,2.6c1.3,0.7,4.2,1.2,5.1-0.3
					c-0.5,2.1-3.9,1.4-5.2,0.8c-1.3-0.7-2.4-1.8-3.6-2.5c-0.9-0.6-1.8-0.8-1.9-2C101.7,444.2,101.7,444.1,101.7,443.9z"/>
				<path class="st21" d="M113.7,437c1.3,1.1,3.5-0.1,3.6,0c1.3,1.4,2.8,2.6,4.2,3.8c0.8,0.6,2.1,1.5,1.8,2.7
					c-0.4,2.2-3.9,1.5-5.2,0.8c-1.3-0.7-2.4-1.8-3.6-2.5c-0.9-0.6-1.8-0.8-1.9-2C112.7,439.2,113.5,437,113.7,437z"/>
				<path class="st24" d="M112.8,439.6c0.2,1.1,1,1.4,1.9,1.9c1.3,0.8,2.4,1.9,3.7,2.6c1.3,0.7,4.2,1.2,5.1-0.3
					c-0.5,2.1-3.9,1.4-5.2,0.8c-1.3-0.7-2.4-1.8-3.6-2.5c-0.9-0.6-1.8-0.8-1.9-2C112.8,439.9,112.8,439.7,112.8,439.6z"/>
				<path id="_Контур_38" class="st25" d="M102.5,393.5c0.1,2,0.7,10.4,0.9,14.9c0.3,4.5,0.3,10,0.3,10s-0.8,3.3-1.3,7.1
					c-0.5,3.8,0,16,0,16c1,0.7,2.3,0.7,3.3,0c0,0,2.1-9.7,3-14.1c1-4.4,1.1-6.9,1.6-9.6c0.6-3.3,1.9-18.6,1.9-18.6h0.5l1.4,17.3
					c-0.4,1.3-0.7,2.6-0.9,3.9c-0.4,2.8,0.4,17,0.4,17c1.1,0.6,2.5,0.6,3.6-0.2c0,0,3.4-18.8,3.4-21.6c0-1.9-0.3-26.8-0.3-26.8
					L102.5,393.5z"/>
				<path id="_Контур_39" class="st22" d="M107.1,355.8c0,0,0.2,4.3,0.1,4.6c-0.1,0.4-2,1.6-2.5,2.1c-0.6,0.5,2.9,3.9,4.6,4.7
					c1.7,0.8,7.1-1.3,7.2-3.9c0.1-2.6-0.9-4.9-1.7-5C114,358.2,107.1,355.8,107.1,355.8z"/>
				<path class="st22" d="M118.8,363.7c0.3-1.9-1-3.7,0.2-5.2c4.2,4.1,3.7,15,4.6,22c3.1,3.3,9.4,6.5,11.2,7.3
					c0.3,0.2,0.6,0.3,0.5,0.7c-0.2,1.2-0.7,2.3-1.5,3.2c-4.2-1.8-7.1-2.8-12.3-7.7c-0.5-0.5-0.9-1.1-1.3-1.7
					C118.8,377.7,118.4,366.9,118.8,363.7z"/>
				<path id="_Контур_40" class="st23" d="M106.7,361.2c0,0,3.1,4.6,7.4,5c1.4-1.3,1.5-6.1-0.4-7.6c0,0,1.7-1.4,2.9-1.1
					c1.3,0.8,2.2,2,2.7,3.4c1.1,3.2,1.6,6.5,1.5,9.9c-0.1,4.5,0,18.3,0,18.3s-0.6,2.9-4.5,5.1c-3.9,2.2-6.8,2.4-9.4,1.8
					c-2.2-0.5-4-1.3-4.7-2.9c0.2-3.2,1.6-11.4,1.1-15.4c-0.5-4-1.4-6.9-1.6-10.2c-0.2-3.2,0.4-3.2,2-4.3
					C104.6,362.4,105.6,361.7,106.7,361.2z"/>
				<path id="_Контур_41" class="st22" d="M116.8,349.4L116.8,349.4c-0.5-3.3-2.9-5.8-6.3-5.6c-3.6,0.2-6.4,3.3-6.2,6.9
					c0.1,2,1.2,3.9,2.9,5.1c0.1,0.5,0.3,1,0.5,1.4c1.2,1.4,4.9,2.3,5.9,2.1c1.3-0.1,2.4-1,2.7-2.2
					C117.4,354.5,117.1,351.1,116.8,349.4z"/>
				<path class="st21" d="M107.1,355.8L107.1,355.8l0.3-2.9c0,0-2.4-6.1,3.2-4.9c3.7,0.8,4.6,1.1,5.7-1.4c1.1-2.5-2.8-4.7-7.5-4.1
					c-3.3,0.4-5.9,3.2-5.8,6.6C103.2,350.9,103.7,354.6,107.1,355.8z"/>
				<path class="st22" d="M100.6,365.5c1.6-0.5,0.4-0.1,1.6-0.5c4.2,4.1,3.7,11.2,4.6,18.2c2.3,3.8,10.9,9,10.9,9
					c0.1,0.7-0.2,1-1.1,2.5c-4.8-1.8-9.1-4.6-12.8-8.3c-0.2-0.2-0.5-0.3-0.6-0.5C101.8,381.5,100.2,368.8,100.6,365.5z"/>
				<polygon class="st23" points="138.9,374.1 132.7,395.5 118.9,401 124,380.2 				"/>
				<path class="st22" d="M115.6,392.4c0.2-0.7,0.7-0.6,1.3-0.4c0.6,0.3,1.4,0.3,2,0.2c0.5-0.3,1-0.6,1.5-1c0.3-0.2,0.6-0.3,0.9-0.3
					c0,0.2-0.3,1.3-0.3,1.3s3,0,3.3,0c0.3-0.1,0.5,0.1,0.6,0.4c0,0.2,0,0.3-0.1,0.4h0.2c0.6-0.1,0.8,0.8,0.3,1l-0.5,0.1
					c0.4,0.2,0.5,0.8,0,0.9h-0.2c-0.1,0-0.1,0-0.2,0h-0.2c0.1,0.3-0.1,0.6-0.4,0.6c0,0,0,0,0,0c-1.5,0.2-3.6,0.8-5-0.4
					c-0.9-0.1-1.8-0.3-2.7-0.7C115.4,394.1,115.4,393.3,115.6,392.4z"/>
				<path class="st22" d="M130.7,390.7h0.2c-0.2-0.2-0.3-0.5-0.1-0.7c0.1-0.1,0.2-0.2,0.4-0.2c0.3,0,3.4-0.7,3.4-0.7l0.4-1.3
					c0-0.1,0.5,0.3,0.6,0.3c0.5,0.3,0.9,0.9,0.9,1.5c0,0.9-0.3,1.7-0.9,2.4c-0.6,0.5-1.3,0.9-2.1,0.9c-0.4,0-0.7,0-1.1,0.1
					c-0.3,0-0.6-0.2-0.6-0.5c0,0,0,0,0,0h-0.1c-0.1,0-0.1,0-0.2,0h-0.2c-0.5,0-0.6-0.7-0.2-0.9h-0.5
					C130,391.6,130,390.6,130.7,390.7z"/>
				<path class="st26" d="M120.6,366.5c0.8,0,1.6-0.4,2.2-1c-0.1-1.6-2.1-7.6-6.2-8c1.1,0.8,2,1.8,2.5,3.1
					C119.7,362.5,120.2,364.5,120.6,366.5z"/>
				<path class="st26" d="M99.9,374.4c0,0,4,1.4,6.9-1c0.3-0.5-1.7-7.4-1.7-7.4s-1.7-3.5-4.4-2.1S99.9,374.4,99.9,374.4z"/>
			</g>
			<g id="Men_12">
				<path id="_Контур_42" class="st22" d="M346.6,136.3c-1.3,2.3-2.9,4.5-4.8,6.5c-0.5,0.6-4.5-0.9-3.6-1.3
					c0.8-0.4,3.4-4,4.7-6.4c1.1-2.9,2-5.8,2.8-8.8c0.8-2.9,1.5-7.3,2.1-9.3c0.3-1.5,1.5-2.7,3-3.1c1.4-0.3,2.3,0.1,2.1,1.8
					C352.5,118.6,350.1,130.3,346.6,136.3z"/>
				<path class="st30" d="M348.9,182.3c-1.2,1-3,0.1-3.1,0.2c-1.4,1.3-2.9,2.6-4.5,3.8c-0.8,0.6-2,1.4-1.7,2.6
					c0.4,2.1,3.7,1.4,4.9,0.8c1.2-0.6,2.3-1.7,3.4-2.4c0.8-0.5,1.7-0.8,1.8-1.9C349.8,184.7,349.1,182.3,348.9,182.3z"/>
				<path class="st31" d="M349.7,184.9c-0.2,1-1,1.3-1.8,1.8c-1.2,0.7-2.3,1.8-3.5,2.4c-1.2,0.6-4,1.2-4.8-0.3
					c0.4,2,3.7,1.4,4.9,0.7c1.2-0.6,2.3-1.7,3.4-2.4c0.8-0.5,1.7-0.8,1.8-1.9C349.7,185.2,349.7,185,349.7,184.9z"/>
				<path class="st30" d="M336.5,175.2c-1.2,1-3.3-0.1-3.5,0c-1.3,1.3-2.6,2.5-4,3.6c-0.8,0.6-2,1.4-1.7,2.6
					c0.4,2.1,3.7,1.4,4.9,0.8c1.2-0.6,2.3-1.7,3.4-2.4c0.8-0.5,1.7-0.8,1.8-1.9C337.5,177.2,336.7,175.1,336.5,175.2z"/>
				<path class="st31" d="M337.4,177.6c-0.2,1-1,1.3-1.8,1.8c-1.2,0.7-2.3,1.8-3.5,2.4c-1.3,0.6-4,1.2-4.8-0.3
					c0.4,2,3.7,1.4,4.9,0.7s2.3-1.7,3.4-2.4c0.8-0.5,1.7-0.8,1.8-1.9C337.4,177.9,337.4,177.7,337.4,177.6z"/>
				<path id="_Контур_43" class="st1" d="M365.3,143c1.4,8.5-2.4,11.7-7.3,13.5c-3.5,1.3-8.6,3.3-8.6,3.3s0.1,1.9,0.1,6
					c0,3.7-0.5,17.1-0.5,17.1c-1.2,0.6-2.6,0.6-3.7,0c0,0-2-10.3-2.4-14.9c-0.6-6.3-1.5-10.4-1.2-11.8c0.3-1.2,7.2-4.6,9.4-6.4
					l-14.4,4.8c0.3,1.6,0.4,3.2,0.4,4.7c-0.1,5-0.4,15.8-0.4,15.8s-2,1.4-3.7,0c0,0-3.6-21.4-3.2-24.2c0.4-2.7,13.1-8.2,15.4-10.1
					c0.8-0.6,1.8-0.9,2.8-0.8L365.3,143z"/>
				<g id="_Группа_5">
					<g id="_Группа_6">
						<path id="_Контур_44" class="st23" d="M330.7,146.5l9.7-5.6c0.2-0.1,0.4-0.1,0.6,0l17,9.8l-10,5.8L330.7,146.5z"/>
						<path class="st27" d="M348.4,154.4l0.7,0.4c0.1,0,0.1,0.1,0,0.1l-0.7,0.4c-0.1,0-0.2,0-0.2,0l-0.7-0.4c-0.1,0-0.1-0.1,0-0.1
							l0.7-0.4C348.3,154.4,348.4,154.4,348.4,154.4z"/>
						<path class="st27" d="M347.4,153.8l0.7,0.4c0.1,0,0.1,0.1,0,0.1l-0.7,0.4c-0.1,0-0.2,0-0.2,0l-0.7-0.4c-0.1,0-0.1-0.1,0-0.1
							l0.7-0.4C347.2,153.8,347.3,153.8,347.4,153.8z"/>
						<path class="st27" d="M346.4,153.2l0.7,0.4c0.1,0,0.1,0.1,0,0.1l-0.7,0.4c-0.1,0-0.2,0-0.2,0l-0.7-0.4c-0.1,0-0.1-0.1,0-0.1
							l0.7-0.4C346.2,153.2,346.3,153.2,346.4,153.2z"/>
						<path class="st27" d="M345.3,152.6l0.7,0.4c0.1,0,0.1,0.1,0,0.1l-0.7,0.4c-0.1,0-0.2,0-0.2,0l-0.7-0.4c-0.1,0-0.1-0.1,0-0.1
							l0.7-0.4C345.1,152.6,345.2,152.6,345.3,152.6z"/>
						<path class="st27" d="M344.2,152l0.7,0.4c0.1,0,0.1,0.1,0,0.1l-0.7,0.4c-0.1,0-0.2,0-0.2,0l-0.7-0.4c-0.1,0-0.1-0.1,0-0.1
							l0.7-0.4C344.1,152,344.2,152,344.2,152z"/>
						<path class="st27" d="M343.2,151.4l0.7,0.4c0.1,0,0.1,0.1,0,0.1l-0.7,0.4c-0.1,0-0.2,0-0.2,0l-0.7-0.4c-0.1,0-0.1-0.1,0-0.1
							l0.7-0.4C343,151.4,343.1,151.4,343.2,151.4z"/>
						<path class="st27" d="M342.2,150.8l0.7,0.4c0.1,0,0.1,0.1,0,0.1l-0.7,0.4c-0.1,0-0.2,0-0.2,0l-0.7-0.4c-0.1,0-0.1-0.1,0-0.1
							l0.7-0.4C342,150.8,342.1,150.8,342.2,150.8z"/>
						<path class="st27" d="M341.1,150.2l0.7,0.4c0.1,0,0.1,0.1,0,0.1l-0.7,0.4c-0.1,0-0.2,0-0.2,0l-0.7-0.4c-0.1,0-0.1-0.1,0-0.1
							l0.7-0.4C340.9,150.2,341,150.2,341.1,150.2z"/>
						<path class="st27" d="M340.1,149.6l0.7,0.4c0.1,0,0.1,0.1,0,0.1l-0.7,0.4c-0.1,0-0.2,0-0.2,0l-0.7-0.4c-0.1,0-0.1-0.1,0-0.1
							l0.7-0.4C339.9,149.6,340,149.6,340.1,149.6z"/>
						<path class="st27" d="M339,149l0.7,0.4c0.1,0,0.1,0.1,0,0.1l-0.7,0.4c-0.1,0-0.2,0-0.2,0l-0.7-0.4c-0.1,0-0.1-0.1,0-0.1
							l0.7-0.4C338.9,149,338.9,149,339,149z"/>
						<path class="st27" d="M338,148.4l0.7,0.4c0.1,0,0.1,0.1,0,0.1l-0.7,0.4c-0.1,0-0.2,0-0.2,0l-0.7-0.4c-0.1,0-0.1-0.1,0-0.1
							l0.7-0.4C337.8,148.4,337.9,148.4,338,148.4z"/>
						<path class="st27" d="M336.9,147.8l0.7,0.4c0.1,0,0.1,0.1,0,0.1l-0.7,0.4c-0.1,0-0.2,0-0.2,0l-0.7-0.4c-0.1,0-0.1-0.1,0-0.1
							l0.7-0.4C336.8,147.7,336.8,147.7,336.9,147.8z"/>
						<path class="st27" d="M335.9,147.2l0.7,0.4c0.1,0,0.1,0.1,0,0.1l-0.7,0.4c-0.1,0-0.2,0-0.2,0l-0.7-0.4c-0.1,0-0.1-0.1,0-0.1
							l0.7-0.4C335.7,147.1,335.8,147.1,335.9,147.2z"/>
						<path class="st27" d="M334.3,146.3l1.2,0.7c0.1,0,0.1,0.1,0,0.1l-0.7,0.4c-0.1,0-0.2,0-0.2,0l-1.2-0.7c-0.1,0-0.1-0.1,0-0.1
							l0.7-0.4C334.2,146.2,334.3,146.2,334.3,146.3z"/>
						<path class="st27" d="M347.9,152.9l0.7,0.4c0.1,0,0.1,0.1,0,0.1l-0.7,0.4c-0.1,0-0.2,0-0.2,0l-0.7-0.4c-0.1,0-0.1-0.1,0-0.1
							l0.7-0.4C347.7,152.9,347.8,152.9,347.9,152.9z"/>
						<path class="st27" d="M346.8,152.3l0.7,0.4c0.1,0,0.1,0.1,0,0.1l-0.7,0.4c-0.1,0-0.2,0-0.2,0l-0.7-0.4c-0.1,0-0.1-0.1,0-0.1
							l0.7-0.4C346.7,152.3,346.8,152.3,346.8,152.3z"/>
						<path class="st27" d="M345.8,151.8l0.7,0.4c0.1,0,0.1,0.1,0,0.1l-0.7,0.4c-0.1,0-0.2,0-0.2,0l-0.7-0.4c-0.1,0-0.1-0.1,0-0.1
							l0.7-0.4C345.6,151.7,345.7,151.7,345.8,151.8z"/>
						<path class="st27" d="M344.7,151.1l0.7,0.4c0.1,0,0.1,0.1,0,0.1l-0.7,0.4c-0.1,0-0.2,0-0.2,0l-0.7-0.4c-0.1,0-0.1-0.1,0-0.1
							l0.7-0.4C344.6,151.1,344.7,151.1,344.7,151.1z"/>
						<path class="st27" d="M343.7,150.5l0.7,0.4c0.1,0,0.1,0.1,0,0.1l-0.7,0.4c-0.1,0-0.2,0-0.2,0l-0.7-0.4c-0.1,0-0.1-0.1,0-0.1
							l0.7-0.4C343.6,150.5,343.6,150.5,343.7,150.5z"/>
						<path class="st27" d="M342.7,149.9l0.7,0.4c0.1,0,0.1,0.1,0,0.1l-0.7,0.4c-0.1,0-0.2,0-0.2,0l-0.7-0.4c-0.1,0-0.1-0.1,0-0.1
							l0.7-0.4C342.5,149.9,342.6,149.9,342.7,149.9z"/>
						<path class="st27" d="M341.6,149.3l0.7,0.4c0.1,0,0.1,0.1,0,0.1l-0.7,0.4c-0.1,0-0.2,0-0.2,0l-0.7-0.4c-0.1,0-0.1-0.1,0-0.1
							l0.7-0.4C341.5,149.3,341.5,149.3,341.6,149.3z"/>
						<path class="st27" d="M340.6,148.7l0.7,0.4c0.1,0,0.1,0.1,0,0.1l-0.7,0.4c-0.1,0-0.2,0-0.2,0l-0.7-0.4c-0.1,0-0.1-0.1,0-0.1
							l0.7-0.4C340.4,148.7,340.5,148.7,340.6,148.7z"/>
						<path class="st27" d="M339.5,148.1l0.7,0.4c0.1,0,0.1,0.1,0,0.1l-0.7,0.4c-0.1,0-0.2,0-0.2,0l-0.7-0.4c-0.1,0-0.1-0.1,0-0.1
							l0.7-0.4C339.4,148.1,339.4,148.1,339.5,148.1z"/>
						<path class="st27" d="M338.5,147.5l0.7,0.4c0.1,0,0.1,0.1,0,0.1l-0.7,0.4c-0.1,0-0.2,0-0.2,0l-0.7-0.4c-0.1,0-0.1-0.1,0-0.1
							l0.7-0.4C338.3,147.5,338.4,147.5,338.5,147.5z"/>
						<path class="st27" d="M337.4,146.9l0.7,0.4c0.1,0,0.1,0.1,0,0.1l-0.7,0.4c-0.1,0-0.2,0-0.2,0l-0.7-0.4c-0.1,0-0.1-0.1,0-0.1
							l0.7-0.4C337.3,146.9,337.4,146.9,337.4,146.9z"/>
						<path class="st27" d="M336.3,146.3l0.7,0.4c0.1,0,0.1,0.1,0,0.1l-0.7,0.4c-0.1,0-0.2,0-0.2,0l-0.7-0.4c-0.1,0-0.1-0.1,0-0.1
							l0.7-0.4C336.2,146.3,336.3,146.3,336.3,146.3z"/>
						<path class="st27" d="M348.9,153.5l1.2,0.7c0.1,0,0.1,0.1,0,0.1l-0.7,0.4c-0.1,0-0.2,0-0.2,0l-1.2-0.7c-0.1,0-0.1-0.1,0-0.1
							l0.7-0.4C348.8,153.5,348.9,153.5,348.9,153.5z"/>
						<path class="st27" d="M334.4,146.2l0.7,0.4c0.1,0,0.2,0,0.2,0l0.7-0.4c0.1,0,0.1-0.1,0-0.1H336c0,0,0-0.1,0-0.1c0,0,0,0,0,0
							l0.8-0.5c0,0,0.1-0.1,0-0.1c0,0,0,0,0,0l-0.5-0.3c-0.1,0-0.2,0-0.2,0l-0.7,0.4l-0.2,0.1l-0.1,0.1l-0.1,0.1l-0.6,0.4
							C334.3,146.1,334.3,146.1,334.4,146.2C334.3,146.2,334.3,146.2,334.4,146.2z"/>
						<path class="st27" d="M352.5,152.1l0.7,0.4c0.1,0,0.1,0.1,0,0.1l-0.7,0.4c-0.1,0-0.2,0-0.2,0l-0.7-0.4c-0.1,0-0.1-0.1,0-0.1
							l0.7-0.4C352.3,152,352.4,152,352.5,152.1z"/>
						<path class="st27" d="M351.4,151.5l0.7,0.4c0.1,0,0.1,0.1,0,0.1l-0.7,0.4c-0.1,0-0.2,0-0.2,0l-0.7-0.4c-0.1,0-0.1-0.1,0-0.1
							l0.7-0.4C351.3,151.4,351.4,151.4,351.4,151.5z"/>
						<path class="st27" d="M350.4,150.9l0.7,0.4c0.1,0,0.1,0.1,0,0.1l-0.7,0.4c-0.1,0-0.2,0-0.2,0l-0.7-0.4c-0.1,0-0.1-0.1,0-0.1
							l0.7-0.4C350.2,150.8,350.3,150.8,350.4,150.9z"/>
						<path class="st27" d="M341.5,145.8l0.7,0.4c0.1,0,0.1,0.1,0,0.1l-0.7,0.4c-0.1,0-0.2,0-0.2,0l-0.7-0.4c-0.1,0-0.1-0.1,0-0.1
							l0.7-0.4C341.4,145.7,341.4,145.7,341.5,145.8z"/>
						<path class="st27" d="M340.5,145.2l0.7,0.4c0.1,0,0.1,0.1,0,0.1l-0.7,0.4c-0.1,0-0.2,0-0.2,0l-0.7-0.4c-0.1,0-0.1-0.1,0-0.1
							l0.7-0.4C340.3,145.1,340.4,145.1,340.5,145.2z"/>
						<path class="st27" d="M339.4,144.5l0.7,0.4c0.1,0,0.1,0.1,0,0.1l-0.7,0.4c-0.1,0-0.2,0-0.2,0l-0.7-0.4c-0.1,0-0.1-0.1,0-0.1
							l0.7-0.4C339.3,144.5,339.4,144.5,339.4,144.5z"/>
						<path class="st27" d="M338.4,143.9l0.7,0.4c0.1,0,0.1,0.1,0,0.1l-0.7,0.4c-0.1,0-0.2,0-0.2,0l-0.7-0.4c-0.1,0-0.1-0.1,0-0.1
							l0.7-0.4C338.2,143.9,338.3,143.9,338.4,143.9z"/>
						<path class="st27" d="M349.1,150.1l1,0.6c0.1,0,0.1,0.1,0,0.1l-0.7,0.4c-0.1,0-0.2,0-0.2,0l-1-0.6c-0.1,0-0.1-0.1,0-0.1
							l0.7-0.4C348.9,150.1,349,150.1,349.1,150.1z"/>
						<path class="st27" d="M342.6,146.4l1,0.6c0.1,0,0.1,0.1,0,0.1l-0.7,0.4c-0.1,0-0.2,0-0.2,0l-1-0.6c-0.1,0-0.1-0.1,0-0.1
							l0.7-0.4C342.4,146.3,342.5,146.3,342.6,146.4z"/>
						<path class="st27" d="M343.9,147.1l4.9,2.8c0.1,0,0.1,0.1,0,0.1l-0.7,0.4c-0.1,0-0.2,0-0.2,0l-4.9-2.8c-0.1,0-0.1-0.1,0-0.1
							l0.7-0.4C343.7,147.1,343.8,147.1,343.9,147.1z"/>
						<path class="st27" d="M348.6,152.2l0.7,0.4c0.1,0,0.1,0.1,0,0.1l-0.7,0.4c-0.1,0-0.2,0-0.2,0l-0.7-0.4c-0.1,0-0.1-0.1,0-0.1
							l0.7-0.4C348.5,152.2,348.5,152.2,348.6,152.2z"/>
						<path class="st27" d="M347.6,151.6l0.7,0.4c0.1,0,0.1,0.1,0,0.1l-0.7,0.4c-0.1,0-0.2,0-0.2,0l-0.7-0.4c-0.1,0-0.1-0.1,0-0.1
							l0.7-0.4C347.4,151.6,347.5,151.6,347.6,151.6z"/>
						<path class="st27" d="M346.5,151l0.7,0.4c0.1,0,0.1,0.1,0,0.1l-0.7,0.4c-0.1,0-0.2,0-0.2,0l-0.7-0.4c-0.1,0-0.1-0.1,0-0.1
							l0.7-0.4C346.4,151,346.5,151,346.5,151z"/>
						<path class="st27" d="M345.5,150.4l0.7,0.4c0.1,0,0.1,0.1,0,0.1l-0.7,0.4c-0.1,0-0.2,0-0.2,0l-0.7-0.4c-0.1,0-0.1-0.1,0-0.1
							l0.7-0.4C345.4,150.4,345.5,150.4,345.5,150.4z"/>
						<path class="st27" d="M344.4,149.8l0.7,0.4c0.1,0,0.1,0.1,0,0.1l-0.7,0.4c-0.1,0-0.2,0-0.2,0l-0.7-0.4c-0.1,0-0.1-0.1,0-0.1
							l0.7-0.4C344.3,149.7,344.4,149.7,344.4,149.8z"/>
						<path class="st27" d="M343.4,149.2l0.7,0.4c0.1,0,0.1,0.1,0,0.1l-0.7,0.4c-0.1,0-0.2,0-0.2,0l-0.7-0.4c-0.1,0-0.1-0.1,0-0.1
							l0.7-0.4C343.2,149.1,343.3,149.1,343.4,149.2z"/>
						<path class="st27" d="M342.4,148.6l0.7,0.4c0.1,0,0.1,0.1,0,0.1l-0.7,0.4c-0.1,0-0.2,0-0.2,0l-0.7-0.4c-0.1,0-0.1-0.1,0-0.1
							l0.7-0.4C342.2,148.5,342.3,148.5,342.4,148.6z"/>
						<path class="st27" d="M341.3,148l0.7,0.4c0.1,0,0.1,0.1,0,0.1l-0.7,0.4c-0.1,0-0.2,0-0.2,0l-0.7-0.4c-0.1,0-0.1-0.1,0-0.1
							l0.7-0.4C341.1,147.9,341.2,147.9,341.3,148z"/>
						<path class="st27" d="M340.3,147.4l0.7,0.4c0.1,0,0.1,0.1,0,0.1l-0.7,0.4c-0.1,0-0.2,0-0.2,0l-0.7-0.4c-0.1,0-0.1-0.1,0-0.1
							l0.7-0.4C340.1,147.3,340.2,147.3,340.3,147.4z"/>
						<path class="st27" d="M339.2,146.8l0.7,0.4c0.1,0,0.1,0.1,0,0.1l-0.7,0.4c-0.1,0-0.2,0-0.2,0l-0.7-0.4c-0.1,0-0.1-0.1,0-0.1
							l0.7-0.4C339.1,146.7,339.1,146.7,339.2,146.8z"/>
						<path class="st27" d="M338.2,146.2l0.7,0.4c0.1,0,0.1,0.1,0,0.1l-0.7,0.4c-0.1,0-0.2,0-0.2,0l-0.7-0.4c-0.1,0-0.1-0.1,0-0.1
							l0.7-0.4C338,146.1,338.1,146.1,338.2,146.2z"/>
						<path class="st27" d="M337.1,145.6l0.7,0.4c0.1,0,0.1,0.1,0,0.1l-0.7,0.4c-0.1,0-0.2,0-0.2,0l-0.7-0.4c-0.1,0-0.1-0.1,0-0.1
							l0.7-0.4C337,145.5,337.1,145.5,337.1,145.6z"/>
						<path class="st27" d="M349.7,152.8l1.5,0.9c0.1,0,0.1,0.1,0,0.1l-0.7,0.4c-0.1,0-0.2,0-0.2,0l-1.5-0.9c-0.1,0-0.1-0.1,0-0.1
							l0.7-0.4C349.5,152.8,349.6,152.8,349.7,152.8z"/>
						<path class="st27" d="M350.2,151.9l0.7,0.4c0.1,0,0.1,0.1,0,0.1l-0.7,0.4c-0.1,0-0.2,0-0.2,0l-0.7-0.4c-0.1,0-0.1-0.1,0-0.1
							l0.7-0.4C350,151.9,350.1,151.9,350.2,151.9z"/>
						<path class="st27" d="M349.1,151.3l0.7,0.4c0.1,0,0.1,0.1,0,0.1l-0.7,0.4c-0.1,0-0.2,0-0.2,0l-0.7-0.4c-0.1,0-0.1-0.1,0-0.1
							l0.7-0.4C348.9,151.3,349,151.3,349.1,151.3z"/>
						<path class="st27" d="M348,150.7l0.7,0.4c0.1,0,0.1,0.1,0,0.1l-0.7,0.4c-0.1,0-0.2,0-0.2,0l-0.7-0.4c-0.1,0-0.1-0.1,0-0.1
							l0.7-0.4C347.9,150.7,348,150.7,348,150.7z"/>
						<path class="st27" d="M347,150.1l0.7,0.4c0.1,0,0.1,0.1,0,0.1l-0.7,0.4c-0.1,0-0.2,0-0.2,0l-0.7-0.4c-0.1,0-0.1-0.1,0-0.1
							l0.7-0.4C346.9,150.1,346.9,150.1,347,150.1z"/>
						<path class="st27" d="M346,149.5l0.7,0.4c0.1,0,0.1,0.1,0,0.1l-0.7,0.4c-0.1,0-0.2,0-0.2,0L345,150c-0.1,0-0.1-0.1,0-0.1
							l0.7-0.4C345.8,149.5,345.9,149.5,346,149.5z"/>
						<path class="st27" d="M344.9,148.9l0.7,0.4c0.1,0,0.1,0.1,0,0.1l-0.7,0.4c-0.1,0-0.2,0-0.2,0l-0.7-0.4c-0.1,0-0.1-0.1,0-0.1
							l0.7-0.4C344.8,148.9,344.9,148.9,344.9,148.9z"/>
						<path class="st27" d="M343.9,148.3l0.7,0.4c0.1,0,0.1,0.1,0,0.1l-0.7,0.4c-0.1,0-0.2,0-0.2,0l-0.7-0.4c-0.1,0-0.1-0.1,0-0.1
							l0.7-0.4C343.7,148.3,343.8,148.3,343.9,148.3z"/>
						<path class="st27" d="M342.8,147.7l0.7,0.4c0.1,0,0.1,0.1,0,0.1l-0.7,0.4c-0.1,0-0.2,0-0.2,0l-0.7-0.4c-0.1,0-0.1-0.1,0-0.1
							l0.7-0.4C342.7,147.7,342.8,147.7,342.8,147.7z"/>
						<path class="st27" d="M341.8,147.1l0.7,0.4c0.1,0,0.1,0.1,0,0.1l-0.7,0.4c-0.1,0-0.2,0-0.2,0l-0.7-0.4c-0.1,0-0.1-0.1,0-0.1
							l0.7-0.4C341.6,147.1,341.7,147.1,341.8,147.1z"/>
						<path class="st27" d="M340.8,146.5l0.7,0.4c0.1,0,0.1,0.1,0,0.1l-0.7,0.4c-0.1,0-0.2,0-0.2,0l-0.7-0.4c-0.1,0-0.1-0.1,0-0.1
							l0.7-0.4C340.6,146.4,340.7,146.4,340.8,146.5z"/>
						<path class="st27" d="M339.7,145.9l0.7,0.4c0.1,0,0.1,0.1,0,0.1l-0.7,0.4c-0.1,0-0.2,0-0.2,0l-0.7-0.4c-0.1,0-0.1-0.1,0-0.1
							l0.7-0.4C339.5,145.8,339.6,145.8,339.7,145.9z"/>
						<path class="st27" d="M337.4,144.5l2,1.2c0.1,0,0.1,0.1,0,0.1l-0.7,0.4c-0.1,0-0.2,0-0.2,0l-2-1.1c-0.1,0-0.1-0.1,0-0.1
							l0.7-0.4C337.2,144.5,337.3,144.5,337.4,144.5z"/>
						<path class="st27" d="M351.2,152.5l1,0.6c0.1,0,0.1,0.1,0,0.1l-0.7,0.4c-0.1,0-0.2,0-0.2,0l-1-0.6c-0.1,0-0.1-0.1,0-0.1
							l0.7-0.4C351,152.5,351.1,152.5,351.2,152.5z"/>
						<path class="st27" d="M333.3,146.9l14.8,8.6c0.1,0,0.1,0.1,0,0.1l-0.4,0.2c-0.1,0-0.2,0-0.2,0l-14.9-8.6c-0.1,0-0.1-0.1,0-0.1
							l0.4-0.2C333.1,146.9,333.2,146.8,333.3,146.9z"/>
						<polygon id="_Контур_45" class="st28" points="350.6,147.3 350.5,147.3 348,148.8 343.4,146.2 343.3,146.1 346,144.6 
													"/>
						<polygon id="_Контур_46" class="st29" points="350.5,147.3 348,148.8 343.4,146.2 346,144.7 						"/>
						<path id="_Контур_47" class="st29" d="M357.9,150.7v0.2c0,0.3-0.2,0.7-0.5,0.8l-9,5.2c-0.1,0.1-0.3,0.1-0.5,0.1
							c-0.2,0-0.3,0-0.5-0.1l-16.3-9.4c-0.3-0.2-0.5-0.5-0.5-0.8v-0.2l17.3,10L357.9,150.7z"/>
						<path id="_Контур_48" class="st23" d="M347.7,156.6c-0.3,0.1-0.7,0.1-1-0.1l-16.3-9.4c-0.3-0.2-0.5-0.4-0.5-0.8
							l-1.8-10.6c0-0.1,0-0.1,0-0.2c0-0.3,0.1-0.6,0.3-0.8l16.9,9.8c0.2,0.1,0.4,0.3,0.4,0.6L347.7,156.6z"/>
						<path id="_Контур_49" class="st29" d="M348,156.5l-0.1,0.1c0,0-0.1,0.1-0.2,0.1l-1.9-11.5c0-0.2-0.2-0.5-0.4-0.6
							l-16.9-9.8c0.1-0.1,0.1-0.1,0.2-0.2l17,9.8c0.2,0.1,0.3,0.3,0.4,0.6L348,156.5z"/>
					</g>
				</g>
				<path id="_Контур_50" class="st22" d="M360.3,111c0,0-0.2,4-0.1,4.4c0.1,0.4,1.9,1.5,2.4,2s-2.8,3.7-4.4,4.4
					c-1.6,0.7-6.7-1.2-6.8-3.7c-0.1-2.5,0.8-4.6,1.7-4.7C353.8,113.3,360.3,111,360.3,111z"/>
				<path id="_Контур_51" class="st23" d="M360.7,116.1c0,0-2.9,4.4-7,4.8c-1.3-1.3-1.4-5.8,0.4-7.2c0,0-1.7-1.3-2.8-1.1
					c-1.2,0.7-2.1,1.9-2.5,3.2c-1,3-1.5,6.2-1.4,9.4c0.1,4.3,0,15.1,0,15.1c0.5,2.6,2.1,4.9,4.3,6.2c3,1.7,6.4,2.1,9.7,1.3
					c2.1-0.5,2.8-1.7,3.6-3.1c-0.2-3-1.4-9.2-0.9-13c0.5-3.8,1.3-6.6,1.5-9.7c0.2-3.1-0.4-3-1.9-4.1
					C362.7,117.3,361.7,116.7,360.7,116.1z"/>
				<path id="_Контур_52" class="st22" d="M356,150.9c0.7-0.5,1.5-0.9,2.3-1.3c0.7-0.2,1.4-0.6,2-1.2c0.7-0.7,1.9-3.3,2.7-6
					c0.8-2.9,1.2-6,1-9.1c-0.4-3.6-1.7-8.7-2-10.9c-0.3-2.1,0.3-2.9,1.3-3.7c1.1-0.9,2.7-0.5,3.6,2.4c1.1,4.1,1.7,8.2,1.9,12.5
					c0,3.1-0.5,6.2-1.4,9.2c-0.9,2.5-2.1,5-3.5,7.2c-0.4,0.7-0.5,1.3-1.2,2.7c-0.6,1.4-1.5,2.6-2.7,3.6c-1,0.7-1.5,0.8-1.8,0.7
					c-0.2-0.1-0.2-0.5,0.2-0.9c0.7-0.6,1.4-1.3,1.8-2.1c0,0-0.9,0.9-1.5,1.4c-0.5,0.4-1.1,0.8-1.7,1.1c-0.6,0.3-1.4-0.2-1-0.7
					s0.8-0.6,1.7-1.3c0.5-0.4,0.9-0.8,1.2-1.3c-0.6,0.5-1.2,0.9-1.9,1.2c-0.5,0.3-1.1,0.5-1.7,0.5c-0.3,0-0.7-0.5-0.1-0.9
					c0.8-0.4,1.6-0.9,2.3-1.6c0.7-0.7,1-1.2,0.8-1.2s-0.5,0.4-1.3,0.6c-0.8,0.2-1.6,0-1.7-0.4C355.3,151.2,355.3,151.3,356,150.9z"
					/>
				<path id="_Контур_53" class="st22" d="M351.1,105L351.1,105c0.5-3.1,2.7-5.5,6-5.3c3.4,0.2,6.1,3.1,5.9,6.5
					c-0.1,2-1.1,3.7-2.7,4.8c-0.1,0.5-0.3,0.9-0.5,1.4c-1.1,1.3-4.6,2.2-5.6,2c-1.2-0.1-2.2-0.9-2.6-2.1
					C350.5,109.8,350.9,106.5,351.1,105z"/>
				<path class="st27" d="M360.3,111L360.3,111l-0.3-2.7c0,0,2.2-5.8-3-4.7c-3.5,0.7-4.4,1.1-5.4-1.3s2.7-4.4,7.1-3.9
					c3.2,0.3,5.6,3,5.5,6.2C364,106.4,363.5,109.9,360.3,111z"/>
				<path class="st26" d="M369.3,126.7c0,0-2.9,2.9-6.3,2c-0.5-0.3-1.7-7-1.7-7s0-3.7,2.8-3.6C367,118.2,369.3,126.7,369.3,126.7z"
					/>
				<path class="st26" d="M347.5,121.2c-0.8,0-1.6-0.4-2.1-1c0.1-1.5,2-7.2,5.9-7.6c-1.1,0.7-1.9,1.7-2.4,2.9
					C348.3,117.3,347.8,119.2,347.5,121.2z"/>
			</g>
			<path class="st2" d="M447.4,388.3c-1.3-1.2-2.7-2.2-4.3-3.1c-11.6-6.7-30.4-6.7-41.9,0c-1.8,1-3.4,2.3-4.9,3.7
				c-6.4,6.5-4.7,15,4.9,20.5c11.6,6.7,30.4,6.7,41.9,0C453.1,403.7,454.5,394.9,447.4,388.3z M439.5,407.3c-9.5,5.5-25,5.5-34.5,0
				c-6.7-3.9-8.7-9.4-6-14.3c1.5-2.4,3.5-4.3,6-5.7c9.5-5.5,25-5.5,34.5,0c2.5,1.3,4.5,3.3,6,5.7l0,0
				C448.2,397.9,446.2,403.4,439.5,407.3z"/>
			<path class="st32" d="M445.5,393L445.5,393c-1.4-2.4-3.5-4.3-6-5.7c-9.5-5.5-25-5.5-34.5,0c-2.5,1.3-4.5,3.3-6,5.7l-2.6-4.1
				l-0.5-0.7l3.3-8l11.6-6.4l21.6,0.4l14.7,8.7c0,0,0.3,2.8,0.3,5.5C447.5,391.7,447.1,395,445.5,393z"/>
			<polygon class="st2" points="392.6,397.2 392.6,388.2 397.1,395.8 			"/>
			<polygon class="st2" points="451.8,397.2 451.8,388.2 447.9,392.7 			"/>
			<ellipse class="st33" cx="422.5" cy="392.7" rx="24.7" ry="14.2"/>
			<path class="st2" d="M394.9,398.8c0,0,3.8,15,32.1,14.2c19.7,0,22.2-16.9,21.7-19.3c-4.1,5.6-10.4,9.2-17.4,9.7
				c-12,1-20.8,0.9-25.5-1.4c-4.7-2.3-10.9-8.3-10.9-8.3L394.9,398.8z"/>
			<path class="st4" d="M401.3,400.8c-11.6-6.7-11.6-17.5,0-24.2c11.6-6.7,30.4-6.7,41.9,0s11.6,17.5,0,24.2
				S412.8,407.5,401.3,400.8z M439.5,378.7c-9.5-5.5-25-5.5-34.5,0c-9.5,5.5-9.5,14.4,0,19.9c9.5,5.5,25,5.5,34.5,0
				C449,393.2,449.1,384.2,439.5,378.7z"/>
			<ellipse transform="matrix(0.866 -0.5 0.5 0.866 -167.1311 237.3647)" class="st18" cx="359.4" cy="430.6" rx="3.3" ry="5.6"/>
			<polygon class="st2" points="404.3,404.6 391.8,411.8 388,409.6 400.5,402.4 			"/>
			<polygon class="st32" points="404.3,409 391.8,416.2 391.8,411.8 404.3,404.6 			"/>
			<path class="st1" d="M394.4,414.9c-0.2-2.8-1.6-5.4-4-6.9c-0.8-0.6-1.9-0.7-2.8-0.3l0,0l-31,17.9l5.7,9.7l30.7-17.7
				C393.8,417.3,394.4,416.4,394.4,414.9z"/>
			<ellipse transform="matrix(0.866 -0.5 0.5 0.866 -167.1311 237.3647)" class="st16" cx="359.4" cy="430.6" rx="3.3" ry="5.6"/>
			<g id="Men_1">
				<ellipse class="st7" cx="446.5" cy="470.6" rx="18.9" ry="10.9"/>
				<path id="_Контур_54" class="st22" d="M459.8,392c0.2,1.8,2.3,9.4,1.9,12c-0.5,2.6-7.6,7-7.6,7l-1-4.5l4-3.9l-1.1-7.4
					L459.8,392z"/>
				<path id="_Контур_55" class="st26" d="M454.2,384.5c1.4-0.7,3.2-0.1,4,1.2c1.1,1.7,2.1,7.7,2.2,8.8c0,0-1.5,2.1-3.7,1.7
					L454.2,384.5z"/>
				<path class="st21" d="M446,469.2c-1.6,0.4-3.2,0.2-4.6-0.6c-1.1,0-7.2-2.6-8-0.4c-0.7,1.9,1.9,3.7,3.3,4
					c3.1,0.7,5.3,2.3,6.6,2.5c0.9,0.2,2.1,0.3,2.8-0.4C447,473.6,446.9,470.4,446,469.2z"/>
				<path class="st24" d="M443.3,474.3c-1.2-0.3-3.5-1.8-6.6-2.5c-1.2-0.3-3.2-1.6-3.4-3.1c-0.3,1.8,2.1,3.3,3.4,3.6
					c3.1,0.7,5.3,2.3,6.6,2.5c0.9,0.2,2.1,0.3,2.8-0.4c0.2-0.2,0.3-0.5,0.4-0.7C445.6,474.4,444.4,474.6,443.3,474.3z"/>
				<path class="st21" d="M455.9,464.8c-1.6,0.4-3.2,0.2-4.6-0.6c-1.1,0-7.2-2.6-8-0.4c-0.7,1.9,1.9,3.7,3.3,4
					c3.1,0.7,5.3,2.3,6.6,2.5c0.9,0.2,2.1,0.3,2.8-0.4C456.8,469.1,456.8,465.9,455.9,464.8z"/>
				<path class="st24" d="M453.1,469.9c-1.2-0.3-3.5-1.8-6.6-2.5c-1.2-0.3-3.2-1.6-3.4-3.1c-0.3,1.8,2.1,3.3,3.4,3.6
					c3.1,0.7,5.3,2.3,6.6,2.5c0.9,0.2,2.1,0.3,2.8-0.4c0.2-0.2,0.3-0.5,0.4-0.7C455.4,470,454.2,470.2,453.1,469.9z"/>
				<path id="_Контур_56" class="st25" d="M456,448.3c-0.3-2.3-0.7-4.5-1.4-6.7c0,0,0.4-5.7,0.6-11.2
					c0.2-6.2,2.4-11.6,0.7-16.5l-19.1,4.2c0,0,1.2,24.6,1.4,27.6c0.1,2.3,0.4,4.6,0.8,6.9c0.8,4.8,2.3,16.2,2.3,16.2
					c1.4,0.7,3.1,0.9,4.7,0.5c0,0-0.1-14.4-0.3-17.8c-0.2-4.2-0.3-3.9-0.3-3.9l0.6-10.5l0.4-5.2c0,0,0.5,3.8,0.8,7.2
					c0.3,3,1,5.7,1.8,11.2c0.7,4.8,1.8,14.5,1.8,14.5c2,1.2,4.8,0.2,4.8,0.2S456.6,452.5,456,448.3z"/>
				<path id="_Контур_57" class="st22" d="M453.2,384.6c-1.5,0.1-2.5,0.5-2.7,0c-0.2-0.7-0.3-1.5-0.3-2.3
					c0.2-0.4,0.3-0.9,0.3-0.9c1.8-1.1,2.4-3.1,2.6-5.4c0.4-3.9-1.7-7.4-5.6-7.8c-3.7-0.4-6.4,2.2-7.1,5.8c-0.4,1.8-1.2,5.1-0.1,8
					c0.6,1.6,1.3,2.9,2.1,3.1c0.7,0,1.5-0.1,2.2-0.2l0,0c0,0,0.2,1.1,0.3,1.8c0.1,0.7,0.1,1.1-1.3,1.9s2.1,2.6,4.4,2.4
					c2.3-0.2,4.9-1.6,5.6-3C454.3,386.5,454.2,384.6,453.2,384.6z"/>
				<path id="_Контур_58" class="st23" d="M451.1,384.8c0.4,1-0.6,2.2-3.3,3.1s-3-0.3-3-0.3c-1.8,0.8-3.6,1.7-5.3,2.7
					c-1.7,1.1-2.4,4.5-2.6,10c-0.3,6.5-0.3,16.1-0.1,17.7c0,0,3.1,3,7,2.7c3.9-0.3,10.5-3.8,12.1-6.5c0-5.7-0.7-6.6,0.2-9.9
					c2.1-7.5,3.2-10.5,2.2-15.5c-0.8-4.1-2-4.6-3.6-4.6C453.5,384.5,452.3,384.7,451.1,384.8z"/>
				<path id="_Контур_59" class="st22" d="M430.8,405.8c3.2,0.8,4-1.2,4.4-2.9c1-4.1,1.6-7.7,2.3-10c0.9-2.7,1.8-3.2,3.2-3.7
					c1.5-0.6,2.9,0.7,2.4,4.2c-0.6,4-1.6,8-2.9,11.8c-0.4,1.3-1.3,3.5-2.6,4.6c-1.7,1.3-4.2,1.3-7.9,0.3c-1.6-0.4-3.3-1.4-6.4-2.8
					c-0.8-0.4-1.5-0.6-3-1.4c-1.6-0.7-3-1.8-4-3.1c-0.8-1.2-0.9-1.8-0.8-2s0.6-0.3,1,0.2c0.6,0.8,1.4,1.6,2.3,2.1c0,0-1-1.1-1.6-1.7
					c-0.5-0.6-0.9-1.3-1.2-2c-0.3-0.7,0.3-1.7,0.8-1.1c0.5,0.5,0.7,1,1.5,2c0.4,0.5,0.9,1,1.5,1.4c-0.5-0.7-1-1.4-1.4-2.2
					c-0.4-0.6-0.5-1.3-0.5-2c0-0.4,0.5-0.8,1-0.1c0.5,0.9,1.1,1.8,1.7,2.6c0.7,0.8,1.4,1.2,1.4,1c0-0.2-0.4-0.6-0.7-1.5
					c-0.3-0.9,0-1.8,0.5-1.9c0.5-0.1,0.4-0.1,0.8,0.8c0.5,0.9,1,1.7,1.5,2.6c0.2,0.9,0.7,1.6,1.3,2.3
					C426,404.1,427.7,405,430.8,405.8z"/>
				<path id="_Контур_60" class="st26" d="M441.8,388.6c-2.1-0.3-3.7,0.7-4.6,3.9c-1,3.2-1.6,5.9-1.6,5.9
					c0.8,1.2,2.1,2.1,3.6,2.4c2.6,0.6,3.5-0.6,3.5-0.6s0.7-3.4,1.2-5.7C444.3,392.2,444.5,389,441.8,388.6z"/>
				<path class="st21" d="M440.5,373.6c0,0-3.4-5.1,4-6.2c5.3-0.8,8.7,2.6,9.1,6.3c0.4,3.5-1.8,7.2-3.3,8.6
					c-1.5,0.4-3.2,0.2-4.6-0.6c-0.1-1-0.1-1.9-0.1-2.9C445.5,378.9,448.1,373.5,440.5,373.6z"/>
			</g>
		</g>
	</g>
</g>
</svg>
