<?xml version="1.0" encoding="utf-8"?>
<!-- Generator: Adobe Illustrator 19.2.1, SVG Export Plug-In . SVG Version: 6.00 Build 0)  -->
<svg version="1.1" id="Capa_1" xmlns="http://www.w3.org/2000/svg" xmlns:xlink="http://www.w3.org/1999/xlink" x="0px" y="0px"
	 viewBox="0 0 480 480" style="enable-background:new 0 0 480 480;" xml:space="preserve">
<style type="text/css">
	.st0{fill:#0D47A1;}
</style>
<g>
	<g>
		<path class="st0" d="M328,0H152c-22.1,0-40,17.9-40,40v400c0,22.1,17.9,40,40,40h176c22.1,0,40-17.9,40-40V40
			C368,17.9,350.1,0,328,0z M208.2,464H152c-13.3,0-24-10.7-24-24v-24h80.2C197.3,430.1,197.3,449.9,208.2,464z M240,464
			c-13.3,0-24-10.7-24-24s10.7-24,24-24s24,10.7,24,24S253.3,464,240,464z M352,440c0,13.3-10.7,24-24,24h-56.2
			c10.9-14.1,10.9-33.9,0-48H352V440z M352,400H128V88h224V400z M352,72H128V40c0-13.3,10.7-24,24-24h176c13.3,0,24,10.7,24,24V72z"
			/>
	</g>
</g>
<g>
	<g>
		<rect x="184" y="40" class="st0" width="80" height="16"/>
	</g>
</g>
<g>
	<g>
		<path class="st0" d="M208,160h-32c-13.3,0-24,10.7-24,24v32c0,13.3,10.7,24,24,24h32c13.3,0,24-10.7,24-24v-32
			C232,170.7,221.3,160,208,160z M216,216c0,4.4-3.6,8-8,8h-32c-4.4,0-8-3.6-8-8v-32c0-4.4,3.6-8,8-8h32c4.4,0,8,3.6,8,8V216z"/>
	</g>
</g>
<g>
	<g>
		<path class="st0" d="M304,160h-32c-13.3,0-24,10.7-24,24v32c0,13.3,10.7,24,24,24h32c13.3,0,24-10.7,24-24v-32
			C328,170.7,317.3,160,304,160z M312,216c0,4.4-3.6,8-8,8h-32c-4.4,0-8-3.6-8-8v-32c0-4.4,3.6-8,8-8h32c4.4,0,8,3.6,8,8V216z"/>
	</g>
</g>
<g>
	<g>
		<path class="st0" d="M208,256h-32c-13.3,0-24,10.7-24,24v32c0,13.3,10.7,24,24,24h32c13.3,0,24-10.7,24-24v-32
			C232,266.7,221.3,256,208,256z M216,312c0,4.4-3.6,8-8,8h-32c-4.4,0-8-3.6-8-8v-32c0-4.4,3.6-8,8-8h32c4.4,0,8,3.6,8,8V312z"/>
	</g>
</g>
<g>
	<g>
		<path class="st0" d="M304,256h-32c-13.3,0-24,10.7-24,24v32c0,13.3,10.7,24,24,24h32c13.3,0,24-10.7,24-24v-32
			C328,266.7,317.3,256,304,256z M312,312c0,4.4-3.6,8-8,8h-32c-4.4,0-8-3.6-8-8v-32c0-4.4,3.6-8,8-8h32c4.4,0,8,3.6,8,8V312z"/>
	</g>
</g>
<g>
	<g>
		<path class="st0" d="M176,104h-24c-4.4,0-8,3.6-8,8v24c0,4.4,3.6,8,8,8s8-3.6,8-8v-16h16c4.4,0,8-3.6,8-8S180.4,104,176,104z"/>
	</g>
</g>
<g>
	<g>
		<path class="st0" d="M224,104h-16c-4.4,0-8,3.6-8,8s3.6,8,8,8h16c4.4,0,8-3.6,8-8S228.4,104,224,104z"/>
	</g>
</g>
<g>
	<g>
		<rect x="280" y="40" class="st0" width="16" height="16"/>
	</g>
</g>
</svg>
