<?xml version="1.0" encoding="utf-8"?>
<!-- Generator: Adobe Illustrator 19.2.1, SVG Export Plug-In . SVG Version: 6.00 Build 0)  -->
<svg version="1.1" id="Layer_1" xmlns="http://www.w3.org/2000/svg" xmlns:xlink="http://www.w3.org/1999/xlink" x="0px" y="0px"
	 viewBox="0 0 511 511" style="enable-background:new 0 0 511 511;" xml:space="preserve">
<style type="text/css">
	.st0{fill:#0D47A1;}
</style>
<path class="st0" d="M492.4,191h-9.1C475,145,453,102.6,419.2,68.8C375.5,25,317.3,1,255.5,1S135.5,25,91.8,68.8
	c-34,34-56.2,76.8-64.3,123.3h-8.9C8.3,192,0,200.3,0,210.6V278c0,10.2,8.3,18.6,18.6,18.6H33c12.4,42.9,37,81.8,71.7,111.6
	c3.1,2.7,7.9,2.3,10.6-0.8c2.7-3.1,2.3-7.9-0.8-10.6c-9-7.7-17.2-16.1-24.7-25c11.5-4.8,23.2-8.8,34.9-12.1
	c5.6,9.9,11.9,19.4,18.8,28.5c15.3,19.9,32.5,37.5,50.9,52c-15.3-4.5-30-10.6-43.9-18.4c-3.6-2-8.2-0.7-10.2,2.9
	c-2,3.6-0.7,8.2,2.9,10.2c34.2,19,73,29,112.3,29c61.8,0,120-24.1,163.7-67.8c28.1-28.1,48-62.1,58.7-99.3h14.5
	c10.2,0,18.6-8.3,18.6-18.6v-68.8C511,199.3,502.7,191,492.4,191z M468.1,191h-52.1c-0.6-3.9-1.3-7.8-2.1-11.6
	c-4.5-21.5-11.4-42-20.8-61.4c1.4-0.4,2.8-0.7,4.1-1.1c9.5-2.7,21.7-6.4,33.6-11.5C449.4,130.9,462.1,160,468.1,191z M400.9,192
	h-77.4c-0.3-3.8-0.5-7.5-0.9-11.3c-1.5-16.8-3.7-33-6.5-48.5c21.5-2.2,42.2-5.7,62.1-10.5c9.5,19.1,16.5,39.3,20.9,60.6
	C399.8,185.6,400.4,188.8,400.9,192z M408.6,79.4c4.4,4.4,8.6,9,12.6,13.7c-10,4-20,7.1-28.1,9.4c-2.3,0.7-4.7,1.3-7.1,1.9
	c-4.7-8.5-9.9-16.7-15.6-24.7c-14.9-20.9-32.6-39.2-52.9-54.7C351.6,35,382.8,53.5,408.6,79.4z M278.6,17.2
	C310.4,35,337.2,59,358.2,88.4c4.6,6.4,8.8,13,12.7,19.8c-18.5,4.2-37.8,7.4-57.7,9.4c-8.7-40.4-21.8-75.2-38.3-100.7
	C276.2,16.9,277.4,17,278.6,17.2z M255.5,15.9c0.2,0,0.4,0,0.5,0c18.2,24,32.8,59.9,42.1,102.8c-16,1.2-32.4,1.6-49.2,1.4
	c-11.4-0.2-23.6-0.5-36.2-1.3c9.4-43,23.9-78.9,42.2-102.9C255.1,15.9,255.3,15.9,255.5,15.9z M236.1,16.8
	c-16.5,25.6-29.7,60.4-38.3,101c-18.8-1.6-38.5-4.3-58.1-8.8c4-7,8.4-13.9,13.2-20.6c21-29.4,47.7-53.3,79.6-71.2
	C233.6,17,234.8,16.9,236.1,16.8z M194.8,132.5c-2.8,15.4-5,31.5-6.4,48.2c-0.3,3.8-0.6,7.5-0.9,11.3h-77.4c0.5-3.2,1.1-6.4,1.8-9.6
	c4.3-21,11.2-41,20.5-59.8C153.5,127.7,174.6,130.7,194.8,132.5z M102.4,79.4c25.8-25.8,57.1-44.3,91.1-54.5
	c-20.2,15.5-37.9,33.8-52.9,54.7c-5.9,8.2-11.2,16.7-16.1,25.5c-11.7-3.3-23.4-7.2-34.8-12C93.8,88.4,98,83.8,102.4,79.4z
	 M80.2,105.3c12.3,5.4,24.8,9.8,37.4,13.4c-9.2,19.2-16,39.4-20.4,60.6c-0.9,4.2-1.6,8.4-2.3,12.6H42.7
	C48.6,160.7,61.4,131.2,80.2,105.3z M18.6,281.6c-2,0-3.6-1.6-3.6-3.6v-67.4c0-2,1.6-3.6,3.6-3.6h216.3c4.1,0,7.5-3.4,7.5-7.5
	c0-4.1-3.4-7.5-7.5-7.5h-32.3c0.2-3.3,0.5-6.6,0.8-9.9c1.5-16.8,3.7-33,6.5-48.4c13.7,0.9,26.8,1.3,39,1.4c3,0,5.9,0.1,8.8,0.1
	c14.8,0,29.3-0.6,43.5-1.6c2.8,15.5,5.1,31.7,6.5,48.5c0.3,3.3,0.5,6.6,0.8,9.9h-26.8c-4.1,0-7.5,3.4-7.5,7.5c0,4.1,3.4,7.5,7.5,7.5
	h116.2v74.6L18.6,281.6L18.6,281.6z M396.1,296.6c-4.3,16.1-10.3,31.7-17.9,46.6c-19.9-4.7-40.6-8.2-62-10.4
	c2.2-11.7,3.9-23.8,5.3-36.1L396.1,296.6L396.1,296.6z M306.4,296.6c-1.4,11.9-3.1,23.5-5.2,34.8c-17.1-1.3-34.5-1.8-52.4-1.6
	c-12.2,0.2-25.4,0.6-39,1.4c-2.1-11.2-3.8-22.8-5.2-34.7H306.4z M80.2,359.6c-13.9-19.2-24.6-40.5-31.6-63.1h50.8
	c4.3,17.1,10.3,33.8,18.1,49.7C105,349.8,92.5,354.2,80.2,359.6z M115,296.6h74.6c1.4,12.2,3.1,24.2,5.2,35.8
	c-20.2,1.8-41.3,4.8-62.4,9.9C125,327.7,119.2,312.4,115,296.6z M232.3,447.7c-28-15.8-54.6-39.5-76.9-68.6
	c-5.7-7.4-10.9-15.2-15.6-23.2c19.6-4.4,39.1-7.1,57.9-8.8c3,13.6,6.5,26.6,10.5,38.9c6,18,15.3,42.1,28,62.1
	C234.9,448,233.6,447.9,232.3,447.7z M255.5,449c-0.2,0-0.4,0-0.5,0c-11.8-15.6-23-39-32.5-67.6c-3.7-11.1-6.9-23-9.7-35.3
	c12.7-0.8,24.8-1.1,36.2-1.3c16.8-0.2,33.2,0.2,49.2,1.4c-2.7,12.3-6,24.1-9.6,35.2c-9.5,28.7-20.7,52-32.5,67.6
	C255.9,449,255.7,449,255.5,449z M274.8,448.2c12.6-19.9,22-44,28-62.1c4-12.2,7.5-25.1,10.5-38.6c19.8,2,39,5.1,57.4,9.3
	c-4.6,7.7-9.6,15.2-15.1,22.4c-22.3,29.1-48.9,52.8-76.9,68.6C277.3,447.9,276.1,448,274.8,448.2z M408.6,385.6
	c-26.1,26.1-57.7,44.7-92.2,54.8c18.4-14.5,35.7-32.1,51-52.1c6.8-8.9,12.9-18.1,18.4-27.8c2.4,0.6,4.8,1.3,7.2,2
	c8.1,2.3,18.1,5.4,28.1,9.4C417.2,376.6,413,381.2,408.6,385.6z M430.8,359.6c-11.9-5.1-24.1-8.8-33.6-11.5
	c-1.4-0.4-2.8-0.8-4.1-1.1c7.9-16,14-32.8,18.4-50.1h50.9C455.3,319.3,444.7,340.5,430.8,359.6z M496,278c0,2-1.6,3.6-3.6,3.6h-79.6
	V207h79.6c2,0,3.6,1.6,3.6,3.6V278z"/>
<path class="st0" d="M56.7,258.8c0,1.1-1.7,2.3-3.6,2.3c-2.1,0-3.5-1.2-3.5-2.3v-37.2c0-1.3,1.4-2.2,3.5-2.2c1.9,0,3.6,0.9,3.6,2.2
	v17c1-2.2,3.5-4.2,7-4.2c5.1,0,9.5,5.1,9.5,11.2v13.1c0,1.5-1.8,2.3-3.6,2.3c-1.7,0-3.5-0.8-3.5-2.3v-13.1c0-2.5-2.2-5-4.8-5
	c-2.3,0-4.5,1.9-4.5,5L56.7,258.8L56.7,258.8z"/>
<path class="st0" d="M88.9,252.1c0,2.2,0.8,2.9,3.1,2.9h2.2c2,0,3,1.5,3,3c0,1.6-1,3-3,3H92c-6.6,0-10.2-2.7-10.2-9v-26.8
	c0-1.3,1.9-2.2,3.5-2.2c1.8,0,3.6,0.9,3.6,2.2v9.5h6.5c1.2,0,1.8,1.3,1.8,2.6c0,1.3-0.7,2.6-1.8,2.6h-6.5L88.9,252.1L88.9,252.1z"/>
<path class="st0" d="M111.5,252.1c0,2.2,0.8,2.9,3.1,2.9h2.2c2,0,3,1.5,3,3c0,1.6-1,3-3,3h-2.2c-6.6,0-10.2-2.7-10.2-9v-26.8
	c0-1.3,1.9-2.2,3.5-2.2c1.8,0,3.6,0.9,3.6,2.2v9.5h6.5c1.2,0,1.8,1.3,1.8,2.6c0,1.3-0.7,2.6-1.8,2.6h-6.5V252.1z"/>
<path class="st0" d="M133.7,237v1.7c1.3-2.2,3.9-4.2,7.5-4.2c5.5,0,9.9,5.1,9.9,11.2v4.5c0,5.9-4.5,11.4-9.7,11.4
	c-3.3,0-6.2-2.1-7.3-4.4V271c0,1.2-1.7,2.3-3.7,2.3c-2,0-3.5-1.1-3.5-2.3V237c0-1.3,1.5-2.2,3.4-2.2
	C132.3,234.8,133.7,235.6,133.7,237z M143.9,245.7c0-2.5-2.3-5-5-5c-2.3,0-4.8,1.9-4.8,5v5.5c0,1.2,2,4.1,4.9,4.1
	c2.6,0,4.9-2.5,4.9-5.1V245.7z"/>
<path class="st0" d="M171.4,253.7c0-4.9-13.1-1.8-13.1-11.1c0-3.9,2.5-8.2,9.9-8.2c4.5,0,8.8,1.6,8.8,3.6c0,1-0.9,3.4-2.6,3.4
	c-1.3,0-3-1.6-6.1-1.6c-2.8,0-3.9,1.4-3.9,2.5c0,4,13.3,1.3,13.3,11.1c0,4.9-3.7,8.1-10.2,8.1c-5.6,0-10-2.3-10-4.8
	c0-1.2,1-3.2,2.4-3.2c1.6,0,2.8,2.5,7.5,2.5C170.6,256.1,171.4,254.8,171.4,253.7z"/>
<path class="st0" d="M192.4,241.5c0,2-1.7,3.8-3.7,3.8c-2.2,0-3.8-1.8-3.8-3.8c0-2.1,1.6-3.8,3.8-3.8
	C190.6,237.7,192.4,239.4,192.4,241.5z M192.4,257.6c0,2-1.7,3.8-3.7,3.8c-2.2,0-3.8-1.8-3.8-3.8c0-2,1.6-3.8,3.8-3.8
	C190.6,253.9,192.4,255.6,192.4,257.6z"/>
<path class="st0" d="M224,220.9c0,0.3-0.1,0.7-0.2,1L203.9,262c-0.4,0.8-1.3,1.2-2.2,1.2c-1.6,0-2.7-1.3-2.7-2.4
	c0-0.3,0.1-0.7,0.3-0.9l19.9-40.4c0.4-0.8,1.2-1.2,2-1.2C222.5,218.4,224,219.4,224,220.9z"/>
<path class="st0" d="M240.7,220.9c0,0.3-0.1,0.7-0.2,1L220.6,262c-0.4,0.8-1.3,1.2-2.2,1.2c-1.6,0-2.7-1.3-2.7-2.4
	c0-0.3,0.1-0.7,0.3-0.9l19.9-40.4c0.4-0.8,1.2-1.2,2-1.2C239.3,218.4,240.7,219.4,240.7,220.9z"/>
<path class="st0" d="M272.7,260.4c-0.4,0.9-1.6,1.3-2.8,1.3c-1.4,0-2.6-0.4-2.9-1.3l-4.3-12.1l-4.2,12c-0.3,0.9-1.7,1.3-3,1.3
	c-1.2,0-2.4-0.3-2.8-1.3l-8.5-21.9c-0.2-0.4-0.3-0.8-0.3-1.1c0-1.7,2.8-2.9,4.7-2.9c0.9,0,1.8,0.4,2,1.2l5.5,15.7l4.2-13.7
	c0.4-1.3,1.3-1.4,2.4-1.4c1.1,0,2.1,0.2,2.4,1.4l4.1,13.7l5.6-15.8c0.3-0.7,1.1-1.2,2.1-1.2c1.8,0,4.6,1.2,4.6,3
	c0,0.3-0.1,0.7-0.2,1L272.7,260.4z"/>
<path class="st0" d="M314.4,260.4c-0.4,0.9-1.6,1.3-2.8,1.3c-1.4,0-2.6-0.4-2.9-1.3l-4.3-12.1l-4.2,12c-0.3,0.9-1.7,1.3-3,1.3
	c-1.2,0-2.4-0.3-2.8-1.3l-8.5-21.9c-0.2-0.4-0.3-0.8-0.3-1.1c0-1.7,2.8-2.9,4.7-2.9c0.9,0,1.8,0.4,2.1,1.2l5.5,15.7l4.2-13.7
	c0.4-1.3,1.3-1.4,2.4-1.4c1.1,0,2,0.2,2.4,1.4l4.1,13.7l5.6-15.8c0.3-0.7,1.1-1.2,2-1.2c1.8,0,4.6,1.2,4.6,3c0,0.3-0.1,0.7-0.2,1
	L314.4,260.4z"/>
<path class="st0" d="M356.1,260.4c-0.4,0.9-1.6,1.3-2.8,1.3c-1.4,0-2.6-0.4-2.9-1.3l-4.3-12.1l-4.2,12c-0.3,0.9-1.7,1.3-3,1.3
	c-1.2,0-2.4-0.3-2.8-1.3l-8.5-21.9c-0.2-0.4-0.3-0.8-0.3-1.1c0-1.7,2.8-2.9,4.7-2.9c0.9,0,1.8,0.4,2.1,1.2l5.5,15.7l4.2-13.7
	c0.4-1.3,1.3-1.4,2.4-1.4c1.1,0,2.1,0.2,2.4,1.4l4.1,13.7l5.6-15.8c0.3-0.7,1.1-1.2,2-1.2c1.8,0,4.6,1.2,4.6,3c0,0.3-0.1,0.7-0.2,1
	L356.1,260.4z"/>
<path class="st0" d="M476.2,228.3l-8.1-1.2l-3.6-7.3c-1.9-3.9-5.8-6.3-10.1-6.3s-8.2,2.4-10.1,6.3l-3.6,7.3l-8.1,1.2
	c-4.3,0.6-7.7,3.6-9.1,7.6c-1.3,4.1-0.2,8.5,2.8,11.5l5.8,5.7l-1.4,8.1c-0.7,4.2,1,8.5,4.5,11c3.5,2.5,8,2.9,11.8,0.9l7.2-3.8
	l7.2,3.8c1.7,0.9,3.5,1.3,5.2,1.3c2.3,0,4.6-0.7,6.6-2.2c3.5-2.5,5.2-6.7,4.5-11l-1.4-8.1l5.8-5.7c3.1-3,4.2-7.4,2.8-11.5
	C484,231.9,480.5,228.9,476.2,228.3z M464.7,243.8c-2.6,2.6-3.9,6.3-3.2,9.9l0.4,2.5l-2.3-1.2c-3.3-1.7-7.2-1.7-10.5,0l-2.3,1.2
	l0.4-2.5c0.6-3.6-0.6-7.4-3.2-9.9l-1.8-1.8l2.5-0.4c3.7-0.5,6.8-2.8,8.5-6.1l1.1-2.3l1.1,2.3c1.6,3.3,4.8,5.6,8.5,6.1l2.5,0.4
	L464.7,243.8z"/>
</svg>
